<?xml version="1.0" encoding="UTF-8" standalone="no"?>
<svg
   width="512"
   height="512"
   viewBox="0 0 512 512"
   version="1.1"
   id="svg6"
   sodipodi:docname="alarm.svg"
   inkscape:version="1.1.2 (0a00cf5339, 2022-02-04)"
   xmlns:inkscape="http://www.inkscape.org/namespaces/inkscape"
   xmlns:sodipodi="http://sodipodi.sourceforge.net/DTD/sodipodi-0.dtd"
   xmlns="http://www.w3.org/2000/svg"
   xmlns:svg="http://www.w3.org/2000/svg">
  <defs
     id="defs10" />
  <sodipodi:namedview
     id="namedview8"
     pagecolor="#ffffff"
     bordercolor="#666666"
     borderopacity="1.0"
     inkscape:pageshadow="2"
     inkscape:pageopacity="0.0"
     inkscape:pagecheckerboard="0"
     showgrid="false"
     inkscape:zoom="1.4199219"
     inkscape:cx="256.35213"
     inkscape:cy="256"
     inkscape:window-width="1920"
     inkscape:window-height="977"
     inkscape:window-x="598"
     inkscape:window-y="1111"
     inkscape:window-maximized="1"
     inkscape:current-layer="svg6" />
  <path
     d="m 465.19162,352.68219 c -1.88643,-2.2728 -3.73876,-4.54561 -5.55701,-6.73886 -25.00083,-30.23965 -40.12633,-48.49026 -40.12633,-134.09539 0,-44.31966 -10.60263,-80.68451 -31.50106,-107.95814 -15.4096,-20.148399 -36.23984,-35.433002 -63.6953,-46.728833 a 3.4092046,3.4092046 0 0 1 -0.93185,-0.76139 C 313.50474,23.330293 286.48111,1.1818265 256.00282,1.1818265 c -30.47828,0 -57.49056,22.1484665 -67.36589,55.1836585 a 3.5569369,3.5569369 0 0 1 -0.92048,0.738661 C 123.64613,83.480029 92.508737,134.08398 92.508737,211.81385 c 0,85.63922 -15.102775,103.88983 -40.126338,134.09538 -1.818243,2.19326 -3.670577,4.42061 -5.557004,6.73886 a 39.955878,39.955878 0 0 0 -5.284267,42.75143 c 7.011598,14.77322 21.955278,23.94398 39.012665,23.94398 H 431.57686 c 16.97784,0 31.81925,-9.15939 38.85357,-23.86443 a 39.967242,39.967242 0 0 0 -5.23881,-42.79688 z"
     id="path2"
     style="fill:#ffffff;fill-opacity:1;stroke-width:1.1364" />
  <path
     d="m 255.99432,510.28972 a 90.980308,90.980308 0 0 0 80.04813,-47.8766 4.5456062,4.5456062 0 0 0 -4.02286,-6.67068 h -152.0278 a 4.5456062,4.5456062 0 0 0 -4.03423,6.67068 90.980308,90.980308 0 0 0 80.03676,47.8766 z"
     id="path4"
     style="fill:#ffffff;fill-opacity:1;stroke-width:1.1364" />
</svg>
