<?xml version="1.0" encoding="UTF-8" standalone="no"?>
<svg
   width="512"
   height="512"
   viewBox="0 0 512 512"
   version="1.1"
   id="svg6"
   sodipodi:docname="at-circle.svg"
   inkscape:version="1.1.2 (0a00cf5339, 2022-02-04)"
   xmlns:inkscape="http://www.inkscape.org/namespaces/inkscape"
   xmlns:sodipodi="http://sodipodi.sourceforge.net/DTD/sodipodi-0.dtd"
   xmlns="http://www.w3.org/2000/svg"
   xmlns:svg="http://www.w3.org/2000/svg">
  <defs
     id="defs10" />
  <sodipodi:namedview
     id="namedview8"
     pagecolor="#ffffff"
     bordercolor="#666666"
     borderopacity="1.0"
     inkscape:pageshadow="2"
     inkscape:pageopacity="0.0"
     inkscape:pagecheckerboard="0"
     showgrid="false"
     inkscape:zoom="1.4199219"
     inkscape:cx="256"
     inkscape:cy="256"
     inkscape:window-width="1920"
     inkscape:window-height="977"
     inkscape:window-x="0"
     inkscape:window-y="31"
     inkscape:window-maximized="1"
     inkscape:current-layer="svg6" />
  <path
     d="M 256.00001,1.8342633 C 115.67119,1.8342633 1.8342633,115.61009 1.8342633,256.00001 c 0,140.3899 113.7880467,254.16573 254.1657467,254.16573 140.37769,0 254.16573,-113.78804 254.16573,-254.16573 0,-140.3777 -113.8247,-254.1657467 -254.16573,-254.1657467 z M 408.52389,250.20796 c -3.48256,39.87225 -20.51655,60.73095 -34.21462,71.19084 -13.69806,10.4599 -30.14553,15.05443 -44.33237,12.51278 a 50.845367,50.845367 0 0 1 -32.77271,-21.00534 75.834259,75.834259 0 0 1 -53.76584,21.46969 63.125972,63.125972 0 0 1 -47.10619,-20.56544 c -13.9058,-15.17663 -20.77317,-37.09842 -18.72029,-60.15663 3.66586,-42.76827 37.7705,-70.12775 69.49233,-75.12553 33.23707,-5.24216 63.82249,7.99156 76.8607,23.77916 l 4.70451,5.69429 -7.74717,61.56187 c -1.45412,17.52278 4.008,28.69141 15.01777,30.67097 2.92047,0.51322 9.8978,-0.15886 17.55944,-6.02421 8.21151,-6.29305 18.50033,-19.55122 20.89535,-47.00845 2.87159,-32.43057 -5.31548,-60.10776 -23.52255,-80.02555 -18.92802,-20.65096 -47.76604,-31.5752 -83.37369,-31.5752 -65.98534,0 -124.40679,54.29127 -130.2355,120.97311 -2.78604,32.0151 6.92846,61.92846 27.37169,84.22907 19.99112,21.82403 48.03489,33.8969 79.01134,33.8969 23.21705,0 37.4039,-2.50499 60.46212,-10.72873 a 17.110198,17.110198 0 0 1 11.48633,32.23507 c -26.66296,9.49455 -44.82115,12.70828 -71.94845,12.70828 -40.66652,0 -77.67941,-15.95868 -104.2324,-44.93113 -26.94401,-29.46123 -39.872251,-68.63696 -36.23083,-110.32992 3.55587,-40.72761 22.54499,-78.97467 53.48478,-107.67829 30.93979,-28.70363 70.34769,-44.58898 110.83092,-44.58898 45.45657,0 83.00711,14.76116 108.59475,42.68273 24.54899,26.77295 36.05977,64.4579 32.43058,106.13864 z"
     id="path2"
     style="stroke-width:1.22195;fill:#ffffff;fill-opacity:1" />
  <path
     d="m 256.36619,212.44751 c -18.12152,2.84714 -38.56476,19.3557 -40.73983,44.30793 -1.22195,13.51478 2.4439,25.92979 9.86114,34.05576 a 28.899133,28.899133 0 0 0 21.88514,9.47013 c 24.81782,0 42.43834,-18.25596 44.90669,-46.50745 a 17.107309,17.107309 0 0 1 0.41546,-2.52943 l 3.91024,-31.09866 a 60.620972,60.620972 0 0 0 -40.23884,-7.69828 z"
     id="path4"
     style="stroke-width:1.22195;fill:#ffffff;fill-opacity:1" />
</svg>
