<?xml version="1.0" encoding="UTF-8" standalone="no"?>
<svg
   width="512"
   height="512"
   viewBox="0 0 512 512"
   version="1.1"
   id="svg4"
   sodipodi:docname="ellipse.svg"
   inkscape:version="1.1.2 (0a00cf5339, 2022-02-04)"
   xmlns:inkscape="http://www.inkscape.org/namespaces/inkscape"
   xmlns:sodipodi="http://sodipodi.sourceforge.net/DTD/sodipodi-0.dtd"
   xmlns="http://www.w3.org/2000/svg"
   xmlns:svg="http://www.w3.org/2000/svg">
  <defs
     id="defs8" />
  <sodipodi:namedview
     id="namedview6"
     pagecolor="#ffffff"
     bordercolor="#666666"
     borderopacity="1.0"
     inkscape:pageshadow="2"
     inkscape:pageopacity="0.0"
     inkscape:pagecheckerboard="0"
     showgrid="false"
     inkscape:zoom="1.4199219"
     inkscape:cx="255.64787"
     inkscape:cy="256"
     inkscape:window-width="1920"
     inkscape:window-height="977"
     inkscape:window-x="865"
     inkscape:window-y="1111"
     inkscape:window-maximized="1"
     inkscape:current-layer="svg4" />
  <path
     id="path2"
     style="stroke-width:1.22148;fill:#ffffff;fill-opacity:1"
     d="M 256 1.9335938 C 115.90885 1.9335937 1.9335938 115.90884 1.9335938 256 C 1.9335938 396.09115 115.90885 510.06641 256 510.06641 C 396.09116 510.06641 510.06641 396.09115 510.06641 256 C 510.06641 115.90884 396.09116 1.9335938 256 1.9335938 z M 135.20898 134.9707 A 20.428691 20.428691 0 0 1 147.87305 140.875 L 256 249.00195 L 364.12695 140.875 A 20.428691 20.428691 0 0 1 393.01758 140.875 A 20.428691 20.428691 0 0 1 393.01758 169.76562 L 270.44531 292.33789 A 20.430734 20.430734 0 0 1 241.55469 292.33789 L 118.98242 169.76562 A 20.428691 20.428691 0 0 1 118.98242 140.875 A 20.428691 20.428691 0 0 1 128.14062 135.58789 A 20.428691 20.428691 0 0 1 135.20898 134.9707 z M 135.20898 245.47656 A 20.428691 20.428691 0 0 1 147.87305 251.38086 L 256 359.50781 L 364.12695 251.38086 A 20.428691 20.428691 0 0 1 393.01758 251.38086 A 20.428691 20.428691 0 0 1 393.01758 280.27148 L 270.44531 402.84375 A 20.430734 20.430734 0 0 1 241.55469 402.84375 L 118.98242 280.27148 A 20.428691 20.428691 0 0 1 118.98242 251.38086 A 20.428691 20.428691 0 0 1 128.14062 246.09375 A 20.428691 20.428691 0 0 1 135.20898 245.47656 z " />
</svg>
