<?xml version="1.0" encoding="UTF-8" standalone="no"?>
<!-- Generator: Adobe Illustrator 19.0.0, SVG Export Plug-In . SVG Version: 6.00 Build 0)  -->

<svg
   version="1.1"
   id="Capa_1"
   x="0px"
   y="0px"
   viewBox="0 0 60 60"
   style="enable-background:new 0 0 60 60;"
   xml:space="preserve"
   sodipodi:docname="calendar.svg"
   inkscape:version="1.1.2 (0a00cf5339, 2022-02-04)"
   xmlns:inkscape="http://www.inkscape.org/namespaces/inkscape"
   xmlns:sodipodi="http://sodipodi.sourceforge.net/DTD/sodipodi-0.dtd"
   xmlns="http://www.w3.org/2000/svg"
   xmlns:svg="http://www.w3.org/2000/svg"><defs
   id="defs6016" /><sodipodi:namedview
   id="namedview6014"
   pagecolor="#ffffff"
   bordercolor="#666666"
   borderopacity="1.0"
   inkscape:pageshadow="2"
   inkscape:pageopacity="0.0"
   inkscape:pagecheckerboard="0"
   showgrid="false"
   inkscape:zoom="12.116667"
   inkscape:cx="13.576341"
   inkscape:cy="30"
   inkscape:window-width="1920"
   inkscape:window-height="985"
   inkscape:window-x="506"
   inkscape:window-y="1109"
   inkscape:window-maximized="1"
   inkscape:current-layer="Capa_1" />
<g
   id="g5981"
   style="fill:#ffffff;fill-opacity:1">
	<path
   d="M57,4h-7V1c0-0.553-0.447-1-1-1h-7c-0.553,0-1,0.447-1,1v3H19V1c0-0.553-0.447-1-1-1h-7c-0.553,0-1,0.447-1,1v3H3   C2.447,4,2,4.447,2,5v11v43c0,0.553,0.447,1,1,1h54c0.553,0,1-0.447,1-1V16V5C58,4.447,57.553,4,57,4z M43,2h5v3v3h-5V5V2z M12,2h5   v3v3h-5V5V2z M4,6h6v3c0,0.553,0.447,1,1,1h7c0.553,0,1-0.447,1-1V6h22v3c0,0.553,0.447,1,1,1h7c0.553,0,1-0.447,1-1V6h6v9H4V6z    M4,58V17h52v41H4z"
   id="path5977"
   style="fill:#ffffff;fill-opacity:1" />
	<path
   d="M38,23h-7h-2h-7h-2h-9v9v2v7v2v9h9h2h7h2h7h2h9v-9v-2v-7v-2v-9h-9H38z M31,25h7v7h-7V25z M38,41h-7v-7h7V41z M22,34h7v7h-7   V34z M22,25h7v7h-7V25z M13,25h7v7h-7V25z M13,34h7v7h-7V34z M20,50h-7v-7h7V50z M29,50h-7v-7h7V50z M38,50h-7v-7h7V50z M47,50h-7   v-7h7V50z M47,41h-7v-7h7V41z M47,25v7h-7v-7H47z"
   id="path5979"
   style="fill:#ffffff;fill-opacity:1" />
</g>
<g
   id="g5983"
   style="fill:#ffffff;fill-opacity:1">
</g>
<g
   id="g5985"
   style="fill:#ffffff;fill-opacity:1">
</g>
<g
   id="g5987"
   style="fill:#ffffff;fill-opacity:1">
</g>
<g
   id="g5989"
   style="fill:#ffffff;fill-opacity:1">
</g>
<g
   id="g5991"
   style="fill:#ffffff;fill-opacity:1">
</g>
<g
   id="g5993"
   style="fill:#ffffff;fill-opacity:1">
</g>
<g
   id="g5995"
   style="fill:#ffffff;fill-opacity:1">
</g>
<g
   id="g5997"
   style="fill:#ffffff;fill-opacity:1">
</g>
<g
   id="g5999"
   style="fill:#ffffff;fill-opacity:1">
</g>
<g
   id="g6001"
   style="fill:#ffffff;fill-opacity:1">
</g>
<g
   id="g6003"
   style="fill:#ffffff;fill-opacity:1">
</g>
<g
   id="g6005"
   style="fill:#ffffff;fill-opacity:1">
</g>
<g
   id="g6007"
   style="fill:#ffffff;fill-opacity:1">
</g>
<g
   id="g6009"
   style="fill:#ffffff;fill-opacity:1">
</g>
<g
   id="g6011"
   style="fill:#ffffff;fill-opacity:1">
</g>
</svg>
