<?xml version="1.0" encoding="UTF-8" standalone="no"?>
<svg
   viewBox="0 0 512 512"
   version="1.1"
   id="svg6"
   sodipodi:docname="calendar.svg"
   inkscape:version="1.1.2 (0a00cf5339, 2022-02-04)"
   xmlns:inkscape="http://www.inkscape.org/namespaces/inkscape"
   xmlns:sodipodi="http://sodipodi.sourceforge.net/DTD/sodipodi-0.dtd"
   xmlns="http://www.w3.org/2000/svg"
   xmlns:svg="http://www.w3.org/2000/svg">
  <defs
     id="defs10" />
  <sodipodi:namedview
     id="namedview8"
     pagecolor="#ffffff"
     bordercolor="#666666"
     borderopacity="1.0"
     inkscape:pageshadow="2"
     inkscape:pageopacity="0.0"
     inkscape:pagecheckerboard="0"
     showgrid="false"
     inkscape:zoom="1.4199219"
     inkscape:cx="235.22421"
     inkscape:cy="256"
     inkscape:window-width="1920"
     inkscape:window-height="977"
     inkscape:window-x="0"
     inkscape:window-y="31"
     inkscape:window-maximized="1"
     inkscape:current-layer="svg6" />
  <path
     d="M 510.19357,111.42449 A 72.626734,72.626734 0 0 0 437.56684,38.797749 H 419.41015 V 21.151722 c 0,-9.770565 -7.51232,-18.1566835 -17.28289,-18.6446444 A 18.156684,18.156684 0 0 0 383.09678,20.641065 V 38.797749 H 128.90321 V 21.151722 c 0,-9.770565 -7.51232,-18.1566835 -17.28288,-18.6446444 A 18.156684,18.156684 0 0 0 92.589848,20.641065 V 38.797749 H 74.433164 A 72.626734,72.626734 0 0 0 1.80643,111.42449 v 13.6175 a 4.5391709,4.5391709 0 0 0 4.5391709,4.53917 H 505.6544 a 4.5391709,4.5391709 0 0 0 4.53917,-4.53917 z"
     id="path2"
     style="stroke-width:1.13479;fill:#ffffff;fill-opacity:1" />
  <path
     d="m 1.80643,438.24479 a 72.626734,72.626734 0 0 0 72.626734,72.62673 H 437.56684 a 72.626734,72.626734 0 0 0 72.62673,-72.62673 V 169.29891 a 3.4043782,3.4043782 0 0 0 -3.40438,-3.40438 H 5.2108081 A 3.4043782,3.4043782 0 0 0 1.80643,169.29891 Z M 392.17512,202.2079 a 27.235025,27.235025 0 1 1 -27.23502,27.23502 27.235025,27.235025 0 0 1 27.23502,-27.23502 z m 0,90.78341 a 27.235025,27.235025 0 1 1 -27.23502,27.23503 27.235025,27.235025 0 0 1 27.23502,-27.23503 z M 301.39171,202.2079 a 27.235025,27.235025 0 1 1 -27.23502,27.23502 27.235025,27.235025 0 0 1 27.23502,-27.23502 z m 0,90.78341 a 27.235025,27.235025 0 1 1 -27.23502,27.23503 27.235025,27.235025 0 0 1 27.23502,-27.23503 z m 0,90.78342 a 27.235025,27.235025 0 1 1 -27.23502,27.23503 27.235025,27.235025 0 0 1 27.23502,-27.23503 z M 210.6083,292.99131 a 27.235025,27.235025 0 1 1 -27.23503,27.23503 27.235025,27.235025 0 0 1 27.23503,-27.23503 z m 0,90.78342 a 27.235025,27.235025 0 1 1 -27.23503,27.23503 27.235025,27.235025 0 0 1 27.23503,-27.23503 z m -90.78342,-90.78342 a 27.235025,27.235025 0 1 1 -27.235032,27.23503 27.235025,27.235025 0 0 1 27.235032,-27.23503 z m 0,90.78342 a 27.235025,27.235025 0 1 1 -27.235032,27.23503 27.235025,27.235025 0 0 1 27.235032,-27.23503 z"
     id="path4"
     style="stroke-width:1.13479;fill:#ffffff;fill-opacity:1" />
</svg>
