<?xml version="1.0" encoding="UTF-8" standalone="no"?>
<svg
   width="512"
   height="512"
   viewBox="0 0 512 512"
   version="1.1"
   id="svg4"
   sodipodi:docname="chatbubble.svg"
   inkscape:version="1.1.2 (0a00cf5339, 2022-02-04)"
   xmlns:inkscape="http://www.inkscape.org/namespaces/inkscape"
   xmlns:sodipodi="http://sodipodi.sourceforge.net/DTD/sodipodi-0.dtd"
   xmlns="http://www.w3.org/2000/svg"
   xmlns:svg="http://www.w3.org/2000/svg">
  <defs
     id="defs8" />
  <sodipodi:namedview
     id="namedview6"
     pagecolor="#ffffff"
     bordercolor="#666666"
     borderopacity="1.0"
     inkscape:pageshadow="2"
     inkscape:pageopacity="0.0"
     inkscape:pagecheckerboard="0"
     showgrid="false"
     inkscape:zoom="1.4199219"
     inkscape:cx="256"
     inkscape:cy="256"
     inkscape:window-width="1920"
     inkscape:window-height="977"
     inkscape:window-x="0"
     inkscape:window-y="31"
     inkscape:window-maximized="1"
     inkscape:current-layer="svg4" />
  <path
     d="m 53.177319,509.57864 a 29.082299,29.082299 0 0 1 -28.946454,-29.13889 32.976542,32.976542 0 0 1 1.358457,-8.63753 L 46.441636,396.3739 c 0.871676,-2.78484 -0.113205,-5.59231 -1.392418,-7.81113 l -0.249051,-0.45282 c -0.09057,-0.14717 -0.520742,-0.74715 -0.826394,-1.18864 -0.305653,-0.4415 -0.656588,-0.91696 -0.973561,-1.3811 l -0.215089,-0.30566 A 244.13736,244.13736 0 0 1 2.4276315,250.75864 C 2.223863,185.56403 27.728892,123.96932 74.267362,77.238405 122.42466,28.990543 186.83817,2.4213891 255.8025,2.4213891 A 257.42759,257.42759 0 0 1 416.757,58.842634 c 44.65927,35.942506 75.70001,86.035606 87.40539,141.143666 a 241.69213,241.69213 0 0 1 5.41118,50.94214 c 0,66.71156 -25.62955,129.37038 -72.17934,176.45224 -46.95733,47.54599 -110.01237,73.651 -177.539,73.651 -23.773,0 -54.19112,-6.06777 -68.79453,-10.18843 -17.56938,-4.91308 -34.2218,-11.32046 -36.05571,-11.99969 a 17.116557,17.116557 0 0 0 -6.07909,-1.13205 16.6977,16.6977 0 0 0 -6.56588,1.30185 l -0.96224,0.37357 -76.390566,27.59933 a 33.327477,33.327477 0 0 1 -11.829895,2.59238 z M 50.913223,473.57953 Z M 65.233624,396.3739 Z"
     id="path2"
     style="stroke-width:1.13205;fill:#ffffff;fill-opacity:1" />
</svg>
