<?xml version="1.0" encoding="UTF-8" standalone="no"?>
<svg
   width="512"
   height="512"
   viewBox="0 0 512 512"
   version="1.1"
   id="svg4"
   sodipodi:docname="close.svg"
   inkscape:version="1.1.2 (0a00cf5339, 2022-02-04)"
   xmlns:inkscape="http://www.inkscape.org/namespaces/inkscape"
   xmlns:sodipodi="http://sodipodi.sourceforge.net/DTD/sodipodi-0.dtd"
   xmlns="http://www.w3.org/2000/svg"
   xmlns:svg="http://www.w3.org/2000/svg">
  <defs
     id="defs8" />
  <sodipodi:namedview
     id="namedview6"
     pagecolor="#ffffff"
     bordercolor="#666666"
     borderopacity="1.0"
     inkscape:pageshadow="2"
     inkscape:pageopacity="0.0"
     inkscape:pagecheckerboard="0"
     showgrid="false"
     inkscape:zoom="1.4199219"
     inkscape:cx="248.60522"
     inkscape:cy="256"
     inkscape:window-width="1920"
     inkscape:window-height="977"
     inkscape:window-x="598"
     inkscape:window-y="1111"
     inkscape:window-maximized="1"
     inkscape:current-layer="svg4" />
  <path
     d="M 256,1.5371819 C 115.69067,1.5371819 1.5371808,115.69067 1.5371808,256 1.5371808,396.30933 115.69067,510.46282 256,510.46282 396.30933,510.46282 510.46282,396.30933 510.46282,256 510.46282,115.69067 396.30933,1.5371819 256,1.5371819 Z M 348.13267,320.45984 a 19.574063,19.574063 0 1 1 -27.67283,27.67283 L 256,283.68506 191.54016,348.13267 A 19.574063,19.574063 0 0 1 163.86733,320.45984 L 228.31494,256 163.86733,191.54016 a 19.574063,19.574063 0 0 1 27.67283,-27.67283 L 256,228.31494 320.45984,163.86733 a 19.574063,19.574063 0 0 1 27.67283,27.67283 L 283.68506,256 Z"
     id="path2"
     style="fill:#ffffff;fill-opacity:1;stroke-width:1.22338" />
</svg>
