<?xml version="1.0" encoding="UTF-8" standalone="no"?>
<svg
   width="512"
   height="512"
   viewBox="0 0 512 512"
   version="1.1"
   id="svg6"
   sodipodi:docname="cog.svg"
   inkscape:version="1.1.2 (0a00cf5339, 2022-02-04)"
   xmlns:inkscape="http://www.inkscape.org/namespaces/inkscape"
   xmlns:sodipodi="http://sodipodi.sourceforge.net/DTD/sodipodi-0.dtd"
   xmlns="http://www.w3.org/2000/svg"
   xmlns:svg="http://www.w3.org/2000/svg">
  <defs
     id="defs10" />
  <sodipodi:namedview
     id="namedview8"
     pagecolor="#ffffff"
     bordercolor="#666666"
     borderopacity="1.0"
     inkscape:pageshadow="2"
     inkscape:pageopacity="0.0"
     inkscape:pagecheckerboard="0"
     showgrid="false"
     inkscape:zoom="1.4199219"
     inkscape:cx="256.35213"
     inkscape:cy="256"
     inkscape:window-width="1920"
     inkscape:window-height="977"
     inkscape:window-x="598"
     inkscape:window-y="1111"
     inkscape:window-maximized="1"
     inkscape:current-layer="svg6" />
  <circle
     cx="256"
     cy="256"
     r="53.041306"
     id="circle2"
     style="fill:#ffffff;fill-opacity:1;stroke-width:1.10503" />
  <path
     d="m 492.90669,304.6212 -0.51937,-0.41992 -34.87466,-27.34942 a 17.801987,17.801987 0 0 1 -6.74065,-14.73001 v -12.77412 a 17.680435,17.680435 0 0 1 6.75171,-14.60845 l 34.8636,-27.36048 0.51937,-0.4199 a 29.482125,29.482125 0 0 0 6.51966,-37.63723 L 452.23064,87.660166 a 1.7569932,1.7569932 0 0 1 -0.14366,-0.243115 29.68103,29.68103 0 0 0 -35.85813,-12.486803 l -0.38676,0.143653 -40.9965,16.498058 A 17.614133,17.614133 0 0 1 358.85584,90.146474 Q 353.41911,86.72089 347.80557,83.671013 A 17.614133,17.614133 0 0 1 338.7554,70.609592 l -6.1771,-43.748026 -0.13261,-0.795619 A 30.07884,30.07884 0 0 0 303.25087,1.8437509 H 208.74895 A 29.747331,29.747331 0 0 0 179.52098,26.585309 l -0.0994,0.618815 -6.155,43.836429 a 17.680435,17.680435 0 0 1 -8.98387,13.061424 c -3.77919,2.033251 -7.46998,4.188048 -11.05028,6.431252 a 17.592032,17.592032 0 0 1 -15.94554,1.403392 L 96.257188,75.361209 95.870428,75.206505 A 29.69208,29.69208 0 0 0 59.979146,87.737515 L 59.835492,87.980619 12.57348,169.69738 a 29.515276,29.515276 0 0 0 6.51966,37.68142 l 0.519363,0.41992 34.874658,27.34942 a 17.801987,17.801987 0 0 1 6.740665,14.73001 v 12.77412 a 17.680435,17.680435 0 0 1 -6.751715,14.60845 l -34.863608,27.36048 -0.519363,0.41991 a 29.482125,29.482125 0 0 0 -6.51966,37.63722 l 47.195711,81.66152 a 1.7569932,1.7569932 0 0 1 0.143653,0.2431 29.68103,29.68103 0 0 0 35.858132,12.48681 l 0.386759,-0.14365 40.963355,-16.49807 a 17.614133,17.614133 0 0 1 15.98975,1.42549 q 5.43673,3.43664 11.05026,6.47546 a 17.614133,17.614133 0 0 1 9.05017,13.06142 l 6.14395,43.74803 0.13261,0.79561 a 30.07884,30.07884 0 0 0 29.26112,24.2222 h 94.50192 a 29.747331,29.747331 0 0 0 29.22798,-24.74156 l 0.0994,-0.61881 6.155,-43.83644 a 17.680435,17.680435 0 0 1 9.03912,-13.06142 c 3.77919,-2.03324 7.46999,-4.18804 11.05027,-6.43125 a 17.592032,17.592032 0 0 1 15.94554,-1.40338 l 41.02966,16.52015 0.38676,0.15471 a 29.66998,29.66998 0 0 0 35.89128,-12.53101 2.7957188,2.7957188 0 0 1 0.14365,-0.24311 l 47.19571,-81.65045 a 29.504226,29.504226 0 0 0 -6.5086,-37.69248 z M 344.30263,260.1549 a 88.402174,88.402174 0 1 1 -92.44657,-92.45762 88.63423,88.63423 0 0 1 92.44657,92.45762 z"
     id="path4"
     style="fill:#ffffff;fill-opacity:1;stroke-width:1.10503" />
</svg>
