<?xml version="1.0" encoding="UTF-8" standalone="no"?>
<svg
   width="512"
   height="512"
   viewBox="0 0 512 512"
   version="1.1"
   id="svg8"
   sodipodi:docname="cpu.svg"
   inkscape:version="1.1.2 (0a00cf5339, 2022-02-04)"
   xmlns:inkscape="http://www.inkscape.org/namespaces/inkscape"
   xmlns:sodipodi="http://sodipodi.sourceforge.net/DTD/sodipodi-0.dtd"
   xmlns="http://www.w3.org/2000/svg"
   xmlns:svg="http://www.w3.org/2000/svg">
  <defs
     id="defs12" />
  <sodipodi:namedview
     id="namedview10"
     pagecolor="#ffffff"
     bordercolor="#666666"
     borderopacity="1.0"
     inkscape:pageshadow="2"
     inkscape:pageopacity="0.0"
     inkscape:pagecheckerboard="0"
     showgrid="false"
     inkscape:zoom="1.4199219"
     inkscape:cx="256.35213"
     inkscape:cy="256"
     inkscape:window-width="1920"
     inkscape:window-height="977"
     inkscape:window-x="598"
     inkscape:window-y="1111"
     inkscape:window-maximized="1"
     inkscape:current-layer="svg8" />
  <path
     d="M 364.58577,111.21897 H 147.41421 a 36.195259,36.195259 0 0 0 -36.19525,36.19526 v 217.17155 a 36.195259,36.195259 0 0 0 36.19525,36.19525 h 217.17156 a 36.195259,36.195259 0 0 0 36.19526,-36.19525 V 147.41423 a 36.195259,36.195259 0 0 0 -36.19526,-36.19526 z m 0,244.318 a 9.0488147,9.0488147 0 0 1 -9.04882,9.04881 H 156.46302 a 9.0488147,9.0488147 0 0 1 -9.04881,-9.04881 V 156.46304 a 9.0488147,9.0488147 0 0 1 9.04881,-9.04882 h 199.07393 a 9.0488147,9.0488147 0 0 1 9.04882,9.04882 z"
     style="fill:none;stroke-width:1.1311"
     id="path2" />
  <rect
     x="147.41423"
     y="147.41423"
     width="217.17154"
     height="217.17154"
     rx="9.0488148"
     ry="9.0488148"
     id="rect4"
     style="fill:#ffffff;fill-opacity:1;stroke-width:1.1311" />
  <path
     d="m 491.26918,183.60948 a 18.097631,18.097631 0 0 0 0,-36.19526 H 473.17155 V 111.21896 A 72.469694,72.469694 0 0 0 400.78104,38.828448 h -36.19526 v -18.09763 a 18.097631,18.097631 0 0 0 -36.19526,0 v 18.09763 h -54.29288 v -18.09763 a 18.097631,18.097631 0 0 0 -36.19526,0 v 18.09763 h -54.29289 v -18.09763 a 18.097635,18.097635 0 0 0 -36.19527,0 v 18.09763 H 111.21897 A 72.469694,72.469694 0 0 0 38.82845,111.21896 v 36.19526 H 20.730822 a 18.097631,18.097631 0 0 0 0,36.19526 H 38.82845 v 54.29288 H 20.730822 a 18.097631,18.097631 0 0 0 0,36.19526 H 38.82845 v 54.29289 H 20.730822 a 18.097635,18.097635 0 0 0 0,36.19527 H 38.82845 v 36.19525 a 72.469694,72.469694 0 0 0 72.39052,72.39052 h 36.19525 v 18.09763 a 18.097635,18.097635 0 0 0 36.19527,0 v -18.09763 h 54.29289 v 18.09763 a 18.097631,18.097631 0 0 0 36.19526,0 v -18.09763 h 54.29288 v 18.09763 a 18.097631,18.097631 0 0 0 36.19526,0 v -18.09763 h 36.19526 a 72.469694,72.469694 0 0 0 72.39051,-72.39052 v -36.19525 h 18.09763 a 18.097635,18.097635 0 0 0 0,-36.19527 h -18.09763 v -54.29289 h 18.09763 a 18.097631,18.097631 0 0 0 0,-36.19526 h -18.09763 v -54.29288 z m -90.48814,180.9763 a 36.195259,36.195259 0 0 1 -36.19526,36.19525 H 147.41422 A 36.195259,36.195259 0 0 1 111.21897,364.58578 V 147.41422 a 36.195259,36.195259 0 0 1 36.19525,-36.19526 h 217.17156 a 36.195259,36.195259 0 0 1 36.19526,36.19526 z"
     id="path6"
     style="fill:#ffffff;fill-opacity:1;stroke-width:1.1311" />
</svg>
