<?xml version="1.0" encoding="UTF-8" standalone="no"?>
<!-- Uploaded to: SVG Repo, www.svgrepo.com, Generator: SVG Repo Mixer Tools -->

<svg
   fill="#000000"
   height="800px"
   width="800px"
   version="1.1"
   id="Capa_1"
   viewBox="0 0 431.908 431.908"
   xml:space="preserve"
   sodipodi:docname="cpu.svg"
   inkscape:version="1.1.2 (0a00cf5339, 2022-02-04)"
   xmlns:inkscape="http://www.inkscape.org/namespaces/inkscape"
   xmlns:sodipodi="http://sodipodi.sourceforge.net/DTD/sodipodi-0.dtd"
   xmlns="http://www.w3.org/2000/svg"
   xmlns:svg="http://www.w3.org/2000/svg"><defs
   id="defs11" /><sodipodi:namedview
   id="namedview9"
   pagecolor="#ffffff"
   bordercolor="#666666"
   borderopacity="1.0"
   inkscape:pageshadow="2"
   inkscape:pageopacity="0.0"
   inkscape:pagecheckerboard="0"
   showgrid="false"
   inkscape:zoom="0.90875"
   inkscape:cx="400"
   inkscape:cy="400"
   inkscape:window-width="1920"
   inkscape:window-height="979"
   inkscape:window-x="598"
   inkscape:window-y="1109"
   inkscape:window-maximized="1"
   inkscape:current-layer="Capa_1" />
<g
   id="g6"
   style="fill:#ffffff;fill-opacity:1">
	<path
   d="M423.908,152.051c4.418,0,8-3.582,8-8s-3.582-8-8-8h-24.006v-31.936h24.006c4.418,0,8-3.582,8-8s-3.582-8-8-8h-24.006   V71.996c0-22.056-17.944-40-40-40h-16.109V8c0-4.418-3.582-8-8-8s-8,3.582-8,8v23.996h-31.937V8c0-4.418-3.582-8-8-8s-8,3.582-8,8   v23.996H247.92V8c0-4.418-3.582-8-8-8s-8,3.582-8,8v23.996h-31.935V8c0-4.418-3.582-8-8-8s-8,3.582-8,8v23.996h-31.936V8   c0-4.418-3.582-8-8-8s-8,3.582-8,8v23.996h-31.936V8c0-4.418-3.582-8-8-8s-8,3.582-8,8v23.996H71.985c-22.056,0-40,17.944-40,40   v16.119H8c-4.418,0-8,3.582-8,8s3.582,8,8,8h23.985v31.936H8c-4.418,0-8,3.582-8,8s3.582,8,8,8h23.985v31.936H8   c-4.418,0-8,3.582-8,8s3.582,8,8,8h23.985v31.935H8c-4.418,0-8,3.582-8,8s3.582,8,8,8h23.985v31.936H8c-4.418,0-8,3.582-8,8   s3.582,8,8,8h23.985v31.936H8c-4.418,0-8,3.582-8,8s3.582,8,8,8h23.985v16.119c0,22.056,17.944,40,40,40h16.128v23.995   c0,4.418,3.582,8,8,8s8-3.582,8-8v-23.995h31.936v23.995c0,4.418,3.582,8,8,8s8-3.582,8-8v-23.995h31.936v23.995   c0,4.418,3.582,8,8,8s8-3.582,8-8v-23.995h31.935v23.995c0,4.418,3.582,8,8,8s8-3.582,8-8v-23.995h31.936v23.995   c0,4.418,3.582,8,8,8s8-3.582,8-8v-23.995h31.937v23.995c0,4.418,3.582,8,8,8s8-3.582,8-8v-23.995h16.109c22.056,0,40-17.944,40-40   v-16.119h24.006c4.418,0,8-3.582,8-8s-3.582-8-8-8h-24.006v-31.936h24.006c4.418,0,8-3.582,8-8s-3.582-8-8-8h-24.006v-31.936   h24.006c4.418,0,8-3.582,8-8s-3.582-8-8-8h-24.006v-31.935h24.006c4.418,0,8-3.582,8-8s-3.582-8-8-8h-24.006v-31.936H423.908z    M383.902,359.912c0,13.233-10.767,24-24,24H71.985c-13.233,0-24-10.767-24-24V71.996c0-13.234,10.767-24,24-24h287.917   c13.233,0,24,10.766,24,24V359.912z"
   id="path2"
   style="fill:#ffffff;fill-opacity:1" />
	<path
   d="M343.777,72.121H88.11c-8.822,0-16,7.177-16,16v255.667c0,8.822,7.178,16,16,16h255.667c8.822,0,16-7.178,16-16V88.121   C359.777,79.298,352.599,72.121,343.777,72.121z M88.11,343.787V88.121h255.667l0.002,255.667H88.11z"
   id="path4"
   style="fill:#ffffff;fill-opacity:1" />
</g>
</svg>
