<?xml version="1.0" encoding="UTF-8" standalone="no"?>
<svg
   width="512"
   height="512"
   viewBox="0 0 512 512"
   version="1.1"
   id="svg4"
   sodipodi:docname="enabled.svg"
   inkscape:version="1.1.2 (0a00cf5339, 2022-02-04)"
   xmlns:inkscape="http://www.inkscape.org/namespaces/inkscape"
   xmlns:sodipodi="http://sodipodi.sourceforge.net/DTD/sodipodi-0.dtd"
   xmlns="http://www.w3.org/2000/svg"
   xmlns:svg="http://www.w3.org/2000/svg">
  <defs
     id="defs8" />
  <sodipodi:namedview
     id="namedview6"
     pagecolor="#ffffff"
     bordercolor="#666666"
     borderopacity="1.0"
     inkscape:pageshadow="2"
     inkscape:pageopacity="0.0"
     inkscape:pagecheckerboard="0"
     showgrid="false"
     inkscape:zoom="1.4199219"
     inkscape:cx="256.35213"
     inkscape:cy="256"
     inkscape:window-width="1920"
     inkscape:window-height="977"
     inkscape:window-x="598"
     inkscape:window-y="1111"
     inkscape:window-maximized="1"
     inkscape:current-layer="svg4" />
  <path
     d="M 256.00001,2.4254197 C 116.18044,2.4254197 2.4254224,116.18044 2.4254224,255.99999 c 0,139.81957 113.7550176,253.57459 253.5745876,253.57459 139.81955,0 253.57457,-113.75502 253.57457,-253.57459 0,-139.81955 -113.75502,-253.5745703 -253.57457,-253.5745703 z M 387.9685,171.01594 224.12031,366.07331 a 19.505737,19.505737 0 0 1 -14.6293,6.9611 h -0.32916 a 19.505737,19.505737 0 0 1 -14.4952,-6.46126 L 124.446,288.5502 a 19.505737,19.505737 0 1 1 28.9904,-26.08893 l 55.21343,61.34555 149.45052,-177.88014 a 19.505737,19.505737 0 0 1 29.86815,25.08926 z"
     id="path2"
     style="fill:#ffffff;fill-opacity:1;stroke-width:1.21911" />
</svg>
