<?xml version="1.0" encoding="UTF-8" standalone="no"?>
<svg
   version="1.1"
   width="256"
   height="256"
   viewBox="0 0 256 256"
   xml:space="preserve"
   id="svg12"
   sodipodi:docname="error.svg"
   inkscape:version="1.1.2 (0a00cf5339, 2022-02-04)"
   xmlns:inkscape="http://www.inkscape.org/namespaces/inkscape"
   xmlns:sodipodi="http://sodipodi.sourceforge.net/DTD/sodipodi-0.dtd"
   xmlns="http://www.w3.org/2000/svg"
   xmlns:svg="http://www.w3.org/2000/svg"><sodipodi:namedview
   id="namedview14"
   pagecolor="#ffffff"
   bordercolor="#666666"
   borderopacity="1.0"
   inkscape:pageshadow="2"
   inkscape:pageopacity="0.0"
   inkscape:pagecheckerboard="0"
   showgrid="false"
   inkscape:zoom="2.8398438"
   inkscape:cx="128"
   inkscape:cy="128"
   inkscape:window-width="1920"
   inkscape:window-height="979"
   inkscape:window-x="856"
   inkscape:window-y="1109"
   inkscape:window-maximized="1"
   inkscape:current-layer="g10" />

<defs
   id="defs2">
</defs>
<g
   style="stroke: none; stroke-width: 0; stroke-dasharray: none; stroke-linecap: butt; stroke-linejoin: miter; stroke-miterlimit: 10; fill: none; fill-rule: nonzero; opacity: 1;"
   transform="translate(1.4065934065934016 1.4065934065934016) scale(2.81 2.81)"
   id="g10">
	<path
   d="M 45 90 C 20.187 90 0 69.813 0 45 C 0 20.187 20.187 0 45 0 c 24.813 0 45 20.187 45 45 C 90 69.813 69.813 90 45 90 z"
   style="stroke:none;stroke-width:1;stroke-dasharray:none;stroke-linecap:butt;stroke-linejoin:miter;stroke-miterlimit:10;fill:#f32f63;fill-rule:nonzero;opacity:1;fill-opacity:1"
   transform=" matrix(1 0 0 1 0 0) "
   stroke-linecap="round"
   id="path4" />
	<path
   d="M 28.902 66.098 c -1.28 0 -2.559 -0.488 -3.536 -1.465 c -1.953 -1.952 -1.953 -5.118 0 -7.07 l 32.196 -32.196 c 1.951 -1.952 5.119 -1.952 7.07 0 c 1.953 1.953 1.953 5.119 0 7.071 L 32.438 64.633 C 31.461 65.609 30.182 66.098 28.902 66.098 z"
   style="stroke: none; stroke-width: 1; stroke-dasharray: none; stroke-linecap: butt; stroke-linejoin: miter; stroke-miterlimit: 10; fill: rgb(255,255,255); fill-rule: nonzero; opacity: 1;"
   transform=" matrix(1 0 0 1 0 0) "
   stroke-linecap="round"
   id="path6" />
	<path
   d="M 61.098 66.098 c -1.279 0 -2.56 -0.488 -3.535 -1.465 L 25.367 32.438 c -1.953 -1.953 -1.953 -5.119 0 -7.071 c 1.953 -1.952 5.118 -1.952 7.071 0 l 32.195 32.196 c 1.953 1.952 1.953 5.118 0 7.07 C 63.657 65.609 62.377 66.098 61.098 66.098 z"
   style="stroke: none; stroke-width: 1; stroke-dasharray: none; stroke-linecap: butt; stroke-linejoin: miter; stroke-miterlimit: 10; fill: rgb(255,255,255); fill-rule: nonzero; opacity: 1;"
   transform=" matrix(1 0 0 1 0 0) "
   stroke-linecap="round"
   id="path8" />
</g>
</svg>
