<?xml version="1.0" encoding="UTF-8" standalone="no"?>
<svg
   width="512"
   height="512"
   viewBox="0 0 512 512"
   version="1.1"
   id="svg6"
   sodipodi:docname="external-link.svg"
   inkscape:version="1.1.2 (0a00cf5339, 2022-02-04)"
   xmlns:inkscape="http://www.inkscape.org/namespaces/inkscape"
   xmlns:sodipodi="http://sodipodi.sourceforge.net/DTD/sodipodi-0.dtd"
   xmlns="http://www.w3.org/2000/svg"
   xmlns:svg="http://www.w3.org/2000/svg">
  <defs
     id="defs10" />
  <sodipodi:namedview
     id="namedview8"
     pagecolor="#ffffff"
     bordercolor="#666666"
     borderopacity="1.0"
     inkscape:pageshadow="2"
     inkscape:pageopacity="0.0"
     inkscape:pagecheckerboard="0"
     showgrid="false"
     inkscape:zoom="1.4199219"
     inkscape:cx="256.35213"
     inkscape:cy="256"
     inkscape:window-width="1920"
     inkscape:window-height="977"
     inkscape:window-x="598"
     inkscape:window-y="1111"
     inkscape:window-maximized="1"
     inkscape:current-layer="svg6" />
  <path
     d="M 217.3199,314.20389 A 19.52379,19.52379 0 0 1 203.51902,280.87922 L 396.24323,88.155005 a 67.967196,67.967196 0 0 0 -32.4949,-8.236592 H 70.891468 A 68.40648,68.40648 0 0 0 2.5582023,148.25167 V 441.10853 A 68.40648,68.40648 0 0 0 70.891468,509.4418 H 363.74833 a 68.40648,68.40648 0 0 0 68.33326,-68.33327 V 148.25167 a 67.967196,67.967196 0 0 0 -8.2366,-32.4949 L 231.12078,308.48098 a 19.426172,19.426172 0 0 1 -13.80088,5.72291 z"
     id="path2"
     style="fill:#ffffff;fill-opacity:1;stroke-width:1.22024" />
  <path
     d="M 490.65296,1.823247 H 353.98643 a 19.523791,19.523791 0 0 0 0,39.047581 h 89.52878 l -47.27198,47.284177 a 68.760349,68.760349 0 0 1 27.60176,27.601765 l 47.28419,-47.271984 v 89.528784 a 19.52379,19.52379 0 0 0 39.04757,0 V 21.347037 A 19.52379,19.52379 0 0 0 490.65296,1.823247 Z"
     id="path4"
     style="fill:#ffffff;fill-opacity:1;stroke-width:1.22024" />
</svg>
