<?xml version="1.0" encoding="UTF-8" standalone="no"?>
<!-- Generator: Adobe Illustrator 19.0.0, SVG Export Plug-In . SVG Version: 6.00 Build 0)  -->

<svg
   version="1.1"
   id="Capa_1"
   x="0px"
   y="0px"
   viewBox="0 0 60 60"
   style="enable-background:new 0 0 60 60;"
   xml:space="preserve"
   sodipodi:docname="file.svg"
   inkscape:version="1.1.2 (0a00cf5339, 2022-02-04)"
   xmlns:inkscape="http://www.inkscape.org/namespaces/inkscape"
   xmlns:sodipodi="http://sodipodi.sourceforge.net/DTD/sodipodi-0.dtd"
   xmlns="http://www.w3.org/2000/svg"
   xmlns:svg="http://www.w3.org/2000/svg"><defs
   id="defs2608" /><sodipodi:namedview
   id="namedview2606"
   pagecolor="#ffffff"
   bordercolor="#666666"
   borderopacity="1.0"
   inkscape:pageshadow="2"
   inkscape:pageopacity="0.0"
   inkscape:pagecheckerboard="0"
   showgrid="false"
   inkscape:zoom="12.116667"
   inkscape:cx="13.576341"
   inkscape:cy="30"
   inkscape:window-width="1920"
   inkscape:window-height="985"
   inkscape:window-x="506"
   inkscape:window-y="1109"
   inkscape:window-maximized="1"
   inkscape:current-layer="Capa_1" />
<g
   id="g2573"
   style="fill:#ffffff;fill-opacity:1">
	<path
   d="M42.5,22h-25c-0.552,0-1,0.447-1,1s0.448,1,1,1h25c0.552,0,1-0.447,1-1S43.052,22,42.5,22z"
   id="path2561"
   style="fill:#ffffff;fill-opacity:1" />
	<path
   d="M17.5,16h10c0.552,0,1-0.447,1-1s-0.448-1-1-1h-10c-0.552,0-1,0.447-1,1S16.948,16,17.5,16z"
   id="path2563"
   style="fill:#ffffff;fill-opacity:1" />
	<path
   d="M42.5,30h-25c-0.552,0-1,0.447-1,1s0.448,1,1,1h25c0.552,0,1-0.447,1-1S43.052,30,42.5,30z"
   id="path2565"
   style="fill:#ffffff;fill-opacity:1" />
	<path
   d="M42.5,38h-25c-0.552,0-1,0.447-1,1s0.448,1,1,1h25c0.552,0,1-0.447,1-1S43.052,38,42.5,38z"
   id="path2567"
   style="fill:#ffffff;fill-opacity:1" />
	<path
   d="M42.5,46h-25c-0.552,0-1,0.447-1,1s0.448,1,1,1h25c0.552,0,1-0.447,1-1S43.052,46,42.5,46z"
   id="path2569"
   style="fill:#ffffff;fill-opacity:1" />
	<path
   d="M38.914,0H6.5v60h47V14.586L38.914,0z M39.5,3.414L50.086,14H39.5V3.414z M8.5,58V2h29v14h14v42H8.5z"
   id="path2571"
   style="fill:#ffffff;fill-opacity:1" />
</g>
<g
   id="g2575"
   style="fill:#ffffff;fill-opacity:1">
</g>
<g
   id="g2577"
   style="fill:#ffffff;fill-opacity:1">
</g>
<g
   id="g2579"
   style="fill:#ffffff;fill-opacity:1">
</g>
<g
   id="g2581"
   style="fill:#ffffff;fill-opacity:1">
</g>
<g
   id="g2583"
   style="fill:#ffffff;fill-opacity:1">
</g>
<g
   id="g2585"
   style="fill:#ffffff;fill-opacity:1">
</g>
<g
   id="g2587"
   style="fill:#ffffff;fill-opacity:1">
</g>
<g
   id="g2589"
   style="fill:#ffffff;fill-opacity:1">
</g>
<g
   id="g2591"
   style="fill:#ffffff;fill-opacity:1">
</g>
<g
   id="g2593"
   style="fill:#ffffff;fill-opacity:1">
</g>
<g
   id="g2595"
   style="fill:#ffffff;fill-opacity:1">
</g>
<g
   id="g2597"
   style="fill:#ffffff;fill-opacity:1">
</g>
<g
   id="g2599"
   style="fill:#ffffff;fill-opacity:1">
</g>
<g
   id="g2601"
   style="fill:#ffffff;fill-opacity:1">
</g>
<g
   id="g2603"
   style="fill:#ffffff;fill-opacity:1">
</g>
</svg>
