<?xml version="1.0" encoding="UTF-8" standalone="no"?>
<svg
   width="512"
   height="512"
   viewBox="0 0 512 512"
   version="1.1"
   id="svg4"
   sodipodi:docname="file.svg"
   inkscape:version="1.1.2 (0a00cf5339, 2022-02-04)"
   xmlns:inkscape="http://www.inkscape.org/namespaces/inkscape"
   xmlns:sodipodi="http://sodipodi.sourceforge.net/DTD/sodipodi-0.dtd"
   xmlns="http://www.w3.org/2000/svg"
   xmlns:svg="http://www.w3.org/2000/svg">
  <defs
     id="defs8" />
  <sodipodi:namedview
     id="namedview6"
     pagecolor="#ffffff"
     bordercolor="#666666"
     borderopacity="1.0"
     inkscape:pageshadow="2"
     inkscape:pageopacity="0.0"
     inkscape:pagecheckerboard="0"
     showgrid="false"
     inkscape:zoom="1.4199219"
     inkscape:cx="256.35213"
     inkscape:cy="256"
     inkscape:window-width="1920"
     inkscape:window-height="977"
     inkscape:window-x="598"
     inkscape:window-y="1111"
     inkscape:window-maximized="1"
     inkscape:current-layer="svg4" />
  <path
     d="M 382.7339,2.5321939 H 129.2661 A 72.498581,72.498581 0 0 0 56.846727,74.95157 v 362.09686 a 72.498581,72.498581 0 0 0 72.419373,72.41938 h 253.4678 a 72.498581,72.498581 0 0 0 72.41937,-72.41938 V 74.95157 A 72.498581,72.498581 0 0 0 382.7339,2.5321939 Z M 256,310.31453 h -90.52422 a 18.104844,18.104844 0 0 1 0,-36.20968 H 256 a 18.104844,18.104844 0 0 1 0,36.20968 z m 90.52421,-90.52421 H 165.47578 a 18.104845,18.104845 0 0 1 0,-36.20969 h 181.04843 a 18.104845,18.104845 0 0 1 0,36.20969 z m 0,-90.52422 H 165.47578 a 18.104847,18.104847 0 0 1 0,-36.209694 h 181.04843 a 18.104847,18.104847 0 0 1 0,36.209694 z"
     id="path2"
     style="fill:#ffffff;fill-opacity:1;stroke-width:1.13156" />
</svg>
