<?xml version="1.0" encoding="UTF-8" standalone="no"?>
<svg
   width="512"
   height="512"
   viewBox="0 0 512 512"
   version="1.1"
   id="svg6"
   sodipodi:docname="folder.svg"
   inkscape:version="1.1.2 (0a00cf5339, 2022-02-04)"
   xmlns:inkscape="http://www.inkscape.org/namespaces/inkscape"
   xmlns:sodipodi="http://sodipodi.sourceforge.net/DTD/sodipodi-0.dtd"
   xmlns="http://www.w3.org/2000/svg"
   xmlns:svg="http://www.w3.org/2000/svg">
  <defs
     id="defs10" />
  <sodipodi:namedview
     id="namedview8"
     pagecolor="#ffffff"
     bordercolor="#666666"
     borderopacity="1.0"
     inkscape:pageshadow="2"
     inkscape:pageopacity="0.0"
     inkscape:pagecheckerboard="0"
     showgrid="false"
     inkscape:zoom="1.4199219"
     inkscape:cx="253.53507"
     inkscape:cy="265.15543"
     inkscape:window-width="1920"
     inkscape:window-height="977"
     inkscape:window-x="598"
     inkscape:window-y="1111"
     inkscape:window-maximized="1"
     inkscape:current-layer="svg6" />
  <path
     d="M 417.60608,95.49442 H 251.86416 A 25.399799,25.399799 0 0 1 237.713,91.241629 L 208.15609,71.476779 A 59.294549,59.294549 0 0 0 175.08001,61.472086 H 94.393915 A 59.602876,59.602876 0 0 0 34.854831,121.01117 v 25.51675 H 477.14517 c 0,-32.83155 -26.70753,-51.0335 -59.53909,-51.0335 z"
     id="path2"
     style="fill:#ffffff;fill-opacity:1;stroke-width:1.0632" />
  <path
     d="M 434.34892,456.59492 H 77.646019 A 59.539084,59.539084 0 0 1 18.181359,397.95956 L 1.0213444,222.80832 v -0.29769 A 51.033501,51.033501 0 0 1 51.86347,167.40508 H 460.2378 a 51.033501,51.033501 0 0 1 50.82086,55.10555 v 0.29769 l -17.24508,175.15124 a 59.539084,59.539084 0 0 1 -59.46466,58.63536 z m 59.69857,-235.44518 z"
     id="path4"
     style="fill:#ffffff;fill-opacity:1;stroke-width:1.0632" />
</svg>
