<?xml version="1.0" encoding="UTF-8" standalone="no"?>
<!-- Uploaded to: SVG Repo, www.svgrepo.com, Transformed by: SVG Repo Mixer Tools -->

<svg
   width="256px"
   height="256px"
   viewBox="0 0 48.00 48.00"
   id="Layer_2"
   data-name="Layer 2"
   fill="#000000"
   stroke="#000000"
   stroke-width="1.7759999999999998"
   version="1.1"
   sodipodi:docname="github-svgrepo-com.svg"
   inkscape:version="1.1.2 (0a00cf5339, 2022-02-04)"
   xmlns:inkscape="http://www.inkscape.org/namespaces/inkscape"
   xmlns:sodipodi="http://sodipodi.sourceforge.net/DTD/sodipodi-0.dtd"
   xmlns="http://www.w3.org/2000/svg"
   xmlns:svg="http://www.w3.org/2000/svg">
  <defs
     id="defs14" />
  <sodipodi:namedview
     id="namedview12"
     pagecolor="#ffffff"
     bordercolor="#666666"
     borderopacity="1.0"
     inkscape:pageshadow="2"
     inkscape:pageopacity="0.0"
     inkscape:pagecheckerboard="0"
     showgrid="false"
     inkscape:zoom="2.8398438"
     inkscape:cx="128"
     inkscape:cy="128"
     inkscape:window-width="1920"
     inkscape:window-height="979"
     inkscape:window-x="598"
     inkscape:window-y="1109"
     inkscape:window-maximized="1"
     inkscape:current-layer="SVGRepo_iconCarrier" />
  <g
     id="SVGRepo_bgCarrier"
     stroke-width="0"
     style="fill:#000000;fill-opacity:1" />
  <g
     id="SVGRepo_tracerCarrier"
     stroke-linecap="round"
     stroke-linejoin="round"
     style="fill:#000000;fill-opacity:1" />
  <g
     id="SVGRepo_iconCarrier"
     style="fill:#000000;fill-opacity:1;stroke:#000000;stroke-opacity:0"
     transform="matrix(1.1069709,0,0,1.1069709,-2.5673171,-1.9837315)">
    <defs
       id="defs6">
      <style
         id="style4">.cls-1{fill:none;stroke:#ffffff;stroke-linecap:round;stroke-linejoin:round;fill-rule:evenodd;}</style>
    </defs>
    <path
       class="cls-1"
       d="m 24,2.5 a 21.5,21.5 0 0 0 -6.8,41.9 c 1.08,0.2 1.47,-0.46 1.47,-1 0,-0.54 0,-1.86 0,-3.65 -6,1.3 -7.24,-2.88 -7.24,-2.88 A 5.7,5.7 0 0 0 9,33.68 C 7.05,32.35 9.15,32.37 9.15,32.37 a 4.52,4.52 0 0 1 3.29,2.22 c 1.92,3.29 5,2.34 6.26,1.79 a 4.61,4.61 0 0 1 1.37,-2.88 c -4.78,-0.54 -9.8,-2.38 -9.8,-10.62 a 8.29,8.29 0 0 1 2.22,-5.77 7.68,7.68 0 0 1 0.21,-5.69 c 0,0 1.8,-0.58 5.91,2.2 a 20.46,20.46 0 0 1 10.76,0 c 4.11,-2.78 5.91,-2.2 5.91,-2.2 a 7.74,7.74 0 0 1 0.21,5.69 8.28,8.28 0 0 1 2.21,5.77 c 0,8.26 -5,10.07 -9.81,10.61 a 5.12,5.12 0 0 1 1.46,4 c 0,2.87 0,5.19 0,5.9 0,0.71 0.39,1.24 1.48,1 A 21.5,21.5 0 0 0 24,2.5"
       id="path8"
       style="fill:#ffffff;fill-opacity:1;stroke:#000000;stroke-opacity:0" />
  </g>
</svg>
