<?xml version="1.0" encoding="UTF-8" standalone="no"?>
<!-- Generator: Adobe Illustrator 19.1.0, SVG Export Plug-In . SVG Version: 6.00 Build 0)  -->

<svg
   version="1.1"
   id="Layer_1"
   x="0px"
   y="0px"
   viewBox="0 0 64 64"
   enable-background="new 0 0 64 64"
   xml:space="preserve"
   sodipodi:docname="info.svg"
   inkscape:version="1.1.2 (0a00cf5339, 2022-02-04)"
   xmlns:inkscape="http://www.inkscape.org/namespaces/inkscape"
   xmlns:sodipodi="http://sodipodi.sourceforge.net/DTD/sodipodi-0.dtd"
   xmlns="http://www.w3.org/2000/svg"
   xmlns:svg="http://www.w3.org/2000/svg"><defs
   id="defs42" /><sodipodi:namedview
   id="namedview40"
   pagecolor="#ffffff"
   bordercolor="#666666"
   borderopacity="1.0"
   inkscape:pageshadow="2"
   inkscape:pageopacity="0.0"
   inkscape:pagecheckerboard="0"
   showgrid="false"
   inkscape:zoom="11.359375"
   inkscape:cx="32"
   inkscape:cy="32"
   inkscape:window-width="1920"
   inkscape:window-height="985"
   inkscape:window-x="506"
   inkscape:window-y="1109"
   inkscape:window-maximized="1"
   inkscape:current-layer="Layer_1" />
<g
   id="Info-mark"
   style="fill:#ffffff;fill-opacity:1">
	<path
   d="M38.5351982,47.6064987H34.455101V28.4473c0-0.5527-0.4473-1-1-1h-4.5204945c-0.5523071,0-1,0.4473-1,1s0.4476929,1,1,1   h3.5204945v18.1591988h-5.1216011c-0.5522003,0-1,0.4472008-1,1c0,0.5527,0.4477997,1,1,1h11.2016983c0.5527,0,1-0.4473,1-1   C39.5351982,48.0536995,39.0878983,47.6064987,38.5351982,47.6064987z"
   id="path2"
   style="fill:#ffffff;fill-opacity:1" />
	<circle
   cx="32"
   cy="18"
   r="3"
   id="circle4"
   style="fill:#ffffff;fill-opacity:1" />
	<path
   d="M32,0c-17.6730995,0-32,14.3268995-32,32s14.3268995,32,32,32s32-14.3269005,32-32S49.6730995,0,32,0z M32,62   c-16.542099,0-30-13.457901-30-30c0-16.5419998,13.4578991-30,30-30s30,13.4580002,30,30C62,48.542099,48.542099,62,32,62z"
   id="path6"
   style="fill:#ffffff;fill-opacity:1" />
</g>
<g
   id="g9"
   style="fill:#ffffff;fill-opacity:1">
</g>
<g
   id="g11"
   style="fill:#ffffff;fill-opacity:1">
</g>
<g
   id="g13"
   style="fill:#ffffff;fill-opacity:1">
</g>
<g
   id="g15"
   style="fill:#ffffff;fill-opacity:1">
</g>
<g
   id="g17"
   style="fill:#ffffff;fill-opacity:1">
</g>
<g
   id="g19"
   style="fill:#ffffff;fill-opacity:1">
</g>
<g
   id="g21"
   style="fill:#ffffff;fill-opacity:1">
</g>
<g
   id="g23"
   style="fill:#ffffff;fill-opacity:1">
</g>
<g
   id="g25"
   style="fill:#ffffff;fill-opacity:1">
</g>
<g
   id="g27"
   style="fill:#ffffff;fill-opacity:1">
</g>
<g
   id="g29"
   style="fill:#ffffff;fill-opacity:1">
</g>
<g
   id="g31"
   style="fill:#ffffff;fill-opacity:1">
</g>
<g
   id="g33"
   style="fill:#ffffff;fill-opacity:1">
</g>
<g
   id="g35"
   style="fill:#ffffff;fill-opacity:1">
</g>
<g
   id="g37"
   style="fill:#ffffff;fill-opacity:1">
</g>
</svg>
