<?xml version="1.0" encoding="UTF-8" standalone="no"?>
<svg
   width="512"
   height="512"
   viewBox="0 0 512 512"
   version="1.1"
   id="svg4"
   sodipodi:docname="info.svg"
   inkscape:version="1.1.2 (0a00cf5339, 2022-02-04)"
   xmlns:inkscape="http://www.inkscape.org/namespaces/inkscape"
   xmlns:sodipodi="http://sodipodi.sourceforge.net/DTD/sodipodi-0.dtd"
   xmlns="http://www.w3.org/2000/svg"
   xmlns:svg="http://www.w3.org/2000/svg">
  <defs
     id="defs8" />
  <sodipodi:namedview
     id="namedview6"
     pagecolor="#ffffff"
     bordercolor="#666666"
     borderopacity="1.0"
     inkscape:pageshadow="2"
     inkscape:pageopacity="0.0"
     inkscape:pagecheckerboard="0"
     showgrid="false"
     inkscape:zoom="1.4199219"
     inkscape:cx="256.35213"
     inkscape:cy="256"
     inkscape:window-width="1920"
     inkscape:window-height="977"
     inkscape:window-x="598"
     inkscape:window-y="1111"
     inkscape:window-maximized="1"
     inkscape:current-layer="svg4" />
  <path
     d="M 255.51715,2.5576007 C 115.50277,2.5576007 1.5919026,116.46846 1.5919026,256.48285 c 0,140.01438 113.9108674,253.92525 253.9252474,253.92525 140.01439,0 253.92525,-113.91087 253.92525,-253.92525 0,-140.01439 -113.91086,-253.9252493 -253.92525,-253.9252493 z m 0,104.1093493 a 33.010283,33.010283 0 1 1 -33.01028,33.01029 33.010283,33.010283 0 0 1 33.01028,-33.01029 z m 60.94206,286.93554 H 204.7321 a 20.314022,20.314022 0 0 1 0,-40.62804 h 35.54953 V 241.24734 h -20.31402 a 20.314022,20.314022 0 0 1 0,-40.62804 h 40.62804 a 20.31402,20.31402 0 0 1 20.31403,20.31401 v 132.04114 h 35.54953 a 20.314022,20.314022 0 0 1 0,40.62804 z"
     id="path2"
     style="fill:#ffffff;fill-opacity:1;stroke-width:1.26963" />
</svg>
