<?xml version="1.0" encoding="UTF-8" standalone="no"?>
<svg
   width="512"
   height="512"
   viewBox="0 0 512 512"
   version="1.1"
   id="svg4"
   sodipodi:docname="cloud.svg"
   inkscape:version="1.1.2 (0a00cf5339, 2022-02-04)"
   xmlns:inkscape="http://www.inkscape.org/namespaces/inkscape"
   xmlns:sodipodi="http://sodipodi.sourceforge.net/DTD/sodipodi-0.dtd"
   xmlns="http://www.w3.org/2000/svg"
   xmlns:svg="http://www.w3.org/2000/svg">
  <defs
     id="defs8" />
  <sodipodi:namedview
     id="namedview6"
     pagecolor="#ffffff"
     bordercolor="#666666"
     borderopacity="1.0"
     inkscape:pageshadow="2"
     inkscape:pageopacity="0.0"
     inkscape:pagecheckerboard="0"
     showgrid="false"
     inkscape:zoom="1.4199219"
     inkscape:cx="256"
     inkscape:cy="256"
     inkscape:window-width="1920"
     inkscape:window-height="977"
     inkscape:window-x="856"
     inkscape:window-y="1111"
     inkscape:window-maximized="1"
     inkscape:current-layer="svg4" />
  <path
     d="M396,432H136c-36.44,0-70.36-12.57-95.51-35.41C14.38,372.88,0,340,0,304c0-36.58,13.39-68.12,38.72-91.22,18.11-16.53,42.22-28.25,69.18-33.87a16,16,0,0,0,11.37-9.15,156.24,156.24,0,0,1,42.05-56C187.76,91.69,220.5,80,256,80a153.57,153.57,0,0,1,107.14,42.9c24.73,23.81,41.5,55.28,49.18,92a16,16,0,0,0,12.12,12.39C470,237.42,512,270.43,512,328c0,33.39-12.24,60.78-35.41,79.23C456.23,423.43,428.37,432,396,432Z"
     id="path2"
     style="fill:#ffffff;fill-opacity:1" />
</svg>
