<?xml version="1.0" encoding="UTF-8" standalone="no"?>
<!-- Uploaded to: SVG Repo, www.svgrepo.com, Transformed by: SVG Repo Mixer Tools -->

<svg
   fill="#000000"
   version="1.1"
   id="Layer_1"
   width="193px"
   height="193px"
   viewBox="0 0 512.00 512.00"
   enable-background="new 0 0 512 512"
   xml:space="preserve"
   stroke="#000000"
   stroke-width="0.00512"
   sodipodi:docname="key.svg"
   inkscape:version="1.1.2 (0a00cf5339, 2022-02-04)"
   xmlns:inkscape="http://www.inkscape.org/namespaces/inkscape"
   xmlns:sodipodi="http://sodipodi.sourceforge.net/DTD/sodipodi-0.dtd"
   xmlns="http://www.w3.org/2000/svg"
   xmlns:svg="http://www.w3.org/2000/svg"><defs
   id="defs12" /><sodipodi:namedview
   id="namedview10"
   pagecolor="#ffffff"
   bordercolor="#666666"
   borderopacity="1.0"
   inkscape:pageshadow="2"
   inkscape:pageopacity="0.0"
   inkscape:pagecheckerboard="0"
   showgrid="false"
   inkscape:zoom="3.7668394"
   inkscape:cx="96.499999"
   inkscape:cy="87.20839"
   inkscape:window-width="1920"
   inkscape:window-height="979"
   inkscape:window-x="705"
   inkscape:window-y="1109"
   inkscape:window-maximized="1"
   inkscape:current-layer="SVGRepo_iconCarrier" />

<g
   id="SVGRepo_bgCarrier"
   stroke-width="0"
   style="fill:#000000;fill-opacity:1" />

<g
   id="SVGRepo_tracerCarrier"
   stroke-linecap="round"
   stroke-linejoin="round"
   style="fill:#000000;fill-opacity:1" />

<g
   id="SVGRepo_iconCarrier"
   style="fill:#000000;fill-opacity:1"> <path
   d="M 256,0 C 114.609,0 0,114.609 0,256 0,397.391 114.609,512 256,512 397.391,512 512,397.391 512,256 512,114.609 397.391,0 256,0 Z m 0,493.2228 C 124.98163,493.2228 18.777202,387.01837 18.777202,256 18.777202,124.98163 124.98163,18.777202 256,18.777202 387.01837,18.777202 493.2228,124.98163 493.2228,256 493.2228,387.01837 387.01837,493.2228 256,493.2228 Z"
   id="path4"
   style="fill:#ffffff;fill-opacity:1"
   sodipodi:nodetypes="ssssssssss" /> <path
   d="m 252.98264,234.6944 c -9.509,-36.70152 -42.54868,-63.9168 -82.20504,-63.9168 -47.064,0 -85.222382,38.1584 -85.222382,85.2224 0,47.064 38.158382,85.2224 85.222382,85.2224 39.65636,0 72.69736,-27.23524 82.20504,-63.9168 H 362.528 v 42.6112 h 42.6112 v -42.6112 h 21.3056 v -42.6112 z m -82.20504,85.181 c -35.28161,0 -63.8754,-28.61931 -63.8754,-63.8754 0,-35.28161 28.59379,-63.8754 63.8754,-63.8754 35.28161,0 63.8754,28.59379 63.8754,63.8754 0,35.25609 -28.59379,63.8754 -63.8754,63.8754 z"
   id="path6"
   style="fill:#ffffff;fill-opacity:1;stroke-width:0.00681776"
   sodipodi:nodetypes="csssccccccccsssss" /> </g>

</svg>
