<?xml version="1.0" encoding="UTF-8" standalone="no"?>
<svg
   width="512"
   height="512"
   viewBox="0 0 512 512"
   version="1.1"
   id="svg4"
   sodipodi:docname="link.svg"
   inkscape:version="1.1.2 (0a00cf5339, 2022-02-04)"
   xmlns:inkscape="http://www.inkscape.org/namespaces/inkscape"
   xmlns:sodipodi="http://sodipodi.sourceforge.net/DTD/sodipodi-0.dtd"
   xmlns="http://www.w3.org/2000/svg"
   xmlns:svg="http://www.w3.org/2000/svg">
  <defs
     id="defs8" />
  <sodipodi:namedview
     id="namedview6"
     pagecolor="#ffffff"
     bordercolor="#666666"
     borderopacity="1.0"
     inkscape:pageshadow="2"
     inkscape:pageopacity="0.0"
     inkscape:pagecheckerboard="0"
     showgrid="false"
     inkscape:zoom="1.4199219"
     inkscape:cx="256.35213"
     inkscape:cy="256"
     inkscape:window-width="1920"
     inkscape:window-height="977"
     inkscape:window-x="598"
     inkscape:window-y="1111"
     inkscape:window-maximized="1"
     inkscape:current-layer="svg4" />
  <path
     d="M 365.7138,436.84184 A 72.580196,72.580196 0 1 0 303.06802,327.66535 c -32.97863,-2.59701 -41.96043,-22.77204 -54.91146,-85.05492 -4.17335,-20.141 -8.44878,-40.74697 -15.79753,-59.77659 H 375.4781 a 72.580196,72.580196 0 1 0 0,-72.5802 H 138.20891 a 72.580196,72.580196 0 1 0 -0.27218,73.05651 c 20.41319,2.71042 27.59182,18.14504 39.14795,74.00911 6.43015,31.10743 13.08712,63.25818 30.56306,90.47575 21.07094,32.88791 53.05159,50.49994 95.13677,52.57528 a 72.580196,72.580196 0 0 0 62.92929,36.47155 z M 474.5841,146.52106 a 36.290097,36.290097 0 1 1 -36.2901,-36.2901 36.290097,36.290097 0 0 1 36.2901,36.2901 z m -435.48118,0 A 36.290097,36.290097 0 1 1 75.393018,182.81115 36.290097,36.290097 0 0 1 39.10292,146.52106 Z M 329.4237,364.26164 a 36.290097,36.290097 0 1 1 36.2901,36.2901 36.290097,36.290097 0 0 1 -36.2901,-36.2901 z"
     id="path2"
     style="fill:#ffffff;fill-opacity:1;stroke-width:1.13407" />
</svg>
