<?xml version="1.0" encoding="UTF-8" standalone="no"?>
<!-- Generator: Adobe Illustrator 19.0.0, SVG Export Plug-In . SVG Version: 6.00 Build 0)  -->

<svg
   version="1.1"
   id="Capa_1"
   x="0px"
   y="0px"
   viewBox="0 0 44 44"
   style="enable-background:new 0 0 44 44;"
   xml:space="preserve"
   sodipodi:docname="menu.svg"
   inkscape:version="1.1.2 (0a00cf5339, 2022-02-04)"
   xmlns:inkscape="http://www.inkscape.org/namespaces/inkscape"
   xmlns:sodipodi="http://sodipodi.sourceforge.net/DTD/sodipodi-0.dtd"
   xmlns="http://www.w3.org/2000/svg"
   xmlns:svg="http://www.w3.org/2000/svg"><defs
   id="defs3494" /><sodipodi:namedview
   id="namedview3492"
   pagecolor="#ffffff"
   bordercolor="#666666"
   borderopacity="1.0"
   inkscape:pageshadow="2"
   inkscape:pageopacity="0.0"
   inkscape:pagecheckerboard="0"
   showgrid="false"
   inkscape:zoom="16.522727"
   inkscape:cx="9.9559835"
   inkscape:cy="22"
   inkscape:window-width="1920"
   inkscape:window-height="985"
   inkscape:window-x="506"
   inkscape:window-y="1109"
   inkscape:window-maximized="1"
   inkscape:current-layer="Capa_1" />
<g
   id="g3459"
   style="fill:#ffffff;fill-opacity:1">
	<path
   d="M5.941,20h32.117C41.335,20,44,17.309,44,14s-2.665-6-5.941-6H5.941C2.665,8,0,10.691,0,14S2.665,20,5.941,20z M5.941,10   h32.117C40.195,10,42,11.832,42,14s-1.805,4-3.941,4H5.941C3.805,18,2,16.168,2,14S3.805,10,5.941,10z"
   id="path3455"
   style="fill:#ffffff;fill-opacity:1" />
	<path
   d="M38.059,24H5.941C2.665,24,0,26.691,0,30s2.665,6,5.941,6h32.117C41.335,36,44,33.309,44,30S41.335,24,38.059,24z    M38.059,34H5.941C3.805,34,2,32.168,2,30s1.805-4,3.941-4h32.117C40.195,26,42,27.832,42,30S40.195,34,38.059,34z"
   id="path3457"
   style="fill:#ffffff;fill-opacity:1" />
</g>
<g
   id="g3461"
   style="fill:#ffffff;fill-opacity:1">
</g>
<g
   id="g3463"
   style="fill:#ffffff;fill-opacity:1">
</g>
<g
   id="g3465"
   style="fill:#ffffff;fill-opacity:1">
</g>
<g
   id="g3467"
   style="fill:#ffffff;fill-opacity:1">
</g>
<g
   id="g3469"
   style="fill:#ffffff;fill-opacity:1">
</g>
<g
   id="g3471"
   style="fill:#ffffff;fill-opacity:1">
</g>
<g
   id="g3473"
   style="fill:#ffffff;fill-opacity:1">
</g>
<g
   id="g3475"
   style="fill:#ffffff;fill-opacity:1">
</g>
<g
   id="g3477"
   style="fill:#ffffff;fill-opacity:1">
</g>
<g
   id="g3479"
   style="fill:#ffffff;fill-opacity:1">
</g>
<g
   id="g3481"
   style="fill:#ffffff;fill-opacity:1">
</g>
<g
   id="g3483"
   style="fill:#ffffff;fill-opacity:1">
</g>
<g
   id="g3485"
   style="fill:#ffffff;fill-opacity:1">
</g>
<g
   id="g3487"
   style="fill:#ffffff;fill-opacity:1">
</g>
<g
   id="g3489"
   style="fill:#ffffff;fill-opacity:1">
</g>
</svg>
