<?xml version="1.0" encoding="UTF-8" standalone="no"?>
<svg
   width="512"
   height="512"
   viewBox="0 0 512 512"
   version="1.1"
   id="svg8"
   sodipodi:docname="package-installed.svg"
   inkscape:version="1.1.2 (0a00cf5339, 2022-02-04)"
   xmlns:inkscape="http://www.inkscape.org/namespaces/inkscape"
   xmlns:sodipodi="http://sodipodi.sourceforge.net/DTD/sodipodi-0.dtd"
   xmlns="http://www.w3.org/2000/svg"
   xmlns:svg="http://www.w3.org/2000/svg">
  <defs
     id="defs12" />
  <sodipodi:namedview
     id="namedview10"
     pagecolor="#ffffff"
     bordercolor="#666666"
     borderopacity="1.0"
     inkscape:pageshadow="2"
     inkscape:pageopacity="0.0"
     inkscape:pagecheckerboard="0"
     showgrid="false"
     inkscape:zoom="0.2510091"
     inkscape:cx="-679.25824"
     inkscape:cy="-33.863314"
     inkscape:window-width="1920"
     inkscape:window-height="977"
     inkscape:window-x="0"
     inkscape:window-y="31"
     inkscape:window-maximized="1"
     inkscape:current-layer="svg8" />
  <path
     d="m 441.51204,113.4179 a 4.2993165,4.2993165 0 0 0 0,-7.42707 L 277.34265,10.610489 a 68.93954,68.93954 0 0 0 -69.14376,0 L 44.061733,105.99083 a 4.2993165,4.2993165 0 0 0 0,7.42707 L 240.62649,229.048 a 4.2993165,4.2993165 0 0 0 4.36381,0 z"
     id="path2"
     style="fill:#ffffff;fill-opacity:1;stroke-width:1.07482" />
  <path
     d="m 25.66066,142.66399 a 4.2993165,4.2993165 0 0 0 -6.448976,3.75115 v 186.90204 a 51.591797,51.591797 0 0 0 25.623927,44.48718 L 219.1299,482.31 a 4.2993165,4.2993165 0 0 0 6.44898,-3.71891 V 261.74431 a 4.2993165,4.2993165 0 0 0 -2.14967,-3.7189 z"
     id="path4"
     style="fill:#ffffff;fill-opacity:1;stroke-width:1.07482" />
  <path
     d="m 259.97341,262.49669 v 216.04066 a 4.2993165,4.2993165 0 0 0 6.44897,3.7189 L 440.70592,377.75062 A 51.591797,51.591797 0 0 0 466.3406,333.31718 V 146.41514 a 4.2993165,4.2993165 0 0 0 -6.44899,-3.70816 L 262.12307,258.78854 a 4.2993165,4.2993165 0 0 0 -2.14966,3.70815 z"
     id="path6"
     style="fill:#ffffff;fill-opacity:1;stroke-width:1.07482" />
  <g
     style="fill:none;fill-rule:nonzero;stroke:none;stroke-width:0;stroke-linecap:butt;stroke-linejoin:miter;stroke-miterlimit:10;stroke-dasharray:none"
     transform="matrix(2.81,0,0,2.81,258.93887,259.01328)"
     id="g8">
    <circle
       cx="45"
       cy="45"
       r="45"
       style="opacity:1;fill:#15bf7f;fill-rule:nonzero;stroke:none;stroke-width:1;stroke-linecap:butt;stroke-linejoin:miter;stroke-miterlimit:10;stroke-dasharray:none"
       id="circle4" />
    <path
       d="m 38.478,64.5 c -0.01,0 -0.02,0 -0.029,0 -1.3,-0.009 -2.533,-0.579 -3.381,-1.563 L 21.59,47.284 c -1.622,-1.883 -1.41,-4.725 0.474,-6.347 1.884,-1.621 4.725,-1.409 6.347,0.474 L 38.523,53.155 61.629,27.02 c 1.645,-1.862 4.489,-2.037 6.352,-0.391 1.862,1.646 2.037,4.49 0.391,6.352 l -26.521,30 C 40.995,63.947 39.767,64.5 38.478,64.5 Z"
       style="opacity:1;fill:#ffffff;fill-rule:nonzero;stroke:none;stroke-width:1;stroke-linecap:butt;stroke-linejoin:miter;stroke-miterlimit:10;stroke-dasharray:none"
       stroke-linecap="round"
       id="path6-3" />
  </g>
</svg>
