<?xml version="1.0" encoding="UTF-8" standalone="no"?>
<svg
   width="512"
   height="512"
   viewBox="0 0 512 512"
   version="1.1"
   id="svg8"
   sodipodi:docname="package-removed.svg"
   inkscape:version="1.1.2 (0a00cf5339, 2022-02-04)"
   xmlns:inkscape="http://www.inkscape.org/namespaces/inkscape"
   xmlns:sodipodi="http://sodipodi.sourceforge.net/DTD/sodipodi-0.dtd"
   xmlns="http://www.w3.org/2000/svg"
   xmlns:svg="http://www.w3.org/2000/svg">
  <defs
     id="defs12" />
  <sodipodi:namedview
     id="namedview10"
     pagecolor="#ffffff"
     bordercolor="#666666"
     borderopacity="1.0"
     inkscape:pageshadow="2"
     inkscape:pageopacity="0.0"
     inkscape:pagecheckerboard="0"
     showgrid="false"
     inkscape:zoom="0.2510091"
     inkscape:cx="950.16475"
     inkscape:cy="81.670345"
     inkscape:window-width="1920"
     inkscape:window-height="977"
     inkscape:window-x="0"
     inkscape:window-y="31"
     inkscape:window-maximized="1"
     inkscape:current-layer="svg8" />
  <path
     d="m 441.51204,113.4179 a 4.2993165,4.2993165 0 0 0 0,-7.42707 L 277.34265,10.610489 a 68.93954,68.93954 0 0 0 -69.14376,0 L 44.061733,105.99083 a 4.2993165,4.2993165 0 0 0 0,7.42707 L 240.62649,229.048 a 4.2993165,4.2993165 0 0 0 4.36381,0 z"
     id="path2"
     style="fill:#ffffff;fill-opacity:1;stroke-width:1.07482" />
  <path
     d="m 25.66066,142.66399 a 4.2993165,4.2993165 0 0 0 -6.448976,3.75115 v 186.90204 a 51.591797,51.591797 0 0 0 25.623927,44.48718 L 219.1299,482.31 a 4.2993165,4.2993165 0 0 0 6.44898,-3.71891 V 261.74431 a 4.2993165,4.2993165 0 0 0 -2.14967,-3.7189 z"
     id="path4"
     style="fill:#ffffff;fill-opacity:1;stroke-width:1.07482" />
  <path
     d="m 259.97341,262.49669 v 216.04066 a 4.2993165,4.2993165 0 0 0 6.44897,3.7189 L 440.70592,377.75062 A 51.591797,51.591797 0 0 0 466.3406,333.31718 V 146.41514 a 4.2993165,4.2993165 0 0 0 -6.44899,-3.70816 L 262.12307,258.78854 a 4.2993165,4.2993165 0 0 0 -2.14966,3.70815 z"
     id="path6"
     style="fill:#ffffff;fill-opacity:1;stroke-width:1.07482" />
  <path
     d="m 385.44817,511.9158 c -69.72456,0 -126.45003,-56.72549 -126.45003,-126.45002 0,-69.72453 56.72547,-126.45 126.45003,-126.45 69.7245,0 126.45,56.72547 126.45,126.45 0,69.72453 -56.7255,126.45002 -126.45,126.45002 z"
     style="fill:#f32f63;fill-opacity:1;fill-rule:nonzero;stroke:none;stroke-width:2.81;stroke-linecap:butt;stroke-linejoin:miter;stroke-miterlimit:10;stroke-dasharray:none"
     stroke-linecap="round"
     id="path4-6" />
  <path
     d="m 340.21277,444.75116 c -3.59681,0 -7.1908,-1.37128 -9.93617,-4.11665 -5.48793,-5.48512 -5.48793,-14.38158 0,-19.8667 l 90.47077,-90.47076 c 5.4823,-5.48512 14.3844,-5.48512 19.8667,0 5.4879,5.48793 5.4879,14.38439 0,19.86951 l -90.4651,90.46795 c -2.7454,2.74256 -6.3394,4.11665 -9.9362,4.11665 z"
     style="fill:#ffffff;fill-rule:nonzero;stroke:none;stroke-width:2.81;stroke-linecap:butt;stroke-linejoin:miter;stroke-miterlimit:10;stroke-dasharray:none"
     stroke-linecap="round"
     id="path6-7" />
  <path
     d="m 430.68357,444.75116 c -3.594,0 -7.1936,-1.37128 -9.9334,-4.11665 l -90.47076,-90.46795 c -5.48793,-5.48793 -5.48793,-14.38439 0,-19.86951 5.48793,-5.48512 14.38156,-5.48512 19.86956,0 l 90.4679,90.47076 c 5.4879,5.48512 5.4879,14.38158 0,19.8667 -2.7426,2.74256 -6.3394,4.11665 -9.9333,4.11665 z"
     style="fill:#ffffff;fill-rule:nonzero;stroke:none;stroke-width:2.81;stroke-linecap:butt;stroke-linejoin:miter;stroke-miterlimit:10;stroke-dasharray:none"
     stroke-linecap="round"
     id="path8" />
</svg>
