<?xml version="1.0" encoding="UTF-8" standalone="no"?>
<svg
   width="512"
   height="512"
   viewBox="0 0 512 512"
   version="1.1"
   id="svg8"
   sodipodi:docname="package-updated.svg"
   inkscape:version="1.1.2 (0a00cf5339, 2022-02-04)"
   xmlns:inkscape="http://www.inkscape.org/namespaces/inkscape"
   xmlns:sodipodi="http://sodipodi.sourceforge.net/DTD/sodipodi-0.dtd"
   xmlns="http://www.w3.org/2000/svg"
   xmlns:svg="http://www.w3.org/2000/svg">
  <defs
     id="defs12" />
  <sodipodi:namedview
     id="namedview10"
     pagecolor="#ffffff"
     bordercolor="#666666"
     borderopacity="1.0"
     inkscape:pageshadow="2"
     inkscape:pageopacity="0.0"
     inkscape:pagecheckerboard="0"
     showgrid="false"
     inkscape:zoom="1.0040364"
     inkscape:cx="169.81456"
     inkscape:cy="269.41254"
     inkscape:window-width="1920"
     inkscape:window-height="977"
     inkscape:window-x="0"
     inkscape:window-y="31"
     inkscape:window-maximized="1"
     inkscape:current-layer="svg8" />
  <path
     d="m 441.51204,113.4179 a 4.2993165,4.2993165 0 0 0 0,-7.42707 L 277.34265,10.610489 a 68.93954,68.93954 0 0 0 -69.14376,0 L 44.061733,105.99083 a 4.2993165,4.2993165 0 0 0 0,7.42707 L 240.62649,229.048 a 4.2993165,4.2993165 0 0 0 4.36381,0 z"
     id="path2"
     style="fill:#ffffff;fill-opacity:1;stroke-width:1.07482" />
  <path
     d="m 25.66066,142.66399 a 4.2993165,4.2993165 0 0 0 -6.448976,3.75115 v 186.90204 a 51.591797,51.591797 0 0 0 25.623927,44.48718 L 219.1299,482.31 a 4.2993165,4.2993165 0 0 0 6.44898,-3.71891 V 261.74431 a 4.2993165,4.2993165 0 0 0 -2.14967,-3.7189 z"
     id="path4"
     style="fill:#ffffff;fill-opacity:1;stroke-width:1.07482" />
  <path
     d="m 259.97341,262.49669 v 216.04066 a 4.2993165,4.2993165 0 0 0 6.44897,3.7189 L 440.70592,377.75062 A 51.591797,51.591797 0 0 0 466.3406,333.31718 V 146.41514 a 4.2993165,4.2993165 0 0 0 -6.44899,-3.70816 L 262.12307,258.78854 a 4.2993165,4.2993165 0 0 0 -2.14966,3.70815 z"
     id="path6"
     style="fill:#ffffff;fill-opacity:1;stroke-width:1.07482" />
  <path
     d="m 340.21277,444.75116 c -3.59681,0 -7.1908,-1.37128 -9.93617,-4.11665 -5.48793,-5.48512 -5.48793,-14.38158 0,-19.8667 l 90.47077,-90.47076 c 5.4823,-5.48512 14.3844,-5.48512 19.8667,0 5.4879,5.48793 5.4879,14.38439 0,19.86951 l -90.4651,90.46795 c -2.7454,2.74256 -6.3394,4.11665 -9.9362,4.11665 z"
     style="fill:#ffffff;fill-rule:nonzero;stroke:none;stroke-width:2.81;stroke-linecap:butt;stroke-linejoin:miter;stroke-miterlimit:10;stroke-dasharray:none"
     stroke-linecap="round"
     id="path6-7" />
  <path
     d="m 430.68357,444.75116 c -3.594,0 -7.1936,-1.37128 -9.9334,-4.11665 l -90.47076,-90.46795 c -5.48793,-5.48793 -5.48793,-14.38439 0,-19.86951 5.48793,-5.48512 14.38156,-5.48512 19.86956,0 l 90.4679,90.47076 c 5.4879,5.48512 5.4879,14.38158 0,19.8667 -2.7426,2.74256 -6.3394,4.11665 -9.9333,4.11665 z"
     style="fill:#ffffff;fill-rule:nonzero;stroke:none;stroke-width:2.81;stroke-linecap:butt;stroke-linejoin:miter;stroke-miterlimit:10;stroke-dasharray:none"
     stroke-linecap="round"
     id="path8" />
  <rect
     style="fill:#ffffff;fill-opacity:1;stroke-width:0.549695;stroke-linecap:round;paint-order:stroke fill markers"
     id="rect1033"
     width="172.51785"
     height="164.41083"
     x="300.93433"
     y="304.75351"
     ry="13.555118" />
  <path
     d="m 385.44614,258.99371 c -69.7238,0 -126.45,56.7262 -126.45,126.45 0,69.7238 56.7262,126.45 126.45,126.45 69.7238,0 126.45,-56.7262 126.45,-126.45 0,-69.7238 -56.7262,-126.45 -126.45,-126.45 z m 72.95192,110.73494 a 5.2403797,5.2403797 0 0 1 -5.24038,5.24038 h -36.19631 a 5.2343007,5.2343007 0 0 1 -3.70231,-8.94269 l 13.47787,-13.47786 -3.40443,-3.95765 a 53.121161,53.121161 0 1 0 -38.26328,89.97404 53.224507,53.224507 0 0 0 50.10582,-35.41208 9.7358904,9.7358904 0 1 1 18.35956,6.48664 72.587163,72.587163 0 1 1 -68.46538,-96.77072 71.942756,71.942756 0 0 1 52.50107,22.46311 l 0.34044,0.37692 2.62019,3.03966 8.92445,-8.92445 a 5.1309518,5.1309518 0 0 1 3.6476,-1.54415 5.2343007,5.2343007 0 0 1 5.27686,5.24646 z"
     id="path2-5"
     style="fill:#ffb536;fill-opacity:1;stroke-width:0.607935" />
</svg>
