<?xml version="1.0" encoding="UTF-8" standalone="no"?>
<svg
   width="512"
   height="512"
   viewBox="0 0 512 512"
   version="1.1"
   id="svg4"
   sodipodi:docname="pause-circle.svg"
   inkscape:version="1.1.2 (0a00cf5339, 2022-02-04)"
   xmlns:inkscape="http://www.inkscape.org/namespaces/inkscape"
   xmlns:sodipodi="http://sodipodi.sourceforge.net/DTD/sodipodi-0.dtd"
   xmlns="http://www.w3.org/2000/svg"
   xmlns:svg="http://www.w3.org/2000/svg">
  <defs
     id="defs8" />
  <sodipodi:namedview
     id="namedview6"
     pagecolor="#ffffff"
     bordercolor="#666666"
     borderopacity="1.0"
     inkscape:pageshadow="2"
     inkscape:pageopacity="0.0"
     inkscape:pagecheckerboard="0"
     showgrid="false"
     inkscape:zoom="1.4199219"
     inkscape:cx="255.64787"
     inkscape:cy="256"
     inkscape:window-width="1920"
     inkscape:window-height="977"
     inkscape:window-x="865"
     inkscape:window-y="1111"
     inkscape:window-maximized="1"
     inkscape:current-layer="svg4" />
  <path
     d="M 256,1.7929402 C 115.8317,1.7929402 1.7929416,115.8317 1.7929416,256 1.7929416,396.1683 115.8317,510.20706 256,510.20706 396.1683,510.20706 510.20706,396.1683 510.20706,256 510.20706,115.8317 396.1683,1.7929402 256,1.7929402 Z M 216.89123,334.21755 a 19.554391,19.554391 0 0 1 -39.10878,0 v -156.4351 a 19.554391,19.554391 0 0 1 39.10878,0 z m 117.32632,0 a 19.554389,19.554389 0 0 1 -39.10877,0 v -156.4351 a 19.554389,19.554389 0 0 1 39.10877,0 z"
     id="path2"
     style="stroke-width:1.22215;fill:#ffffff;fill-opacity:1" />
</svg>
