<?xml version="1.0" encoding="UTF-8" standalone="no"?>
<svg
   version="1.1"
   width="256"
   height="256"
   viewBox="0 0 256 256"
   xml:space="preserve"
   id="svg10"
   sodipodi:docname="pending.svg"
   inkscape:version="1.1.2 (0a00cf5339, 2022-02-04)"
   xmlns:inkscape="http://www.inkscape.org/namespaces/inkscape"
   xmlns:sodipodi="http://sodipodi.sourceforge.net/DTD/sodipodi-0.dtd"
   xmlns="http://www.w3.org/2000/svg"
   xmlns:svg="http://www.w3.org/2000/svg"><sodipodi:namedview
   id="namedview12"
   pagecolor="#ffffff"
   bordercolor="#666666"
   borderopacity="1.0"
   inkscape:pageshadow="2"
   inkscape:pageopacity="0.0"
   inkscape:pagecheckerboard="0"
   showgrid="false"
   inkscape:zoom="2.8398438"
   inkscape:cx="128"
   inkscape:cy="128"
   inkscape:window-width="1920"
   inkscape:window-height="979"
   inkscape:window-x="0"
   inkscape:window-y="29"
   inkscape:window-maximized="1"
   inkscape:current-layer="svg10" />

<defs
   id="defs2">
</defs>
<rect
   style="fill:#ffffff;fill-opacity:1;stroke:#f9f9f9;stroke-width:2;stroke-linecap:round;stroke-opacity:1;paint-order:stroke fill markers"
   id="rect845"
   width="137.8224"
   height="137.8224"
   x="59.088799"
   y="59.088799"
   ry="35.112499" /><g
   style="stroke:none;stroke-width:0;stroke-dasharray:none;stroke-linecap:butt;stroke-linejoin:miter;stroke-miterlimit:10;fill:#ffb536;fill-rule:nonzero;opacity:1;fill-opacity:1"
   transform="translate(1.4065934065934016 1.4065934065934016) scale(2.81 2.81)"
   id="g8">
	<path
   d="M 45 0 C 20.187 0 0 20.187 0 45 c 0 24.813 20.187 45 45 45 c 24.813 0 45 -20.187 45 -45 C 90 20.187 69.813 0 45 0 z M 59.169 64.214 C 59.222 65.185 58.52 66 57.654 66 H 32.346 c -0.866 0 -1.568 -0.815 -1.515 -1.786 C 31.34 54.796 35.838 47.096 41.756 45 c -5.918 -2.096 -10.416 -9.796 -10.925 -19.214 C 30.778 24.815 31.48 24 32.346 24 h 25.308 c 0.866 0 1.568 0.815 1.515 1.786 C 58.66 35.204 54.162 42.904 48.244 45 C 54.162 47.096 58.66 54.796 59.169 64.214 z"
   style="stroke:none;stroke-width:1;stroke-dasharray:none;stroke-linecap:butt;stroke-linejoin:miter;stroke-miterlimit:10;fill:#ffb536;fill-rule:nonzero;opacity:1;fill-opacity:1"
   transform=" matrix(1 0 0 1 0 0) "
   stroke-linecap="round"
   id="path4" />
	<path
   d="M 46.854 49.5 c 3.382 1.198 5.952 5.598 6.243 10.979 c 0.03 0.555 -0.371 1.021 -0.866 1.021 H 37.769 c -0.495 0 -0.896 -0.466 -0.866 -1.021 c 0.291 -5.382 2.861 -9.781 6.243 -10.979 H 46.854 z"
   style="stroke:none;stroke-width:1;stroke-dasharray:none;stroke-linecap:butt;stroke-linejoin:miter;stroke-miterlimit:10;fill:#ffb536;fill-rule:nonzero;opacity:1;fill-opacity:1"
   transform=" matrix(1 0 0 1 0 0) "
   stroke-linecap="round"
   id="path6" />
</g>
</svg>
