<?xml version="1.0" encoding="UTF-8" standalone="no"?>
<svg
   width="512"
   height="512"
   viewBox="0 0 512 512"
   version="1.1"
   id="svg6"
   sodipodi:docname="pin.svg"
   inkscape:version="1.1.2 (0a00cf5339, 2022-02-04)"
   xmlns:inkscape="http://www.inkscape.org/namespaces/inkscape"
   xmlns:sodipodi="http://sodipodi.sourceforge.net/DTD/sodipodi-0.dtd"
   xmlns="http://www.w3.org/2000/svg"
   xmlns:svg="http://www.w3.org/2000/svg">
  <defs
     id="defs10" />
  <sodipodi:namedview
     id="namedview8"
     pagecolor="#ffffff"
     bordercolor="#666666"
     borderopacity="1.0"
     inkscape:pageshadow="2"
     inkscape:pageopacity="0.0"
     inkscape:pagecheckerboard="0"
     showgrid="false"
     inkscape:zoom="1.4199219"
     inkscape:cx="256.35213"
     inkscape:cy="256"
     inkscape:window-width="1920"
     inkscape:window-height="977"
     inkscape:window-x="598"
     inkscape:window-y="1111"
     inkscape:window-maximized="1"
     inkscape:current-layer="svg6" />
  <circle
     cx="255.95639"
     cy="183.48495"
     r="36.288601"
     id="circle2"
     style="fill:#ffffff;fill-opacity:1;stroke-width:1.13402" />
  <path
     d="m 255.9564,2.0419538 c -100.04314,0 -181.443005,77.8503912 -181.443005,173.5048662 0,45.55354 20.763884,106.13282 61.713305,180.05951 32.88654,59.35454 70.93287,113.02765 90.7215,139.73379 a 36.005096,36.005096 0 0 0 58.08444,0 c 19.75461,-26.70614 57.83496,-80.37925 90.7215,-139.73379 40.88138,-73.904 61.64526,-134.48328 61.64526,-180.05951 0,-95.654475 -81.39986,-173.5048662 -181.443,-173.5048662 z m 0,254.0202062 a 72.577202,72.577202 0 1 1 72.5772,-72.5772 72.656583,72.656583 0 0 1 -72.5772,72.5772 z"
     id="path4"
     style="fill:#ffffff;fill-opacity:1;stroke-width:1.13402" />
</svg>
