<?xml version="1.0" encoding="UTF-8" standalone="no"?>
<svg
   width="512"
   height="512"
   viewBox="0 0 512 512"
   version="1.1"
   id="svg8"
   sodipodi:docname="profile.svg"
   inkscape:version="1.1.2 (0a00cf5339, 2022-02-04)"
   xmlns:inkscape="http://www.inkscape.org/namespaces/inkscape"
   xmlns:sodipodi="http://sodipodi.sourceforge.net/DTD/sodipodi-0.dtd"
   xmlns="http://www.w3.org/2000/svg"
   xmlns:svg="http://www.w3.org/2000/svg">
  <defs
     id="defs12" />
  <sodipodi:namedview
     id="namedview10"
     pagecolor="#ffffff"
     bordercolor="#666666"
     borderopacity="1.0"
     inkscape:pageshadow="2"
     inkscape:pageopacity="0.0"
     inkscape:pagecheckerboard="0"
     showgrid="false"
     inkscape:zoom="1.4199219"
     inkscape:cx="256.35213"
     inkscape:cy="256"
     inkscape:window-width="1920"
     inkscape:window-height="977"
     inkscape:window-x="598"
     inkscape:window-y="1111"
     inkscape:window-maximized="1"
     inkscape:current-layer="svg8" />
  <path
     d="M 385.71011,70.776682 H 126.2899 a 18.530017,18.530017 0 0 1 0,-37.060034 h 259.42021 a 18.530017,18.530017 0 0 1 0,37.060034 z"
     id="path2"
     style="fill:#ffffff;fill-opacity:1;stroke-width:1.15812" />
  <path
     d="M 422.77013,126.36689 H 89.229874 a 18.530045,18.530045 0 0 1 0,-37.060094 H 422.77013 a 18.530045,18.530045 0 0 1 0,37.060094 z"
     id="path4"
     style="fill:#ffffff;fill-opacity:1;stroke-width:1.15812" />
  <path
     d="M 444.92508,478.43716 H 67.074923 A 52.023014,52.023014 0 0 1 15.109814,426.47205 V 196.86201 A 52.023014,52.023014 0 0 1 67.074923,144.8969 H 444.92508 a 52.023014,52.023014 0 0 1 51.96511,51.96511 v 229.61004 a 52.023014,52.023014 0 0 1 -51.96511,51.96511 z"
     id="path6"
     style="fill:#ffffff;fill-opacity:1;stroke-width:1.15812" />
</svg>
