<?xml version="1.0" encoding="UTF-8" standalone="no"?>
<!-- Generator: Adobe Illustrator 19.0.0, SVG Export Plug-In . SVG Version: 6.00 Build 0)  -->

<svg
   version="1.1"
   id="Capa_1"
   x="0px"
   y="0px"
   viewBox="0 0 60 60"
   style="enable-background:new 0 0 60 60;"
   xml:space="preserve"
   sodipodi:docname="right.svg"
   inkscape:version="1.1.2 (0a00cf5339, 2022-02-04)"
   xmlns:inkscape="http://www.inkscape.org/namespaces/inkscape"
   xmlns:sodipodi="http://sodipodi.sourceforge.net/DTD/sodipodi-0.dtd"
   xmlns="http://www.w3.org/2000/svg"
   xmlns:svg="http://www.w3.org/2000/svg"><defs
   id="defs1243" /><sodipodi:namedview
   id="namedview1241"
   pagecolor="#ffffff"
   bordercolor="#666666"
   borderopacity="1.0"
   inkscape:pageshadow="2"
   inkscape:pageopacity="0.0"
   inkscape:pagecheckerboard="0"
   showgrid="false"
   inkscape:zoom="12.116667"
   inkscape:cx="30"
   inkscape:cy="30"
   inkscape:window-width="1920"
   inkscape:window-height="979"
   inkscape:window-x="841"
   inkscape:window-y="1109"
   inkscape:window-maximized="1"
   inkscape:current-layer="Capa_1" />
<g
   id="g1208"
   style="fill:#ffffff;fill-opacity:1">
	<path
   d="M45.563,29.174l-22-15c-0.307-0.208-0.703-0.231-1.031-0.058C22.205,14.289,22,14.629,22,15v30   c0,0.371,0.205,0.711,0.533,0.884C22.679,45.962,22.84,46,23,46c0.197,0,0.394-0.059,0.563-0.174l22-15   C45.836,30.64,46,30.331,46,30S45.836,29.36,45.563,29.174z M24,43.107V16.893L43.225,30L24,43.107z"
   id="path1204"
   style="fill:#ffffff;fill-opacity:1" />
	<path
   d="M30,0C13.458,0,0,13.458,0,30s13.458,30,30,30s30-13.458,30-30S46.542,0,30,0z M30,58C14.561,58,2,45.439,2,30   S14.561,2,30,2s28,12.561,28,28S45.439,58,30,58z"
   id="path1206"
   style="fill:#ffffff;fill-opacity:1" />
</g>
<g
   id="g1210"
   style="fill:#ffffff;fill-opacity:1">
</g>
<g
   id="g1212"
   style="fill:#ffffff;fill-opacity:1">
</g>
<g
   id="g1214"
   style="fill:#ffffff;fill-opacity:1">
</g>
<g
   id="g1216"
   style="fill:#ffffff;fill-opacity:1">
</g>
<g
   id="g1218"
   style="fill:#ffffff;fill-opacity:1">
</g>
<g
   id="g1220"
   style="fill:#ffffff;fill-opacity:1">
</g>
<g
   id="g1222"
   style="fill:#ffffff;fill-opacity:1">
</g>
<g
   id="g1224"
   style="fill:#ffffff;fill-opacity:1">
</g>
<g
   id="g1226"
   style="fill:#ffffff;fill-opacity:1">
</g>
<g
   id="g1228"
   style="fill:#ffffff;fill-opacity:1">
</g>
<g
   id="g1230"
   style="fill:#ffffff;fill-opacity:1">
</g>
<g
   id="g1232"
   style="fill:#ffffff;fill-opacity:1">
</g>
<g
   id="g1234"
   style="fill:#ffffff;fill-opacity:1">
</g>
<g
   id="g1236"
   style="fill:#ffffff;fill-opacity:1">
</g>
<g
   id="g1238"
   style="fill:#ffffff;fill-opacity:1">
</g>
</svg>
