<?xml version="1.0" encoding="UTF-8" standalone="no"?>
<svg
   width="512"
   height="512"
   viewBox="0 0 512 512"
   version="1.1"
   id="svg8"
   sodipodi:docname="rocket.svg"
   inkscape:version="1.1.2 (0a00cf5339, 2022-02-04)"
   xmlns:inkscape="http://www.inkscape.org/namespaces/inkscape"
   xmlns:sodipodi="http://sodipodi.sourceforge.net/DTD/sodipodi-0.dtd"
   xmlns="http://www.w3.org/2000/svg"
   xmlns:svg="http://www.w3.org/2000/svg">
  <defs
     id="defs12" />
  <sodipodi:namedview
     id="namedview10"
     pagecolor="#ffffff"
     bordercolor="#666666"
     borderopacity="1.0"
     inkscape:pageshadow="2"
     inkscape:pageopacity="0.0"
     inkscape:pagecheckerboard="0"
     showgrid="false"
     inkscape:zoom="1.4199219"
     inkscape:cx="256.35213"
     inkscape:cy="256"
     inkscape:window-width="1920"
     inkscape:window-height="977"
     inkscape:window-x="598"
     inkscape:window-y="1111"
     inkscape:window-maximized="1"
     inkscape:current-layer="svg8" />
  <path
     d="m 338.19658,143.93366 a 30.242353,30.242353 0 1 0 21.39286,8.84949 30.140375,30.140375 0 0 0 -21.39286,-8.84949 z"
     id="path2"
     style="fill:#ffffff;fill-opacity:1;stroke-width:1.1331" />
  <path
     d="m 506.56343,22.998245 a 0.32859807,0.32859807 0 0 1 0,-0.10198 A 23.115175,23.115175 0 0 0 489.41967,5.5598844 C 455.65339,-2.6777292 402.53381,6.1037709 343.66943,29.672184 284.34048,53.467217 228.75076,88.593218 191.17727,126.23469 a 363.38414,363.38414 0 0 0 -33.48301,38.33267 C 132.3922,163.43426 110.10419,167.03751 91.328778,175.2298 25.903769,204.02179 7.2190036,277.70707 2.2447086,307.96076 a 28.32742,28.32742 0 0 0 30.8089014,32.8598 h 0.147303 l 72.880787,-7.95433 c 0.0907,0.92913 0.19263,1.77896 0.27194,2.56079 a 38.933206,38.933206 0 0 0 11.21766,23.47777 l 35.56791,35.59057 a 38.831227,38.831227 0 0 0 23.46643,11.22899 l 2.43616,0.26061 -7.93168,72.79014 c 0,0 0,0.0907 0,0.1473 a 28.32742,28.32742 0 0 0 27.88551,31.23948 28.610694,28.610694 0 0 0 4.70235,-0.38525 c 30.42366,-4.89498 104.07494,-23.35313 132.78762,-89.1294 8.1243,-18.65077 11.71622,-40.84813 10.70776,-66.10487 a 356.67621,356.67621 0 0 0 38.46864,-33.483 c 37.87943,-37.6868 73.11874,-92.82329 96.66449,-151.29108 23.44377,-58.19585 32.27059,-111.71202 24.23694,-146.770035 z M 385.25408,221.15421 a 66.592098,66.592098 0 1 1 0,-94.12635 66.059543,66.059543 0 0 1 0,94.12635 z"
     id="path4"
     style="fill:#ffffff;fill-opacity:1;stroke-width:1.1331" />
  <path
     d="m 149.06006,404.14934 a 18.129548,18.129548 0 0 0 -12.46407,3.02537 c -7.24048,4.95164 -14.51497,9.84662 -21.85743,14.61695 -14.854901,9.65399 -32.621862,-7.29714 -23.795033,-22.66193 L 104.71065,375.33469 A 18.129548,18.129548 0 0 0 87.532906,347.10925 69.402178,69.402178 0 0 0 47.160665,366.89313 c -4.147134,4.15846 -16.758501,16.78115 -23.545752,64.88111 a 405.58067,405.58067 0 0 0 -3.648571,41.66398 18.129548,18.129548 0 0 0 18.129549,18.59411 h 0.453239 a 407.76755,407.76755 0 0 0 41.69796,-3.62591 c 48.12262,-6.79858 60.74533,-19.42128 64.89246,-23.56841 a 68.541025,68.541025 0 0 0 19.70455,-40.49688 18.129548,18.129548 0 0 0 -15.78404,-20.19179 z"
     id="path6"
     style="fill:#ffffff;fill-opacity:1;stroke-width:1.1331" />
</svg>
