<?xml version="1.0" encoding="UTF-8" standalone="no"?>
<!-- Generator: Adobe Illustrator 19.0.0, SVG Export Plug-In . SVG Version: 6.00 Build 0)  -->

<svg
   version="1.1"
   id="Layer_1"
   x="0px"
   y="0px"
   viewBox="0 0 488 488"
   style="enable-background:new 0 0 488 488;"
   xml:space="preserve"
   sodipodi:docname="rocket.svg"
   inkscape:version="1.1.2 (0a00cf5339, 2022-02-04)"
   xmlns:inkscape="http://www.inkscape.org/namespaces/inkscape"
   xmlns:sodipodi="http://sodipodi.sourceforge.net/DTD/sodipodi-0.dtd"
   xmlns="http://www.w3.org/2000/svg"
   xmlns:svg="http://www.w3.org/2000/svg"><defs
   id="defs49" /><sodipodi:namedview
   id="namedview47"
   pagecolor="#ffffff"
   bordercolor="#666666"
   borderopacity="1.0"
   inkscape:pageshadow="2"
   inkscape:pageopacity="0.0"
   inkscape:pagecheckerboard="0"
   showgrid="false"
   inkscape:zoom="1.4897541"
   inkscape:cx="244"
   inkscape:cy="244"
   inkscape:window-width="1920"
   inkscape:window-height="985"
   inkscape:window-x="506"
   inkscape:window-y="1109"
   inkscape:window-maximized="1"
   inkscape:current-layer="Layer_1" />
<g
   transform="translate(0 -540.36)"
   id="g14"
   style="fill:#ffffff;fill-opacity:1">
	<g
   id="g12"
   style="fill:#ffffff;fill-opacity:1">
		<g
   id="g10"
   style="fill:#ffffff;fill-opacity:1">
			<path
   d="M124.919,950.361l-60.997,60.999c-3.9,3.9-3.9,10.2,0,14.1c2,1.9,4.5,2.9,7.1,2.9c2.5,0,5.1-1,7-2.9l60.997-60.999     c3.9-3.9,3.9-10.2,0-14.1S128.818,946.461,124.919,950.361z"
   id="path2"
   style="fill:#ffffff;fill-opacity:1" />
			<path
   d="M78.021,889.362c-3.9-3.9-10.199-3.9-14.099,0L2.925,950.361c-3.9,3.9-3.9,10.2,0,14.1c2,1.9,4.5,2.9,7.1,2.9     s5.1-1,7-2.9l60.997-60.999C81.921,899.562,81.921,893.262,78.021,889.362z"
   id="path4"
   style="fill:#ffffff;fill-opacity:1" />
			<path
   d="M485.1,543.266c-1.9-1.9-4.5-3-7.2-2.9c-1.5,0-37.898,0.5-85.796,12.3c-44.498,10.9-107.495,34-155.092,82.099     c-23.899,23.9-41.598,51.499-54.797,78.599H61.122c-4.3,0-8.1,2.8-9.5,6.8l-30.498,91.499c-1,3-0.5,6.4,1.4,9s4.9,4.2,8.1,4.2     h117.094c-4.9,29.7-5.2,49.799-5.2,50.899c0,2.7,1,5.3,2.9,7.2s4.4,2.9,7.1,2.9h0.1c1.1,0,21.199-0.3,50.897-5.2V997.76     c0,3.2,1.5,6.2,4.2,8.1c1.7,1.2,3.8,1.9,5.8,1.9c1.1,0,2.1-0.2,3.2-0.5l91.495-30.5c4.1-1.4,6.8-5.2,6.8-9.5V846.162     c27.099-13.1,54.697-30.8,78.596-54.699c48.098-47.699,71.196-110.699,82.096-155.098C487.5,588.466,488,552.066,488,550.566     C488,547.766,487,545.166,485.1,543.266z M151.617,804.863H44.523l23.799-71.499h104.995c-8.4,20.4-14.299,39.899-18.399,56.799     C153.717,795.163,152.617,800.063,151.617,804.863z M295.01,960.061l-71.496,23.8V876.862c4.8-1,9.6-2.1,14.699-3.3     c16.899-4.1,36.398-10.1,56.797-18.4V960.061z M456.202,632.065c-10.299,41.799-31.998,100.899-76.696,145.198     c-44.698,44.699-103.795,66.399-145.493,76.699c-30.798,7.6-56.997,10.3-70.796,11.3c2.4-34.3,15.799-144.198,87.996-216.397     c44.298-44.699,103.395-66.399,145.193-76.699c30.898-7.6,57.197-10.4,71.096-11.3     C466.501,574.766,463.801,601.065,456.202,632.065z"
   id="path6"
   style="fill:#ffffff;fill-opacity:1" />
			<path
   d="M315.609,662.365c0,27.8,22.599,50.399,50.397,50.399c27.699,0,50.397-22.6,50.397-50.399s-22.599-50.399-50.397-50.399     S315.609,634.565,315.609,662.365z M396.405,662.365c0,16.5-13.899,30.4-30.398,30.4s-30.398-13.9-30.398-30.4     c0-16.5,13.899-30.4,30.398-30.4C382.405,631.965,396.405,645.965,396.405,662.365z"
   id="path8"
   style="fill:#ffffff;fill-opacity:1" />
		</g>
	</g>
</g>
<g
   id="g16"
   style="fill:#ffffff;fill-opacity:1">
</g>
<g
   id="g18"
   style="fill:#ffffff;fill-opacity:1">
</g>
<g
   id="g20"
   style="fill:#ffffff;fill-opacity:1">
</g>
<g
   id="g22"
   style="fill:#ffffff;fill-opacity:1">
</g>
<g
   id="g24"
   style="fill:#ffffff;fill-opacity:1">
</g>
<g
   id="g26"
   style="fill:#ffffff;fill-opacity:1">
</g>
<g
   id="g28"
   style="fill:#ffffff;fill-opacity:1">
</g>
<g
   id="g30"
   style="fill:#ffffff;fill-opacity:1">
</g>
<g
   id="g32"
   style="fill:#ffffff;fill-opacity:1">
</g>
<g
   id="g34"
   style="fill:#ffffff;fill-opacity:1">
</g>
<g
   id="g36"
   style="fill:#ffffff;fill-opacity:1">
</g>
<g
   id="g38"
   style="fill:#ffffff;fill-opacity:1">
</g>
<g
   id="g40"
   style="fill:#ffffff;fill-opacity:1">
</g>
<g
   id="g42"
   style="fill:#ffffff;fill-opacity:1">
</g>
<g
   id="g44"
   style="fill:#ffffff;fill-opacity:1">
</g>
</svg>
