<?xml version="1.0" encoding="UTF-8" standalone="no"?>
<!-- Generator: Adobe Illustrator 19.0.0, SVG Export Plug-In . SVG Version: 6.00 Build 0)  -->

<svg
   version="1.1"
   id="Capa_1"
   x="0px"
   y="0px"
   viewBox="0 0 53.627 53.627"
   style="enable-background:new 0 0 53.627 53.627;"
   xml:space="preserve"
   sodipodi:docname="search.svg"
   inkscape:version="1.1.2 (0a00cf5339, 2022-02-04)"
   xmlns:inkscape="http://www.inkscape.org/namespaces/inkscape"
   xmlns:sodipodi="http://sodipodi.sourceforge.net/DTD/sodipodi-0.dtd"
   xmlns="http://www.w3.org/2000/svg"
   xmlns:svg="http://www.w3.org/2000/svg"><defs
   id="defs4398" /><sodipodi:namedview
   id="namedview4396"
   pagecolor="#ffffff"
   bordercolor="#666666"
   borderopacity="1.0"
   inkscape:pageshadow="2"
   inkscape:pageopacity="0.0"
   inkscape:pagecheckerboard="0"
   showgrid="false"
   inkscape:zoom="13.556604"
   inkscape:cx="12.134307"
   inkscape:cy="26.813499"
   inkscape:window-width="1920"
   inkscape:window-height="985"
   inkscape:window-x="506"
   inkscape:window-y="1109"
   inkscape:window-maximized="1"
   inkscape:current-layer="Capa_1" />
<path
   d="M53.627,49.385L37.795,33.553C40.423,30.046,42,25.709,42,21C42,9.42,32.58,0,21,0S0,9.42,0,21s9.42,21,21,21  c4.709,0,9.046-1.577,12.553-4.205l15.832,15.832L53.627,49.385z M2,21C2,10.523,10.523,2,21,2s19,8.523,19,19s-8.523,19-19,19  S2,31.477,2,21z M35.567,36.093c0.178-0.172,0.353-0.347,0.525-0.525c0.146-0.151,0.304-0.29,0.445-0.445l14.262,14.262  l-1.415,1.415L35.123,36.537C35.278,36.396,35.416,36.238,35.567,36.093z"
   id="path4363"
   style="fill:#ffffff;fill-opacity:1" />
<g
   id="g4365"
   style="fill:#ffffff;fill-opacity:1">
</g>
<g
   id="g4367"
   style="fill:#ffffff;fill-opacity:1">
</g>
<g
   id="g4369"
   style="fill:#ffffff;fill-opacity:1">
</g>
<g
   id="g4371"
   style="fill:#ffffff;fill-opacity:1">
</g>
<g
   id="g4373"
   style="fill:#ffffff;fill-opacity:1">
</g>
<g
   id="g4375"
   style="fill:#ffffff;fill-opacity:1">
</g>
<g
   id="g4377"
   style="fill:#ffffff;fill-opacity:1">
</g>
<g
   id="g4379"
   style="fill:#ffffff;fill-opacity:1">
</g>
<g
   id="g4381"
   style="fill:#ffffff;fill-opacity:1">
</g>
<g
   id="g4383"
   style="fill:#ffffff;fill-opacity:1">
</g>
<g
   id="g4385"
   style="fill:#ffffff;fill-opacity:1">
</g>
<g
   id="g4387"
   style="fill:#ffffff;fill-opacity:1">
</g>
<g
   id="g4389"
   style="fill:#ffffff;fill-opacity:1">
</g>
<g
   id="g4391"
   style="fill:#ffffff;fill-opacity:1">
</g>
<g
   id="g4393"
   style="fill:#ffffff;fill-opacity:1">
</g>
</svg>
