<?xml version="1.0" encoding="UTF-8" standalone="no"?>
<!-- Uploaded to: SVG Repo, www.svgrepo.com, Generator: SVG Repo Mixer Tools -->

<svg
   width="800px"
   height="800px"
   viewBox="0 0 24 24"
   fill="none"
   version="1.1"
   id="svg6"
   sodipodi:docname="server-minimalistic-svgrepo-com.svg"
   inkscape:version="1.1.2 (0a00cf5339, 2022-02-04)"
   xmlns:inkscape="http://www.inkscape.org/namespaces/inkscape"
   xmlns:sodipodi="http://sodipodi.sourceforge.net/DTD/sodipodi-0.dtd"
   xmlns="http://www.w3.org/2000/svg"
   xmlns:svg="http://www.w3.org/2000/svg">
  <defs
     id="defs10" />
  <sodipodi:namedview
     id="namedview8"
     pagecolor="#ffffff"
     bordercolor="#666666"
     borderopacity="1.0"
     inkscape:pageshadow="2"
     inkscape:pageopacity="0.0"
     inkscape:pagecheckerboard="0"
     showgrid="false"
     inkscape:zoom="0.90875"
     inkscape:cx="366.43741"
     inkscape:cy="400"
     inkscape:window-width="1920"
     inkscape:window-height="977"
     inkscape:window-x="0"
     inkscape:window-y="31"
     inkscape:window-maximized="1"
     inkscape:current-layer="svg6" />
  <path
     fill-rule="evenodd"
     clip-rule="evenodd"
     d="m 1.878153,16.453751 c 0.3239184,-0.02219 0.7377517,-0.02254 1.3314628,-0.02254 H 20.790368 c 0.593747,0 1.007592,3.58e-4 1.331487,0.02254 0.318287,0.02184 0.503676,0.06275 0.645163,0.121684 0.461565,0.192308 0.828288,0.561178 1.019403,1.025368 0.05858,0.142322 0.09925,0.328785 0.120969,0.648981 0.02207,0.325803 0.02242,0.742034 0.02242,1.339241 0,0.597206 -3.58e-4,1.013557 -0.02242,1.339361 -0.02172,0.320196 -0.0624,0.50654 -0.120969,0.648981 -0.191115,0.464189 -0.557838,0.833059 -1.019403,1.025367 -0.141487,0.05893 -0.326876,0.09985 -0.645163,0.121685 -0.323895,0.02219 -0.73774,0.02255 -1.331487,0.02255 H 3.2096158 c -0.5937111,0 -1.0075444,-3.58e-4 -1.3314628,-0.02255 C 1.5598656,22.702587 1.3745121,22.661668 1.2330007,22.602734 0.77144811,22.410426 0.40474949,22.041556 0.21357422,21.577367 0.15495112,21.434926 0.11434204,21.248582 0.09262977,20.928386 0.07052383,20.602582 0.07018979,20.186231 0.07018979,19.589025 c 0,-0.597207 3.3404e-4,-1.013438 0.02243998,-1.339241 0.0217123,-0.320196 0.0623214,-0.506659 0.12094445,-0.648981 0.19117527,-0.46419 0.55787389,-0.83306 1.01942648,-1.025368 0.1415114,-0.05893 0.3268649,-0.09985 0.6451523,-0.121684 z m 1.3314628,4.398523 c 0.6935397,0 1.2557679,-0.565594 1.2557679,-1.263249 0,-0.697536 -0.5622282,-1.263129 -1.2557679,-1.263129 -0.6935397,0 -1.255768,0.565593 -1.255768,1.263129 0,0.697655 0.5622283,1.263249 1.255768,1.263249 z"
     fill="#1c274c"
     id="path2"
     style="stroke-width:1.19298;fill:#ffffff;fill-opacity:1" />
  <path
     fill-rule="evenodd"
     clip-rule="evenodd"
     d="m 3.2096108,7.5890877 c -0.5937111,0 -1.0075444,-3.459e-4 -1.3314628,-0.022571 C 1.5598606,7.544673 1.3745071,7.5038253 1.2329957,7.4448562 0.77144311,7.2525477 0.40474449,6.8837016 0.21356922,6.4194291 0.15494612,6.2770826 0.11433704,6.0906435 0.09262477,5.7704831 0.07051883,5.444656 0.07018479,5.0283889 0.07018479,4.4311944 c 0,-0.5971946 3.3404e-4,-1.0134735 0.02243998,-1.3393006 C 0.11433704,2.7717453 0.15494612,2.5853062 0.21356922,2.4429477 0.40474449,1.9786871 0.77144311,1.6098292 1.2329957,1.4175325 1.3745071,1.3585634 1.5598606,1.3177157 1.878148,1.2958723 2.2020664,1.2736469 2.6158997,1.273301 3.2096108,1.273301 H 20.790363 c 0.593747,0 1.007592,3.459e-4 1.331487,0.022571 0.318287,0.021843 0.503676,0.062691 0.645163,0.1216602 0.461565,0.1922967 0.828288,0.5611546 1.019403,1.0254152 0.05858,0.1423585 0.09925,0.3287976 0.120969,0.6489461 0.02207,0.3258271 0.02243,0.742106 0.02243,1.3393006 0,0.5971945 -3.59e-4,1.0134616 -0.02243,1.3392887 -0.02172,0.3201604 -0.0624,0.5065995 -0.120969,0.648946 -0.191115,0.4642725 -0.557837,0.8331186 -1.019402,1.0254271 -0.141488,0.058969 -0.326877,0.099816 -0.645164,0.1216603 -0.323895,0.022225 -0.73774,0.022571 -1.331487,0.022571 z m 0,1.2631526 c -0.5937111,0 -1.0075444,3.459e-4 -1.3314628,0.022571 C 1.5598606,8.896655 1.3745071,8.9375026 1.2329957,8.9964717 0.77144311,9.1887684 0.40474449,9.5576263 0.21356922,10.021911 c -0.0586231,0.142322 -0.0992322,0.328786 -0.12094445,0.648982 -0.02210594,0.325803 -0.02243998,0.742034 -0.02243998,1.339241 0,0.597206 3.3404e-4,1.013437 0.02243998,1.339241 0.0217123,0.320196 0.0623214,0.506658 0.12094445,0.648982 0.19117527,0.464308 0.55787389,0.833178 1.01942648,1.025486 0.1415114,0.05893 0.3268649,0.09973 0.6451523,0.121565 0.3239184,0.0223 0.7377517,0.02266 1.3314628,0.02266 H 20.790363 c 0.593747,0 1.007592,-3.58e-4 1.331487,-0.02266 0.318287,-0.02183 0.503676,-0.06264 0.645163,-0.121565 0.461565,-0.192308 0.828288,-0.561178 1.019403,-1.025486 0.05858,-0.142324 0.09925,-0.328786 0.120969,-0.648982 0.02207,-0.325804 0.02243,-0.742035 0.02243,-1.339241 0,-0.597207 -3.59e-4,-1.013438 -0.02243,-1.339241 -0.02171,-0.320196 -0.06239,-0.50666 -0.120969,-0.648982 C 23.595301,9.5576263 23.228578,9.1887684 22.767013,8.9964717 22.625526,8.9375026 22.440137,8.896655 22.12185,8.8748114 21.797955,8.8525862 21.38411,8.8522403 20.790363,8.8522403 Z m 1.2557679,3.1578937 c 0,0.697655 -0.5622282,1.263129 -1.2557679,1.263129 -0.6935397,0 -1.255768,-0.565474 -1.255768,-1.263129 0,-0.697656 0.5622283,-1.263129 1.255768,-1.263129 0.6935397,0 1.2557679,0.565473 1.2557679,1.263129 z M 3.2096108,5.6943469 c 0.6935397,0 1.2557679,-0.5655328 1.2557679,-1.2631525 0,-0.6976198 -0.5622282,-1.2631526 -1.2557679,-1.2631526 -0.6935397,0 -1.255768,0.5655328 -1.255768,1.2631526 0,0.6976197 0.5622283,1.2631525 1.255768,1.2631525 z"
     fill="#1c274c"
     id="path4"
     style="stroke-width:1.19298;fill:#ffffff;fill-opacity:1" />
</svg>
