<?xml version="1.0" encoding="UTF-8" standalone="no"?>
<svg
   width="512"
   height="512"
   viewBox="0 0 512 512"
   version="1.1"
   id="svg8"
   sodipodi:docname="server.svg"
   inkscape:version="1.1.2 (0a00cf5339, 2022-02-04)"
   xmlns:inkscape="http://www.inkscape.org/namespaces/inkscape"
   xmlns:sodipodi="http://sodipodi.sourceforge.net/DTD/sodipodi-0.dtd"
   xmlns="http://www.w3.org/2000/svg"
   xmlns:svg="http://www.w3.org/2000/svg">
  <defs
     id="defs12" />
  <sodipodi:namedview
     id="namedview10"
     pagecolor="#ffffff"
     bordercolor="#666666"
     borderopacity="1.0"
     inkscape:pageshadow="2"
     inkscape:pageopacity="0.0"
     inkscape:pagecheckerboard="0"
     showgrid="false"
     inkscape:zoom="1.4199219"
     inkscape:cx="256.35213"
     inkscape:cy="256"
     inkscape:window-width="1920"
     inkscape:window-height="977"
     inkscape:window-x="598"
     inkscape:window-y="1111"
     inkscape:window-maximized="1"
     inkscape:current-layer="svg8" />
  <path
     d="m 117.25828,27.949415 c 36.63086,-16.52683 85.95395,-26.2486754 139.27247,-26.2486754 53.31852,0 102.39745,9.7219514 138.78737,26.2692684 34.91763,15.877731 64.48749,41.665934 64.48749,75.633532 v 0.0319 c -0.0117,5.87321 -3.28849,14.74406 -13.05099,25.70923 -9.54808,10.72314 -24.00766,21.92821 -42.74929,32.12485 -37.43866,20.36782 -89.84218,35.54497 -148.00533,35.54497 -58.16315,0 -110.56665,-15.17715 -148.00533,-35.54497 C 89.25262,151.27283 74.793569,140.06776 65.2457,129.34462 55.464729,118.35928 52.194393,109.47569 52.194393,103.60354 c 0,-34.42181 29.982245,-59.826284 65.063887,-75.654125 z"
     id="path2"
     style="fill:#ffffff;fill-opacity:1;stroke-width:1.06148" />
  <path
     d="m 420.2376,191.30683 c 10.17542,-5.53459 19.58232,-12.47779 28.02964,-20.06636 4.30327,-3.86595 11.53837,-0.94472 11.53837,4.84038 v 82.49987 c 0,5.87216 -3.27045,12.63276 -13.05099,23.61809 -9.54808,10.72316 -24.00766,21.92822 -42.74929,32.12487 C 366.56667,334.6915 314.16315,349.86865 256,349.86865 c -58.16315,0 -110.56665,-15.17715 -148.00533,-35.54497 C 89.252621,304.12703 74.793569,292.92197 65.245701,282.19881 55.46473,271.21348 52.194394,264.45288 52.194394,258.58072 v -82.49987 c 0,-5.7851 7.234886,-8.70633 11.538581,-4.84038 8.447,7.58751 17.854009,14.53177 28.02943,20.06636 C 134.23252,214.41222 192.22371,230.98205 256,230.98205 c 63.77629,0 121.76749,-16.56983 164.2376,-39.67522 z"
     id="path4"
     style="fill:#ffffff;fill-opacity:1;stroke-width:1.06148" />
  <path
     d="m 63.732975,324.09468 c -4.303695,-3.86595 -11.538581,-0.94473 -11.538581,4.84038 v 80.37689 c 0,34.20537 29.726214,59.6227 64.674306,75.50786 36.48228,16.58255 85.68859,26.39494 139.1313,26.39494 53.44272,0 102.64904,-9.81239 139.1313,-26.39494 34.94841,-15.88516 64.67431,-41.30249 64.67431,-75.50786 v -80.37689 c 0,-5.78511 -7.2351,-8.70633 -11.53837,-4.84038 -8.44732,7.58751 -17.85422,14.53175 -28.02964,20.06635 -42.47011,23.1054 -100.46131,39.67521 -164.2376,39.67521 -63.77629,0 -121.76748,-16.56981 -164.237595,-39.67521 -10.175421,-5.5346 -19.58243,-12.47884 -28.02943,-20.06635 z"
     id="path6"
     style="fill:#ffffff;fill-opacity:1;stroke-width:1.06148" />
</svg>
