<?xml version="1.0" encoding="UTF-8" standalone="no"?>
<!-- Generator: Adobe Illustrator 19.0.0, SVG Export Plug-In . SVG Version: 6.00 Build 0)  -->

<svg
   version="1.1"
   id="Capa_1"
   x="0px"
   y="0px"
   viewBox="0 0 56 56"
   style="enable-background:new 0 0 56 56;"
   xml:space="preserve"
   sodipodi:docname="settings.svg"
   inkscape:version="1.1.2 (0a00cf5339, 2022-02-04)"
   xmlns:inkscape="http://www.inkscape.org/namespaces/inkscape"
   xmlns:sodipodi="http://sodipodi.sourceforge.net/DTD/sodipodi-0.dtd"
   xmlns="http://www.w3.org/2000/svg"
   xmlns:svg="http://www.w3.org/2000/svg"><defs
   id="defs5016" /><sodipodi:namedview
   id="namedview5014"
   pagecolor="#ffffff"
   bordercolor="#666666"
   borderopacity="1.0"
   inkscape:pageshadow="2"
   inkscape:pageopacity="0.0"
   inkscape:pagecheckerboard="0"
   showgrid="false"
   inkscape:zoom="12.982143"
   inkscape:cx="12.671252"
   inkscape:cy="28"
   inkscape:window-width="1920"
   inkscape:window-height="985"
   inkscape:window-x="506"
   inkscape:window-y="1109"
   inkscape:window-maximized="1"
   inkscape:current-layer="Capa_1" />
<g
   id="g4981"
   style="fill:#ffffff;fill-opacity:1">
	<path
   d="M8,41.08V2c0-0.553-0.448-1-1-1S6,1.447,6,2v39.08C2.613,41.568,0,44.481,0,48c0,3.859,3.14,7,7,7s7-3.141,7-7   C14,44.481,11.387,41.568,8,41.08z M7,53c-2.757,0-5-2.243-5-5s2.243-5,5-5s5,2.243,5,5S9.757,53,7,53z"
   id="path4975"
   style="fill:#ffffff;fill-opacity:1" />
	<path
   d="M29,20.695V2c0-0.553-0.448-1-1-1s-1,0.447-1,1v18.632c-3.602,0.396-6.414,3.456-6.414,7.161s2.812,6.765,6.414,7.161V54   c0,0.553,0.448,1,1,1s1-0.447,1-1V34.891c3.4-0.577,6-3.536,6-7.098S32.4,21.272,29,20.695z M27.793,33   c-2.871,0-5.207-2.336-5.207-5.207s2.335-5.207,5.207-5.207S33,24.922,33,27.793S30.664,33,27.793,33z"
   id="path4977"
   style="fill:#ffffff;fill-opacity:1" />
	<path
   d="M56,8c0-3.859-3.14-7-7-7s-7,3.141-7,7c0,3.519,2.613,6.432,6,6.92V54c0,0.553,0.448,1,1,1s1-0.447,1-1V14.92   C53.387,14.432,56,11.519,56,8z M49,13c-2.757,0-5-2.243-5-5s2.243-5,5-5s5,2.243,5,5S51.757,13,49,13z"
   id="path4979"
   style="fill:#ffffff;fill-opacity:1" />
</g>
<g
   id="g4983"
   style="fill:#ffffff;fill-opacity:1">
</g>
<g
   id="g4985"
   style="fill:#ffffff;fill-opacity:1">
</g>
<g
   id="g4987"
   style="fill:#ffffff;fill-opacity:1">
</g>
<g
   id="g4989"
   style="fill:#ffffff;fill-opacity:1">
</g>
<g
   id="g4991"
   style="fill:#ffffff;fill-opacity:1">
</g>
<g
   id="g4993"
   style="fill:#ffffff;fill-opacity:1">
</g>
<g
   id="g4995"
   style="fill:#ffffff;fill-opacity:1">
</g>
<g
   id="g4997"
   style="fill:#ffffff;fill-opacity:1">
</g>
<g
   id="g4999"
   style="fill:#ffffff;fill-opacity:1">
</g>
<g
   id="g5001"
   style="fill:#ffffff;fill-opacity:1">
</g>
<g
   id="g5003"
   style="fill:#ffffff;fill-opacity:1">
</g>
<g
   id="g5005"
   style="fill:#ffffff;fill-opacity:1">
</g>
<g
   id="g5007"
   style="fill:#ffffff;fill-opacity:1">
</g>
<g
   id="g5009"
   style="fill:#ffffff;fill-opacity:1">
</g>
<g
   id="g5011"
   style="fill:#ffffff;fill-opacity:1">
</g>
</svg>
