<?xml version="1.0" encoding="UTF-8" standalone="no"?>
<svg
   width="512"
   height="512"
   viewBox="0 0 512 512"
   version="1.1"
   id="svg1"
   sodipodi:docname="shield.svg"
   inkscape:version="1.4.3 (0d15f75042, 2025-12-25)"
   xmlns:inkscape="http://www.inkscape.org/namespaces/inkscape"
   xmlns:sodipodi="http://sodipodi.sourceforge.net/DTD/sodipodi-0.dtd"
   xmlns="http://www.w3.org/2000/svg"
   xmlns:svg="http://www.w3.org/2000/svg">
  <defs
     id="defs1" />
  <sodipodi:namedview
     id="namedview1"
     pagecolor="#ffffff"
     bordercolor="#000000"
     borderopacity="0.25"
     inkscape:showpageshadow="2"
     inkscape:pageopacity="0.0"
     inkscape:pagecheckerboard="0"
     inkscape:deskcolor="#d1d1d1"
     inkscape:zoom="0.5"
     inkscape:cx="103"
     inkscape:cy="119"
     inkscape:window-width="1920"
     inkscape:window-height="1011"
     inkscape:window-x="0"
     inkscape:window-y="0"
     inkscape:window-maximized="1"
     inkscape:current-layer="svg1" />
  <path
     d="M 509.54949,91.583811 A 18.186182,18.186182 0 0 0 494.60271,74.818424 C 396.81788,57.291491 355.67164,43.583657 267.36636,3.8468475 c -8.82029,-3.28487908 -14.28752,-3.22804738 -22.73273,0 C 156.32836,43.629121 115.18212,57.268758 17.397285,74.818424 A 18.186182,18.186182 0 0 0 2.4505164,91.583811 C -1.9255338,161.0323 7.3835184,225.70691 30.138979,283.84586 a 396.52698,396.52698 0 0 0 81.189941,127.7693 c 50.77354,53.91066 107.07115,85.38412 136.10084,97.29607 a 22.732728,22.732728 0 0 0 17.17457,0 c 30.68919,-12.41206 84.89539,-42.98758 136.06675,-97.3188 A 396.52698,396.52698 0 0 0 481.86102,283.84586 C 504.61648,225.71828 513.92553,161.0323 509.54949,91.583811 Z"
     id="path1"
     style="stroke-width:1.13663;fill:#ffffff;fill-opacity:1" />
  <g
     style="fill:none;fill-rule:nonzero;stroke:none;stroke-width:0;stroke-linecap:butt;stroke-linejoin:miter;stroke-miterlimit:10;stroke-dasharray:none"
     transform="matrix(2.81,0,0,2.81,259.09519,259.09088)"
     id="g2"
     inkscape:transform-center-x="-93.728518"
     inkscape:transform-center-y="-5.1008717">
	<circle
   cx="45"
   cy="45"
   r="45"
   style="opacity:1;fill:#15bf7f;fill-rule:nonzero;stroke:none;stroke-width:1;stroke-linecap:butt;stroke-linejoin:miter;stroke-miterlimit:10;stroke-dasharray:none"
   id="circle1" />

	<path
   d="m 38.478,64.5 c -0.01,0 -0.02,0 -0.029,0 -1.3,-0.009 -2.533,-0.579 -3.381,-1.563 L 21.59,47.284 c -1.622,-1.883 -1.41,-4.725 0.474,-6.347 1.884,-1.621 4.725,-1.409 6.347,0.474 L 38.523,53.155 61.629,27.02 c 1.645,-1.862 4.489,-2.037 6.352,-0.391 1.862,1.646 2.037,4.49 0.391,6.352 l -26.521,30 C 40.995,63.947 39.767,64.5 38.478,64.5 Z"
   style="opacity:1;fill:#ffffff;fill-rule:nonzero;stroke:none;stroke-width:1;stroke-linecap:butt;stroke-linejoin:miter;stroke-miterlimit:10;stroke-dasharray:none"
   stroke-linecap="round"
   id="path1-5" />

</g>
</svg>
