<?xml version="1.0" encoding="UTF-8" standalone="no"?>
<svg
   width="512"
   height="512"
   viewBox="0 0 512 512"
   version="1.1"
   id="svg4"
   sodipodi:docname="sso.svg"
   inkscape:version="1.1.2 (0a00cf5339, 2022-02-04)"
   xmlns:inkscape="http://www.inkscape.org/namespaces/inkscape"
   xmlns:sodipodi="http://sodipodi.sourceforge.net/DTD/sodipodi-0.dtd"
   xmlns="http://www.w3.org/2000/svg"
   xmlns:svg="http://www.w3.org/2000/svg">
  <defs
     id="defs8" />
  <sodipodi:namedview
     id="namedview6"
     pagecolor="#ffffff"
     bordercolor="#666666"
     borderopacity="1.0"
     inkscape:pageshadow="2"
     inkscape:pageopacity="0.0"
     inkscape:pagecheckerboard="0"
     showgrid="false"
     inkscape:zoom="1.4199219"
     inkscape:cx="256"
     inkscape:cy="253.18294"
     inkscape:window-width="1920"
     inkscape:window-height="977"
     inkscape:window-x="856"
     inkscape:window-y="1111"
     inkscape:window-maximized="1"
     inkscape:current-layer="svg4" />
  <path
     id="path2"
     style="fill:#ffffff;fill-opacity:1;stroke-width:0.989531"
     d="M 256 81.84375 C 220.87165 81.84375 188.47375 93.411055 162.31055 115.25 A 154.60433 154.60433 0 0 0 120.70117 170.66406 A 15.832496 15.832496 0 0 1 109.45117 179.7168 C 82.773409 185.27796 58.914548 196.87548 40.994141 213.23242 C 15.92932 236.09059 2.6796875 267.301 2.6796875 303.49805 C 2.6796875 339.12116 16.909439 371.65736 42.746094 395.11914 C 67.6328 417.72003 101.19734 430.1582 137.25586 430.1582 L 394.53516 430.1582 C 426.56627 430.1582 454.1344 421.67885 474.28125 405.64844 C 497.20869 387.3916 509.32031 360.28653 509.32031 327.24609 C 509.32031 270.27879 467.75881 237.61575 422.67578 227.5918 A 15.832496 15.832496 0 0 1 410.68359 215.33008 C 403.084 178.9945 386.48868 147.85565 362.01758 124.29492 A 151.96228 151.96228 0 0 0 256 81.84375 z M 180.54492 222.11133 C 198.09932 221.97204 215.5179 228.6097 228.80078 241.89258 C 234.04933 247.14114 239.13539 252.22906 242.24414 258.64844 C 280.07412 261.67645 379.99879 269.71033 388.39648 269.54883 A 11.516416 11.516416 0 0 1 397.1582 272.90039 C 400.58995 276.33214 401.80011 281.74139 401.88086 285.375 C 402.00198 290.82542 401.1552 312.74932 397.03711 312.83008 C 384.76355 312.99157 381.8963 312.6276 376.84961 312.66797 C 369.25939 312.74877 365.82781 300.83893 361.38672 299.0625 C 356.94563 297.28606 354.92639 298.09334 352.14062 299.91016 C 349.35485 301.72696 346.93233 307.45957 343.7832 310.68945 C 340.47258 314.08083 337.24327 314.48499 332.39844 314.64648 C 328.52259 314.80796 325.33329 314.52597 322.58789 311.86133 C 318.87354 308.30847 319.31812 298.2552 311.56641 298.33594 C 303.81469 298.41674 304.50037 310.40804 299.85742 314.08203 C 295.21447 317.75603 284.3939 317.02778 281.40625 315.08984 C 278.41861 313.15192 277.32844 301.56507 272.92773 298.7793 C 271.4339 297.85071 266.14568 297.48795 263.88477 298.94141 C 261.62386 300.39485 256.57733 311.82001 254.31641 313.27344 C 251.57101 315.04987 246.5639 315.29215 243.0918 316.09961 C 239.53891 325.06254 234.9365 331.84473 227.62891 339.15234 C 199.97305 366.80818 156.00718 367.65758 129.44141 341.0918 C 102.87564 314.52602 103.81485 270.65194 131.4707 242.99609 C 145.29863 229.16817 162.99052 222.25061 180.54492 222.11133 z M 165.91797 276.17773 A 18.270963 18.270963 0 0 0 146.00586 280.13867 A 18.270963 18.270963 0 0 0 146.00586 305.97852 A 18.270963 18.270963 0 1 0 165.91797 276.17773 z " />
</svg>
