<?xml version="1.0" encoding="UTF-8" standalone="no"?>
<!-- Generator: Adobe Illustrator 22.1.0, SVG Export Plug-In . SVG Version: 6.00 Build 0)  -->

<svg
   version="1.1"
   id="Layer_1"
   x="0px"
   y="0px"
   viewBox="0 0 24 24"
   style="enable-background:new 0 0 24 24;"
   xml:space="preserve"
   sodipodi:docname="graph-stats-circle.svg"
   inkscape:version="1.1.2 (0a00cf5339, 2022-02-04)"
   xmlns:inkscape="http://www.inkscape.org/namespaces/inkscape"
   xmlns:sodipodi="http://sodipodi.sourceforge.net/DTD/sodipodi-0.dtd"
   xmlns="http://www.w3.org/2000/svg"
   xmlns:svg="http://www.w3.org/2000/svg"><defs
   id="defs4362" /><sodipodi:namedview
   id="namedview4360"
   pagecolor="#ffffff"
   bordercolor="#666666"
   borderopacity="1.0"
   inkscape:pageshadow="2"
   inkscape:pageopacity="0.0"
   inkscape:pagecheckerboard="0"
   showgrid="false"
   inkscape:zoom="30.291667"
   inkscape:cx="12"
   inkscape:cy="12"
   inkscape:window-width="1920"
   inkscape:window-height="985"
   inkscape:window-x="506"
   inkscape:window-y="1109"
   inkscape:window-maximized="1"
   inkscape:current-layer="Layer_1" />
<g
   id="g4357"
   style="fill:#ffffff;fill-opacity:1">
	<title
   id="title4351">graph-stats-circle</title>
	<path
   d="M12,24C5.383,24,0,18.617,0,12C0,5.383,5.383,0,12,0c6.617,0,12,5.383,12,12C24,18.617,18.617,24,12,24z M12,1   C5.935,1,1,5.935,1,12s4.935,11,11,11s11-4.935,11-11S18.065,1,12,1z"
   id="path4353"
   style="fill:#ffffff;fill-opacity:1" />
	<path
   d="M13.036,19.7c-0.195,0-0.385-0.057-0.549-0.165c-0.223-0.147-0.375-0.372-0.429-0.634L8.996,3.968   C8.676,5.507,8.432,6.789,8.216,7.92C7.347,12.469,7.055,14,4.874,14H2.5C2.224,14,2,13.776,2,13.5S2.224,13,2.5,13h2.374   c1.278,0,1.467-0.594,2.358-5.263C7.449,6.6,7.695,5.313,8.017,3.766C8.114,3.305,8.525,2.97,8.996,2.97   c0.068,0,0.137,0.007,0.205,0.021C9.59,3.072,9.894,3.376,9.975,3.766l3.062,14.933l2.109-8.787   c0.062-0.259,0.221-0.479,0.448-0.619c0.158-0.097,0.339-0.149,0.522-0.149c0.078,0,0.157,0.009,0.233,0.028   c0.316,0.075,0.577,0.301,0.697,0.603c0.117,0.293,0.224,0.583,0.327,0.863c0.618,1.681,0.969,2.364,1.979,2.364H21.5   c0.276,0,0.5,0.224,0.5,0.5s-0.224,0.5-0.5,0.5h-2.146c-1.808,0-2.346-1.463-2.915-3.013c-0.106-0.288-0.207-0.563-0.319-0.843   l-2.109,8.787c-0.09,0.375-0.393,0.668-0.771,0.746C13.173,19.693,13.104,19.7,13.036,19.7z"
   id="path4355"
   style="fill:#ffffff;fill-opacity:1" />
</g>
</svg>
