<?xml version="1.0" encoding="UTF-8" standalone="no"?>
<svg
   width="512"
   height="512"
   viewBox="0 0 512 512"
   version="1.1"
   id="svg4"
   sodipodi:docname="stop.svg"
   inkscape:version="1.1.2 (0a00cf5339, 2022-02-04)"
   xmlns:inkscape="http://www.inkscape.org/namespaces/inkscape"
   xmlns:sodipodi="http://sodipodi.sourceforge.net/DTD/sodipodi-0.dtd"
   xmlns="http://www.w3.org/2000/svg"
   xmlns:svg="http://www.w3.org/2000/svg">
  <defs
     id="defs8" />
  <sodipodi:namedview
     id="namedview6"
     pagecolor="#ffffff"
     bordercolor="#666666"
     borderopacity="1.0"
     inkscape:pageshadow="2"
     inkscape:pageopacity="0.0"
     inkscape:pagecheckerboard="0"
     showgrid="false"
     inkscape:zoom="1.4199219"
     inkscape:cx="256"
     inkscape:cy="256"
     inkscape:window-width="1920"
     inkscape:window-height="977"
     inkscape:window-x="0"
     inkscape:window-y="31"
     inkscape:window-maximized="1"
     inkscape:current-layer="svg4" />
  <path
     d="m 256.00001,1.588695 c -140.28093,0 -254.411315,114.130385 -254.411315,254.411315 0,140.28092 114.130385,254.4113 254.411315,254.4113 140.28092,0 254.4113,-114.13038 254.4113,-254.4113 0,-140.28093 -114.13038,-254.411315 -254.4113,-254.411315 z M 353.8505,322.53834 A 31.336624,31.336624 0 0 1 322.53834,353.8505 H 189.46167 A 31.336624,31.336624 0 0 1 158.14951,322.53834 V 189.46167 a 31.336624,31.336624 0 0 1 31.31216,-31.31216 h 133.07667 a 31.336624,31.336624 0 0 1 31.31216,31.31216 z"
     id="path2"
     style="stroke-width:1.22313;fill:#ffffff;fill-opacity:1" />
</svg>
