<?xml version="1.0" encoding="UTF-8" standalone="no"?>
<svg
   width="512"
   height="512"
   viewBox="0 0 512 512"
   version="1.1"
   id="svg4"
   sodipodi:docname="terminal.svg"
   inkscape:version="1.1.2 (0a00cf5339, 2022-02-04)"
   xmlns:inkscape="http://www.inkscape.org/namespaces/inkscape"
   xmlns:sodipodi="http://sodipodi.sourceforge.net/DTD/sodipodi-0.dtd"
   xmlns="http://www.w3.org/2000/svg"
   xmlns:svg="http://www.w3.org/2000/svg">
  <defs
     id="defs8" />
  <sodipodi:namedview
     id="namedview6"
     pagecolor="#ffffff"
     bordercolor="#666666"
     borderopacity="1.0"
     inkscape:pageshadow="2"
     inkscape:pageopacity="0.0"
     inkscape:pagecheckerboard="0"
     showgrid="false"
     inkscape:zoom="1.4199219"
     inkscape:cx="256.35213"
     inkscape:cy="256"
     inkscape:window-width="1920"
     inkscape:window-height="977"
     inkscape:window-x="598"
     inkscape:window-y="1111"
     inkscape:window-maximized="1"
     inkscape:current-layer="svg4" />
  <path
     d="M 442.80745,18.245072 H 69.19256 A 68.004278,68.004278 0 0 0 1.2625813,86.17505 v 339.6499 A 68.004278,68.004278 0 0 0 69.19256,493.75493 h 373.61489 a 68.004278,68.004278 0 0 0 67.92997,-67.92998 V 86.17505 A 68.004278,68.004278 0 0 0 442.80745,18.245072 Z M 86.175055,256 A 16.982495,16.982495 0 0 1 75.560996,225.76055 L 143.90492,171.08753 75.560996,116.41451 A 16.990786,16.990786 0 1 1 96.789114,89.879358 l 84.912476,67.929982 a 16.982495,16.982495 0 0 1 0,26.53514 L 96.789114,252.27446 A 16.982495,16.982495 0 0 1 86.175055,256 Z M 256,256 h -67.92997 a 16.982495,16.982495 0 0 1 0,-33.96499 H 256 A 16.982495,16.982495 0 0 1 256,256 Z"
     id="path2"
     style="fill:#ffffff;fill-opacity:1;stroke-width:1.06141" />
</svg>
