<?xml version="1.0" encoding="UTF-8" standalone="no"?>
<!-- Generator: Adobe Illustrator 19.0.0, SVG Export Plug-In . SVG Version: 6.00 Build 0)  -->

<svg
   version="1.1"
   id="Capa_1"
   x="0px"
   y="0px"
   viewBox="0 0 52 52"
   style="enable-background:new 0 0 52 52;"
   xml:space="preserve"
   sodipodi:docname="unknow.svg"
   inkscape:version="1.1.2 (0a00cf5339, 2022-02-04)"
   xmlns:inkscape="http://www.inkscape.org/namespaces/inkscape"
   xmlns:sodipodi="http://sodipodi.sourceforge.net/DTD/sodipodi-0.dtd"
   xmlns="http://www.w3.org/2000/svg"
   xmlns:svg="http://www.w3.org/2000/svg"><defs
   id="defs940" /><sodipodi:namedview
   id="namedview938"
   pagecolor="#ffffff"
   bordercolor="#666666"
   borderopacity="1.0"
   inkscape:pageshadow="2"
   inkscape:pageopacity="0.0"
   inkscape:pagecheckerboard="0"
   showgrid="false"
   inkscape:zoom="15.173077"
   inkscape:cx="26"
   inkscape:cy="26"
   inkscape:window-width="1920"
   inkscape:window-height="985"
   inkscape:window-x="506"
   inkscape:window-y="1109"
   inkscape:window-maximized="1"
   inkscape:current-layer="Capa_1" />
<g
   id="g905"
   style="fill:#ffffff;fill-opacity:1">
	<path
   d="M26,0C11.663,0,0,11.663,0,26s11.663,26,26,26s26-11.663,26-26S40.337,0,26,0z M26,50C12.767,50,2,39.233,2,26   S12.767,2,26,2s24,10.767,24,24S39.233,50,26,50z"
   id="path899"
   style="fill:#ffffff;fill-opacity:1" />
	<path
   d="M26,37c-0.553,0-1,0.447-1,1v2c0,0.553,0.447,1,1,1s1-0.447,1-1v-2C27,37.447,26.553,37,26,37z"
   id="path901"
   style="fill:#ffffff;fill-opacity:1" />
	<path
   d="M26.113,9.001C26.075,9.001,26.037,9,25.998,9c-2.116,0-4.106,0.815-5.615,2.304C18.847,12.819,18,14.842,18,17   c0,0.553,0.447,1,1,1s1-0.447,1-1c0-1.618,0.635-3.136,1.787-4.272c1.153-1.137,2.688-1.765,4.299-1.727   c3.161,0.044,5.869,2.752,5.913,5.913c0.029,2.084-0.999,4.002-2.751,5.132C26.588,23.762,25,26.794,25,30.158V33   c0,0.553,0.447,1,1,1s1-0.447,1-1v-2.842c0-2.642,1.276-5.105,3.332-6.432c2.335-1.506,3.706-4.063,3.667-6.84   C33.939,12.599,30.401,9.061,26.113,9.001z"
   id="path903"
   style="fill:#ffffff;fill-opacity:1" />
</g>
<g
   id="g907"
   style="fill:#ffffff;fill-opacity:1">
</g>
<g
   id="g909"
   style="fill:#ffffff;fill-opacity:1">
</g>
<g
   id="g911"
   style="fill:#ffffff;fill-opacity:1">
</g>
<g
   id="g913"
   style="fill:#ffffff;fill-opacity:1">
</g>
<g
   id="g915"
   style="fill:#ffffff;fill-opacity:1">
</g>
<g
   id="g917"
   style="fill:#ffffff;fill-opacity:1">
</g>
<g
   id="g919"
   style="fill:#ffffff;fill-opacity:1">
</g>
<g
   id="g921"
   style="fill:#ffffff;fill-opacity:1">
</g>
<g
   id="g923"
   style="fill:#ffffff;fill-opacity:1">
</g>
<g
   id="g925"
   style="fill:#ffffff;fill-opacity:1">
</g>
<g
   id="g927"
   style="fill:#ffffff;fill-opacity:1">
</g>
<g
   id="g929"
   style="fill:#ffffff;fill-opacity:1">
</g>
<g
   id="g931"
   style="fill:#ffffff;fill-opacity:1">
</g>
<g
   id="g933"
   style="fill:#ffffff;fill-opacity:1">
</g>
<g
   id="g935"
   style="fill:#ffffff;fill-opacity:1">
</g>
</svg>
