<?xml version="1.0" encoding="UTF-8" standalone="no"?>
<svg
   width="512"
   height="512"
   viewBox="0 0 512 512"
   version="1.1"
   id="svg4"
   sodipodi:docname="up.svg"
   inkscape:version="1.1.2 (0a00cf5339, 2022-02-04)"
   xmlns:inkscape="http://www.inkscape.org/namespaces/inkscape"
   xmlns:sodipodi="http://sodipodi.sourceforge.net/DTD/sodipodi-0.dtd"
   xmlns="http://www.w3.org/2000/svg"
   xmlns:svg="http://www.w3.org/2000/svg">
  <defs
     id="defs8" />
  <sodipodi:namedview
     id="namedview6"
     pagecolor="#ffffff"
     bordercolor="#666666"
     borderopacity="1.0"
     inkscape:pageshadow="2"
     inkscape:pageopacity="0.0"
     inkscape:pagecheckerboard="0"
     showgrid="false"
     inkscape:zoom="1.4199219"
     inkscape:cx="256.35213"
     inkscape:cy="256"
     inkscape:window-width="1920"
     inkscape:window-height="977"
     inkscape:window-x="598"
     inkscape:window-y="1111"
     inkscape:window-maximized="1"
     inkscape:current-layer="svg4" />
  <path
     d="m 256.00001,1.62427 c -140.48145,0 -254.37574,113.89429 -254.37574,254.37574 0,140.48143 113.89429,254.37572 254.37574,254.37572 140.48143,0 254.37572,-113.89429 254.37572,-254.37572 0,-140.48145 -113.89429,-254.37574 -254.37572,-254.37574 z m 131.23585,317.12582 a 19.567364,19.567364 0 0 1 -27.66336,0 L 256.00001,215.18981 152.4275,318.75009 A 19.567364,19.567364 0 0 1 124.76414,291.08673 L 242.16832,173.68254 a 19.567364,19.567364 0 0 1 27.66336,0 l 117.40418,117.40419 a 19.567364,19.567364 0 0 1 0,27.66336 z"
     id="path2"
     style="fill:#ffffff;fill-opacity:1;stroke-width:1.22296" />
</svg>
