<?xml version="1.0" encoding="UTF-8" standalone="no"?>
<svg
   width="512"
   height="512"
   viewBox="0 0 512 512"
   version="1.1"
   id="svg4"
   sodipodi:docname="user.svg"
   inkscape:version="1.1.2 (0a00cf5339, 2022-02-04)"
   xmlns:inkscape="http://www.inkscape.org/namespaces/inkscape"
   xmlns:sodipodi="http://sodipodi.sourceforge.net/DTD/sodipodi-0.dtd"
   xmlns="http://www.w3.org/2000/svg"
   xmlns:svg="http://www.w3.org/2000/svg">
  <defs
     id="defs8" />
  <sodipodi:namedview
     id="namedview6"
     pagecolor="#ffffff"
     bordercolor="#666666"
     borderopacity="1.0"
     inkscape:pageshadow="2"
     inkscape:pageopacity="0.0"
     inkscape:pagecheckerboard="0"
     showgrid="false"
     inkscape:zoom="1.4199219"
     inkscape:cx="256.35213"
     inkscape:cy="256"
     inkscape:window-width="1920"
     inkscape:window-height="977"
     inkscape:window-x="598"
     inkscape:window-y="1111"
     inkscape:window-maximized="1"
     inkscape:current-layer="svg4" />
  <path
     d="M 256,1.328661 C 115.57569,1.328661 1.3286621,115.5757 1.3286621,256 1.3286621,396.42431 115.57569,510.67134 256,510.67134 396.4243,510.67134 510.67134,396.42431 510.67134,256 510.67134,115.5757 396.4243,1.328661 256,1.328661 Z M 194.51157,144.3609 C 210.02448,127.91747 231.85519,118.86928 256,118.86928 c 24.1448,0 45.77962,9.1094 61.35375,25.63854 15.78227,16.74954 23.45915,39.25368 21.64707,63.44746 C 335.37665,256 298.15545,295.18021 256,295.18021 c -42.15545,0 -79.45011,-39.18021 -83.00082,-87.23718 -1.79984,-24.38968 5.8648,-46.96727 21.51239,-63.58213 z M 256,471.49113 A 214.86669,214.86669 0 0 1 101.72794,406.32955 150.48872,150.48872 0 0 1 144.75271,365.38623 C 175.96219,345.37985 215.46074,334.36041 256,334.36041 c 40.53927,0 80.03782,11.01944 111.21056,31.02582 a 150.43974,150.43974 0 0 1 43.0615,40.94332 A 214.81772,214.81772 0 0 1 256,471.49113 Z"
     id="path2"
     style="fill:#ffffff;fill-opacity:1;stroke-width:1.22438" />
</svg>
