<?xml version="1.0" encoding="UTF-8" standalone="no"?>
<svg
   width="512"
   height="512"
   viewBox="0 0 512 512"
   version="1.1"
   id="svg6"
   sodipodi:docname="view.svg"
   inkscape:version="1.1.2 (0a00cf5339, 2022-02-04)"
   xmlns:inkscape="http://www.inkscape.org/namespaces/inkscape"
   xmlns:sodipodi="http://sodipodi.sourceforge.net/DTD/sodipodi-0.dtd"
   xmlns="http://www.w3.org/2000/svg"
   xmlns:svg="http://www.w3.org/2000/svg">
  <defs
     id="defs10" />
  <sodipodi:namedview
     id="namedview8"
     pagecolor="#ffffff"
     bordercolor="#666666"
     borderopacity="1.0"
     inkscape:pageshadow="2"
     inkscape:pageopacity="0.0"
     inkscape:pagecheckerboard="0"
     showgrid="false"
     inkscape:zoom="1.4199219"
     inkscape:cx="256.35213"
     inkscape:cy="256"
     inkscape:window-width="1920"
     inkscape:window-height="977"
     inkscape:window-x="598"
     inkscape:window-y="1111"
     inkscape:window-maximized="1"
     inkscape:current-layer="svg6" />
  <circle
     cx="256"
     cy="256"
     r="67.891876"
     id="circle2"
     style="fill:#ffffff;fill-opacity:1;stroke-width:1.06081" />
  <path
     d="M 505.14014,237.54189 C 477.07109,194.13352 440.65346,157.25974 399.83347,130.8986 354.67476,101.7051 304.81666,86.2703 255.65869,86.2703 c -45.10566,0 -89.45815,12.888849 -131.82693,38.30587 -43.206817,25.9156 -82.350728,63.77594 -116.3497087,112.52019 a 33.861075,33.861075 0 0 0 -0.6789188,37.7012 c 28.0160085,43.84331 64.0729615,80.77012 104.2564775,106.77059 45.24356,29.3102 93.93477,44.16155 144.59908,44.16155 49.55047,0 99.51465,-15.30749 144.48241,-44.25702 40.79878,-26.27628 77.14215,-63.28796 105.10512,-107.05701 a 34.158102,34.158102 0 0 0 -0.10608,-36.87378 z M 256.01937,357.83782 A 101.83782,101.83782 0 1 1 357.8572,256 101.95451,101.95451 0 0 1 256.01937,357.83782 Z"
     id="path4"
     style="fill:#ffffff;fill-opacity:1;stroke-width:1.06081" />
</svg>
