<?xml version="1.0" encoding="UTF-8" standalone="no"?>
<!-- Generator: Adobe Illustrator 16.0.0, SVG Export Plug-In . SVG Version: 6.00 Build 0)  -->

<svg
   version="1.1"
   id="Capa_1"
   x="0px"
   y="0px"
   width="63.066px"
   height="63.066px"
   viewBox="0 0 63.066 63.066"
   style="enable-background:new 0 0 63.066 63.066;"
   xml:space="preserve"
   sodipodi:docname="arrow-back.svg"
   inkscape:version="1.1.2 (0a00cf5339, 2022-02-04)"
   xmlns:inkscape="http://www.inkscape.org/namespaces/inkscape"
   xmlns:sodipodi="http://sodipodi.sourceforge.net/DTD/sodipodi-0.dtd"
   xmlns="http://www.w3.org/2000/svg"
   xmlns:svg="http://www.w3.org/2000/svg"><defs
   id="defs39" /><sodipodi:namedview
   id="namedview37"
   pagecolor="#ffffff"
   bordercolor="#666666"
   borderopacity="1.0"
   inkscape:pageshadow="2"
   inkscape:pageopacity="0.0"
   inkscape:pagecheckerboard="0"
   showgrid="false"
   inkscape:zoom="11.527606"
   inkscape:cx="31.533001"
   inkscape:cy="31.533001"
   inkscape:window-width="1920"
   inkscape:window-height="985"
   inkscape:window-x="506"
   inkscape:window-y="1109"
   inkscape:window-maximized="1"
   inkscape:current-layer="Capa_1" />
<g
   id="g4"
   style="fill:#ffffff;fill-opacity:1">
	<path
   d="M32.036,0H12.393c-0.646,0-1.168,0.525-1.168,1.168c0,0.642,0.522,1.168,1.168,1.168h19.644   c10.19,0,18.477,9.956,18.477,22.19v5.013c0,12.232-8.287,22.191-18.477,22.191H14.555l7.272-7.267   c0.455-0.457,0.455-1.195,0-1.652c-0.456-0.456-1.196-0.456-1.651,0l-9.96,9.955l9.96,9.959c0.228,0.23,0.528,0.342,0.827,0.342   s0.598-0.113,0.827-0.342c0.455-0.451,0.455-1.195,0-1.651l-7.007-7.008h17.216c11.476,0,20.812-10.999,20.812-24.524v-5.015   C52.848,11.001,43.512,0,32.036,0z"
   id="path2"
   style="fill:#ffffff;fill-opacity:1" />
</g>
<g
   id="g6"
   style="fill:#ffffff;fill-opacity:1">
</g>
<g
   id="g8"
   style="fill:#ffffff;fill-opacity:1">
</g>
<g
   id="g10"
   style="fill:#ffffff;fill-opacity:1">
</g>
<g
   id="g12"
   style="fill:#ffffff;fill-opacity:1">
</g>
<g
   id="g14"
   style="fill:#ffffff;fill-opacity:1">
</g>
<g
   id="g16"
   style="fill:#ffffff;fill-opacity:1">
</g>
<g
   id="g18"
   style="fill:#ffffff;fill-opacity:1">
</g>
<g
   id="g20"
   style="fill:#ffffff;fill-opacity:1">
</g>
<g
   id="g22"
   style="fill:#ffffff;fill-opacity:1">
</g>
<g
   id="g24"
   style="fill:#ffffff;fill-opacity:1">
</g>
<g
   id="g26"
   style="fill:#ffffff;fill-opacity:1">
</g>
<g
   id="g28"
   style="fill:#ffffff;fill-opacity:1">
</g>
<g
   id="g30"
   style="fill:#ffffff;fill-opacity:1">
</g>
<g
   id="g32"
   style="fill:#ffffff;fill-opacity:1">
</g>
<g
   id="g34"
   style="fill:#ffffff;fill-opacity:1">
</g>
</svg>
