<?xml version="1.0" encoding="UTF-8" standalone="no"?>
<!-- Generator: Adobe Illustrator 19.0.0, SVG Export Plug-In . SVG Version: 6.00 Build 0)  -->

<svg
   version="1.1"
   id="Capa_1"
   x="0px"
   y="0px"
   viewBox="0 0 52 52"
   style="enable-background:new 0 0 52 52;"
   xml:space="preserve"
   sodipodi:docname="close.svg"
   inkscape:version="1.1.2 (0a00cf5339, 2022-02-04)"
   xmlns:inkscape="http://www.inkscape.org/namespaces/inkscape"
   xmlns:sodipodi="http://sodipodi.sourceforge.net/DTD/sodipodi-0.dtd"
   xmlns="http://www.w3.org/2000/svg"
   xmlns:svg="http://www.w3.org/2000/svg"><defs
   id="defs1903" /><sodipodi:namedview
   id="namedview1901"
   pagecolor="#ffffff"
   bordercolor="#666666"
   borderopacity="1.0"
   inkscape:pageshadow="2"
   inkscape:pageopacity="0.0"
   inkscape:pagecheckerboard="0"
   showgrid="false"
   inkscape:zoom="13.980769"
   inkscape:cx="11.766162"
   inkscape:cy="26"
   inkscape:window-width="1920"
   inkscape:window-height="985"
   inkscape:window-x="506"
   inkscape:window-y="1109"
   inkscape:window-maximized="1"
   inkscape:current-layer="Capa_1" />
<g
   id="g1868"
   style="fill:#ffffff;fill-opacity:1">
	<path
   d="M26,0C11.664,0,0,11.663,0,26s11.664,26,26,26s26-11.663,26-26S40.336,0,26,0z M26,50C12.767,50,2,39.233,2,26   S12.767,2,26,2s24,10.767,24,24S39.233,50,26,50z"
   id="path1864"
   style="fill:#ffffff;fill-opacity:1" />
	<path
   d="M35.707,16.293c-0.391-0.391-1.023-0.391-1.414,0L26,24.586l-8.293-8.293c-0.391-0.391-1.023-0.391-1.414,0   s-0.391,1.023,0,1.414L24.586,26l-8.293,8.293c-0.391,0.391-0.391,1.023,0,1.414C16.488,35.902,16.744,36,17,36   s0.512-0.098,0.707-0.293L26,27.414l8.293,8.293C34.488,35.902,34.744,36,35,36s0.512-0.098,0.707-0.293   c0.391-0.391,0.391-1.023,0-1.414L27.414,26l8.293-8.293C36.098,17.316,36.098,16.684,35.707,16.293z"
   id="path1866"
   style="fill:#ffffff;fill-opacity:1" />
</g>
<g
   id="g1870"
   style="fill:#ffffff;fill-opacity:1">
</g>
<g
   id="g1872"
   style="fill:#ffffff;fill-opacity:1">
</g>
<g
   id="g1874"
   style="fill:#ffffff;fill-opacity:1">
</g>
<g
   id="g1876"
   style="fill:#ffffff;fill-opacity:1">
</g>
<g
   id="g1878"
   style="fill:#ffffff;fill-opacity:1">
</g>
<g
   id="g1880"
   style="fill:#ffffff;fill-opacity:1">
</g>
<g
   id="g1882"
   style="fill:#ffffff;fill-opacity:1">
</g>
<g
   id="g1884"
   style="fill:#ffffff;fill-opacity:1">
</g>
<g
   id="g1886"
   style="fill:#ffffff;fill-opacity:1">
</g>
<g
   id="g1888"
   style="fill:#ffffff;fill-opacity:1">
</g>
<g
   id="g1890"
   style="fill:#ffffff;fill-opacity:1">
</g>
<g
   id="g1892"
   style="fill:#ffffff;fill-opacity:1">
</g>
<g
   id="g1894"
   style="fill:#ffffff;fill-opacity:1">
</g>
<g
   id="g1896"
   style="fill:#ffffff;fill-opacity:1">
</g>
<g
   id="g1898"
   style="fill:#ffffff;fill-opacity:1">
</g>
</svg>
