<?xml version="1.0" encoding="UTF-8" standalone="no"?>
<!-- Generator: Adobe Illustrator 19.0.0, SVG Export Plug-In . SVG Version: 6.00 Build 0)  -->

<svg
   version="1.1"
   id="Capa_1"
   x="0px"
   y="0px"
   viewBox="0 0 59 59"
   style="enable-background:new 0 0 59 59;"
   xml:space="preserve"
   sodipodi:docname="download.svg"
   inkscape:version="1.1.2 (0a00cf5339, 2022-02-04)"
   xmlns:inkscape="http://www.inkscape.org/namespaces/inkscape"
   xmlns:sodipodi="http://sodipodi.sourceforge.net/DTD/sodipodi-0.dtd"
   xmlns="http://www.w3.org/2000/svg"
   xmlns:svg="http://www.w3.org/2000/svg"><defs
   id="defs2364" /><sodipodi:namedview
   id="namedview2362"
   pagecolor="#ffffff"
   bordercolor="#666666"
   borderopacity="1.0"
   inkscape:pageshadow="2"
   inkscape:pageopacity="0.0"
   inkscape:pagecheckerboard="0"
   showgrid="false"
   inkscape:zoom="12.322034"
   inkscape:cx="13.431224"
   inkscape:cy="29.5"
   inkscape:window-width="1920"
   inkscape:window-height="985"
   inkscape:window-x="506"
   inkscape:window-y="1109"
   inkscape:window-maximized="1"
   inkscape:current-layer="Capa_1" />
<g
   id="g2329"
   style="fill:#ffffff;fill-opacity:1">
	<path
   d="M20.187,28.313c-0.391-0.391-1.023-0.391-1.414,0s-0.391,1.023,0,1.414l9.979,9.979C28.938,39.895,29.192,40,29.458,40   c0.007,0,0.014-0.004,0.021-0.004c0.007,0,0.013,0.004,0.021,0.004c0.333,0,0.613-0.173,0.795-0.423l9.891-9.891   c0.391-0.391,0.391-1.023,0-1.414s-1.023-0.391-1.414,0L30.5,36.544V1c0-0.553-0.447-1-1-1s-1,0.447-1,1v35.628L20.187,28.313z"
   id="path2325"
   style="fill:#ffffff;fill-opacity:1" />
	<path
   d="M36.5,16c-0.553,0-1,0.447-1,1s0.447,1,1,1h13v39h-40V18h13c0.553,0,1-0.447,1-1s-0.447-1-1-1h-15v43h44V16H36.5z"
   id="path2327"
   style="fill:#ffffff;fill-opacity:1" />
</g>
<g
   id="g2331"
   style="fill:#ffffff;fill-opacity:1">
</g>
<g
   id="g2333"
   style="fill:#ffffff;fill-opacity:1">
</g>
<g
   id="g2335"
   style="fill:#ffffff;fill-opacity:1">
</g>
<g
   id="g2337"
   style="fill:#ffffff;fill-opacity:1">
</g>
<g
   id="g2339"
   style="fill:#ffffff;fill-opacity:1">
</g>
<g
   id="g2341"
   style="fill:#ffffff;fill-opacity:1">
</g>
<g
   id="g2343"
   style="fill:#ffffff;fill-opacity:1">
</g>
<g
   id="g2345"
   style="fill:#ffffff;fill-opacity:1">
</g>
<g
   id="g2347"
   style="fill:#ffffff;fill-opacity:1">
</g>
<g
   id="g2349"
   style="fill:#ffffff;fill-opacity:1">
</g>
<g
   id="g2351"
   style="fill:#ffffff;fill-opacity:1">
</g>
<g
   id="g2353"
   style="fill:#ffffff;fill-opacity:1">
</g>
<g
   id="g2355"
   style="fill:#ffffff;fill-opacity:1">
</g>
<g
   id="g2357"
   style="fill:#ffffff;fill-opacity:1">
</g>
<g
   id="g2359"
   style="fill:#ffffff;fill-opacity:1">
</g>
</svg>
