<?xml version="1.0" encoding="UTF-8" standalone="no"?>
<!-- Generator: Adobe Illustrator 19.0.0, SVG Export Plug-In . SVG Version: 6.00 Build 0)  -->

<svg
   version="1.1"
   id="Capa_1"
   x="0px"
   y="0px"
   viewBox="0 0 60 60"
   style="enable-background:new 0 0 60 60;"
   xml:space="preserve"
   sodipodi:docname="play-button-1.svg"
   inkscape:version="1.1.2 (0a00cf5339, 2022-02-04)"
   xmlns:inkscape="http://www.inkscape.org/namespaces/inkscape"
   xmlns:sodipodi="http://sodipodi.sourceforge.net/DTD/sodipodi-0.dtd"
   xmlns="http://www.w3.org/2000/svg"
   xmlns:svg="http://www.w3.org/2000/svg"><defs
   id="defs5681" /><sodipodi:namedview
   id="namedview5679"
   pagecolor="#ffffff"
   bordercolor="#666666"
   borderopacity="1.0"
   inkscape:pageshadow="2"
   inkscape:pageopacity="0.0"
   inkscape:pagecheckerboard="0"
   showgrid="false"
   inkscape:zoom="12.116667"
   inkscape:cx="13.658872"
   inkscape:cy="30"
   inkscape:window-width="1920"
   inkscape:window-height="985"
   inkscape:window-x="506"
   inkscape:window-y="1109"
   inkscape:window-maximized="1"
   inkscape:current-layer="Capa_1" />
<g
   id="g5646"
   transform="rotate(90,30,30)"
   style="fill:#ffffff;fill-opacity:1">
	<path
   d="m 45.563,29.174 -22,-15 C 23.256,13.966 22.86,13.943 22.532,14.116 22.205,14.289 22,14.629 22,15 v 30 c 0,0.371 0.205,0.711 0.533,0.884 C 22.679,45.962 22.84,46 23,46 c 0.197,0 0.394,-0.059 0.563,-0.174 l 22,-15 C 45.836,30.64 46,30.331 46,30 46,29.669 45.836,29.36 45.563,29.174 Z M 24,43.107 V 16.893 L 43.225,30 Z"
   id="path5642"
   style="fill:#ffffff;fill-opacity:1" />
	<path
   d="M 30,0 C 13.458,0 0,13.458 0,30 0,46.542 13.458,60 30,60 46.542,60 60,46.542 60,30 60,13.458 46.542,0 30,0 Z m 0,58 C 14.561,58 2,45.439 2,30 2,14.561 14.561,2 30,2 45.439,2 58,14.561 58,30 58,45.439 45.439,58 30,58 Z"
   id="path5644"
   style="fill:#ffffff;fill-opacity:1" />
</g>
<g
   id="g5648"
   transform="rotate(90)"
   style="fill:#ffffff;fill-opacity:1">
</g>
<g
   id="g5650"
   transform="rotate(90)"
   style="fill:#ffffff;fill-opacity:1">
</g>
<g
   id="g5652"
   transform="rotate(90)"
   style="fill:#ffffff;fill-opacity:1">
</g>
<g
   id="g5654"
   transform="rotate(90)"
   style="fill:#ffffff;fill-opacity:1">
</g>
<g
   id="g5656"
   transform="rotate(90)"
   style="fill:#ffffff;fill-opacity:1">
</g>
<g
   id="g5658"
   transform="rotate(90)"
   style="fill:#ffffff;fill-opacity:1">
</g>
<g
   id="g5660"
   transform="rotate(90)"
   style="fill:#ffffff;fill-opacity:1">
</g>
<g
   id="g5662"
   transform="rotate(90)"
   style="fill:#ffffff;fill-opacity:1">
</g>
<g
   id="g5664"
   transform="rotate(90)"
   style="fill:#ffffff;fill-opacity:1">
</g>
<g
   id="g5666"
   transform="rotate(90)"
   style="fill:#ffffff;fill-opacity:1">
</g>
<g
   id="g5668"
   transform="rotate(90)"
   style="fill:#ffffff;fill-opacity:1">
</g>
<g
   id="g5670"
   transform="rotate(90)"
   style="fill:#ffffff;fill-opacity:1">
</g>
<g
   id="g5672"
   transform="rotate(90)"
   style="fill:#ffffff;fill-opacity:1">
</g>
<g
   id="g5674"
   transform="rotate(90)"
   style="fill:#ffffff;fill-opacity:1">
</g>
<g
   id="g5676"
   transform="rotate(90)"
   style="fill:#ffffff;fill-opacity:1">
</g>
</svg>
