<?xml version="1.0" encoding="UTF-8" standalone="no"?>
<!-- Generator: Adobe Illustrator 19.0.0, SVG Export Plug-In . SVG Version: 6.00 Build 0)  -->

<svg
   version="1.1"
   id="Capa_1"
   x="0px"
   y="0px"
   viewBox="0 0 55 55"
   style="enable-background:new 0 0 55 55;"
   xml:space="preserve"
   sodipodi:docname="notification.svg"
   inkscape:version="1.1.2 (0a00cf5339, 2022-02-04)"
   xmlns:inkscape="http://www.inkscape.org/namespaces/inkscape"
   xmlns:sodipodi="http://sodipodi.sourceforge.net/DTD/sodipodi-0.dtd"
   xmlns="http://www.w3.org/2000/svg"
   xmlns:svg="http://www.w3.org/2000/svg"><defs
   id="defs4550"><clipPath
     clipPathUnits="userSpaceOnUse"
     id="clipPath25949"><path
       id="path25951"
       style="fill:#ff0000;fill-opacity:1;fill-rule:nonzero;stroke:none"
       d="M 0.5,0.609375 V 55 H 53.902344 V 0.609375 Z M 13.595703,4.59375 c 0.691258,-0.010721 1.438677,0.2637961 2.128906,0.8691406 0.03874,-0.00122 0.0481,-0.00122 0.125,-0.00391 0.10198,-0.00203 0.264244,-0.00728 0.425782,-0.00781 0.161537,-5.374e-4 0.322646,0.00495 0.421875,0.023437 0.07119,0.013266 0.140465,0.034204 0.210937,0.050781 0.360044,0.004 0.718287,0.046196 1.066406,0.1542969 0.277091,0.068976 0.562895,0.1069962 0.835938,0.1933594 0.335488,0.094113 0.689352,0.1201276 1.021484,0.2304687 0.04886,0.017431 0.09768,0.035146 0.146485,0.052734 0.107918,-7.842e-4 0.216296,-0.00303 0.324218,-0.00195 l 0.207032,-0.013672 c 0.0537,-0.017595 0.1066,-0.03667 0.160156,-0.054687 0.28742,-0.039722 0.575272,-0.083948 0.863281,-0.1191406 0.154975,-0.018941 0.3218,0.011593 0.478516,0.00195 0.300085,2.4e-5 0.601242,-0.023656 0.90039,0.011719 0.02983,0.00249 0.06388,-0.00709 0.08984,0.00781 0.01866,0.01071 -0.0435,0.00288 -0.06445,0.00781 -0.02326,0.00548 -0.09214,0.025778 -0.06836,0.023437 0.09819,-0.00965 0.195318,-0.032828 0.292968,-0.046875 0.493438,-0.07098 0.395612,-0.056464 0.851563,-0.099609 0.222887,-0.00763 0.445012,-0.018258 0.667969,-0.023437 0.0036,-8e-5 -0.0034,0.0053 -0.0059,0.00781 0.02648,0.00391 0.05165,0.00781 0.07813,0.011719 0.130717,-0.00984 0.260271,-0.033038 0.390625,-0.046875 0.653103,-0.069325 0.617927,-0.061912 1.236328,-0.1054687 0.279243,-0.01393 0.55654,-0.030646 0.835938,-0.041016 0.463905,-0.017218 0.930431,0.011963 1.394531,0 H 30.25 c 1.062646,2e-7 1.929325,0.1926511 2.626953,0.4980469 0.376757,-0.048631 0.754862,-0.090366 1.128906,-0.1542969 l 0.115235,-0.027344 c 0.500275,-0.2544611 1.116958,-0.4131132 1.845703,-0.4316406 0.09797,-0.00249 0.200925,0.00135 0.302734,0.00391 0.04417,-0.013238 0.08734,-0.030263 0.132813,-0.039063 0.219563,-0.042478 0.443495,-0.051408 0.667968,-0.050781 0.224475,6.266e-4 0.450338,0.00995 0.673829,0.00195 1.136433,-0.040651 1.608186,0.1527109 1.664062,0.4921875 0.202454,-3.94e-5 0.404977,-1.5e-5 0.607422,0 0.06327,1.38e-5 0.126183,1e-6 0.189453,0 h 0.375 c 0.410153,-0.00294 0.827918,0.014849 1.230469,0.097656 0.142094,0.02923 0.282879,0.063225 0.423828,0.097656 0.09282,-0.00606 0.161405,-0.00778 0.439453,-0.017578 0.166819,-0.00349 0.552275,0.010782 0.609375,0.00977 0.0087,-2.114e-4 0.01854,1.369e-4 0.02734,0 0.06765,-0.00106 0.08086,-3e-4 0.146484,0 0.01904,8.71e-5 0.07763,5.355e-4 0.05859,0 -0.6747,-0.016197 0.969622,0.386801 1.828133,0.7050829 C 45.25423,6.7889681 45.162898,6.71937 45.070312,6.6523438 44.587331,6.5298798 44.091435,6.4407572 43.642578,6.2285156 c -0.318186,-0.1504536 0.720686,0.037453 1.039063,0.1875 0.137842,0.064964 0.26527,0.1469871 0.388671,0.2363282 0.08625,0.021868 0.172724,0.04345 0.257813,0.068359 0.462578,0.3622151 0.467036,0.3381912 0.697266,0.5917969 -0.761086,-1.6191022 0.144352,-0.054726 0.585937,0.75 0.140609,0.1698825 0.247683,0.3666533 0.345703,0.5664062 0.415211,0.1355267 0.677335,0.5151664 0.832031,0.9960938 v 0.00195 c 0.0015,0.00453 0.0025,0.00913 0.0039,0.013672 0.0012,0.00395 0.0027,0.00775 0.0039,0.011719 0.0236,0.023782 0.05069,0.044607 0.07227,0.070312 0.391982,0.4670713 0.39798,0.5297223 0.615234,0.9765623 -5.01e-4,0.03192 -0.0032,0.06377 -0.0039,0.0957 0.01058,0.02093 0.02709,0.05324 0.03516,0.06836 7.91e-4,0.02467 -6.52e-4,0.04954 0,0.07422 0.0754,0.120133 0.13396,0.202183 0.169922,0.421875 0.06329,0.154938 0.09893,0.337985 0.162109,0.736328 0.02641,0.146335 0.05474,0.293072 0.08984,0.4375 0.02136,0.08787 -0.02465,-0.179341 -0.03125,-0.269531 -0.002,-0.02707 0.01398,0.05124 0.01758,0.07813 0.02906,0.214395 0.06111,0.42901 0.08008,0.644531 0.01778,0.20187 0.0039,0.418441 -0.0039,0.621094 -0.0016,0.01962 -0.0022,0.03898 -0.0039,0.05859 9.1e-4,-0.0077 -1.47e-4,0.01574 0,0.02344 9e-4,0.0472 0.0031,0.09342 0.0039,0.140625 1.8e-5,0.08587 -0.0017,0.171949 -0.002,0.257813 0.01907,0.112549 0.03511,0.343961 0.04492,0.720703 0.03427,0.236065 0.05575,0.473629 0.08008,0.710937 0.003,0.02877 0,0.05897 0,0.08789 2.3e-5,0.236252 2.5e-5,0.472731 0,0.708983 0.01673,0.157818 0.0194,0.291752 0.01367,0.417969 0.01806,0.133684 0.03663,0.266707 0.05469,0.400391 0.0052,0.167717 0.01042,0.260418 0.01172,0.351562 v 0.002 0.002 c 5.58e-4,0.002 0.0014,0.0039 0.002,0.0059 0.01116,0.03972 0.02243,0.07933 0.0332,0.11914 5.04e-4,0.0087 0.0031,0.02842 0.0039,0.03906 0.05234,0.217649 0.104071,0.43527 0.138671,0.65625 0.04749,0.303184 0.01385,0.641858 -0.0039,0.947265 -0.0066,0.04896 -4.7e-5,0.0085 -0.0059,0.04688 0.0094,0.0021 -0.0027,0.05241 -0.002,0.07422 9e-4,0.02446 0.0034,0.0478 0.0039,0.07227 0.0013,0.06184 2.01e-4,0.123697 0.002,0.185547 4e-4,0.167402 -0.0023,0.33455 -0.002,0.501953 5.56e-4,0.146821 3.5e-5,0.294584 0,0.441406 1.2e-5,0.14545 5e-6,0.290097 0,0.435547 -1.3e-5,0.329784 -0.0063,0.369827 -0.109375,0.882813 -0.0065,0.08396 -6.46e-4,0.01318 -0.01172,0.154295 -0.01285,0.08959 -0.0063,0.04784 -0.01172,0.08984 0.01066,0.197009 0.0073,0.394523 0.0078,0.591797 0.0106,0.410031 -0.0329,0.751791 -0.125,1.166016 0.0038,0.140937 -0.0077,0.244408 -0.05273,0.429687 0.01231,-0.111488 0.05747,-0.436314 0.03516,-0.328125 -0.02298,0.111411 -0.03832,0.223295 -0.05469,0.335938 -0.0032,0.03827 -0.005,0.07695 -0.0098,0.115234 -0.0027,0.02142 -0.0027,0.04303 -0.0059,0.06445 -0.02863,0.194319 -0.08356,0.384177 -0.125,0.576172 -0.0078,-0.0011 -0.01561,-0.0028 -0.02344,-0.0039 -0.0097,0.02537 -0.01504,0.03684 -0.0098,0.0059 3.67e-4,-0.002 0.0016,-0.0038 0.002,-0.0059 -0.198465,-0.02883 -0.398691,-0.04797 -0.597656,-0.07422 0.07118,0.239042 0.14357,0.477719 0.214844,0.716797 -0.0012,0.04038 -0.0027,0.08072 -0.0039,0.121094 0.0088,0.03326 0.01957,0.06605 0.02734,0.09961 0.05257,0.226943 0.04874,0.458763 0.03906,0.689453 0.02169,0.207793 0.04404,0.41659 0.05859,0.625 0.01671,0.239647 0.0066,0.446778 0,0.685547 -0.0066,0.08621 -0.01473,0.173436 -0.01953,0.259766 -0.0011,0.01912 0.0014,-0.03858 0.0078,-0.05664 0.0033,-0.0095 0.0018,0.0192 0.002,0.0293 6.6e-4,0.04934 -6.25e-4,0.0991 0,0.148437 0.0034,0.264898 0.0016,-0.05076 0.0039,0.376954 5.1e-5,0.0577 -0.05701,0.164928 0,0.173828 0.0142,0.0022 0.02237,-0.0044 0.02539,-0.01563 0.01681,0.138404 0.03418,0.277042 0.04492,0.416015 0.01723,0.223434 0.0033,0.454116 -0.0039,0.677735 -0.01873,0.258491 -0.0054,0.518277 -0.0039,0.777343 -4.39e-4,0.332735 -2.35e-4,0.665311 0,0.998047 -0.01379,0.159578 0.01939,0.32544 0,0.484375 -0.02118,0.173621 -0.04586,0.34633 -0.07031,0.519532 0.0042,0.152757 0.008,0.306214 0.01172,0.458984 0.0017,0.299611 -0.0017,0.598841 -0.0039,0.898437 -5.09e-4,0.0688 0.0045,0.138542 -0.002,0.207032 -0.02182,0.228303 -0.04516,0.455427 -0.06836,0.683593 -4.84e-4,0.0026 -0.0015,0.0052 -0.002,0.0078 0.0039,0.05089 0.008,0.101441 0.01172,0.152344 0.0027,0.237341 -0.0048,0.47555 -0.0039,0.71289 0.0013,0.281884 0.002,0.563817 0.002,0.845703 v 0.03516 c 0.502031,0.05882 0.701,0.506431 0.347656,1.654297 0.07819,0.186812 0.152736,0.375688 0.226563,0.564453 0.337632,0.446248 0.245306,0.568163 0.0918,1.802734 0.312415,1.503665 -0.231383,2.685625 -1.191406,3.228516 0.0149,0.006 0.03023,0.01281 0.04492,0.01953 0.01472,0.0067 0.02433,0.02313 0.03516,0.03516 0.0043,0.0048 0.05175,0.06058 0.06055,0.07227 0.01559,0.02062 0.03166,0.0416 0.04688,0.0625 0.05457,0.07203 0.0871,0.157187 0.115234,0.242188 0.0038,0.01142 0.007,0.02346 0.0098,0.03516 0.0062,0.02592 0.01218,0.05204 0.01758,0.07812 0.01032,0.05759 0.01097,0.115579 0.01367,0.173829 0.0011,0.02497 0.0025,0.04926 0.0039,0.07422 10e-4,0.01876 0.0027,0.03786 0.002,0.05664 -2.01e-4,0.0046 -0.0016,0.0091 -0.002,0.01367 0.156099,0.05424 0.216487,0.187062 0.171875,0.30664 0.112327,0.122015 0.07165,0.344251 -0.220703,0.472657 -0.0027,0.0012 -0.0052,0.0027 -0.0078,0.0039 0.03472,0.05478 0.03941,0.131267 0.02148,0.216797 0.0402,0.01558 0.07621,0.04107 0.09375,0.08789 0.03382,0.09031 0.01981,0.191782 0.0078,0.289063 0.0082,-0.01056 0.0174,-0.02057 0.02539,-0.03125 0.0022,-0.05105 -0.0064,-0.103416 0.0078,-0.152344 0.01328,-0.04608 -0.0015,0.09658 -0.002,0.144531 -0.0019,0.0026 -0.0039,0.0052 -0.0059,0.0078 -2.24e-4,0.0051 4.81e-4,0.01055 0,0.01563 -9e-4,0.0089 -0.0065,0.01819 -0.01172,0.02539 -0.0058,0.008 -0.01168,0.01547 -0.01758,0.02344 -2.22e-4,0.0019 2.16e-4,0.0039 0,0.0059 -0.0022,0.01917 -0.02101,0.03034 -0.03711,0.04297 -0.01063,0.01306 -0.02181,0.02667 -0.0332,0.03906 -0.0237,0.02577 -0.08997,0.04848 -0.113281,0.05859 -0.01121,0.0031 -0.02422,0.0058 -0.03516,0.0098 -0.0024,9.02e-4 0.009,-0.0023 0.0078,0 -0.0019,0.0035 -0.0062,0.0041 -0.0098,0.0059 -0.02459,0.01203 -0.04969,0.02301 -0.07422,0.03516 -0.0685,0.03798 -0.144863,0.04677 -0.220703,0.05859 -0.02474,0.0038 -0.0495,0.0077 -0.07422,0.01172 -0.07611,0.01249 -0.06825,0.01308 -0.15625,0.02148 -0.01877,0.0018 -0.03787,0.0021 -0.05664,0.0039 -0.01506,0.0015 -0.02992,0.0039 -0.04492,0.0059 -0.0093,0.0013 -0.01804,0.0031 -0.02734,0.0039 -0.02583,0.0023 -0.05223,0.0043 -0.07813,0.0059 -0.08278,0.0016 -0.165997,-0.0083 -0.248047,-0.01758 -0.03931,-0.0037 -0.07771,-0.0085 -0.117188,-0.0098 -0.05374,-0.0017 -0.108379,9.06e-4 -0.162109,0.002 -0.04379,10e-4 -0.04933,0.0013 -0.101563,-0.0039 -0.01561,-0.0016 -0.03164,-0.004 -0.04687,-0.0078 -0.02262,-0.0056 -0.04454,-0.01153 -0.06641,-0.01953 -0.0066,-0.0024 -0.01326,-0.0047 -0.01953,-0.0078 -0.0092,-8.63e-4 -0.01172,-0.0021 -0.01758,-0.0039 -0.0053,3.69e-4 -0.01033,0.0018 -0.01563,0.002 -0.0266,8.25e-4 -0.0535,4.86e-4 -0.08008,0 -0.01159,0.01624 -0.0017,0.0021 -0.05859,0.0059 -0.01837,0.0012 -0.05521,3.82e-4 -0.07227,0 -0.03043,-7e-4 -0.01803,-0.0025 -0.03516,0.002 -0.06927,0.01 -0.139314,0.0045 -0.208984,0.0039 -0.0551,7.2e-5 -0.110916,8.1e-5 -0.166016,0 -0.05108,-1.41e-4 -0.101264,-1.5e-5 -0.152344,0 -0.0051,0 -0.01053,3.85e-4 -0.01563,0 -0.0196,-0.0015 -0.03911,-0.0032 -0.05859,-0.0059 -0.03117,-0.0043 -0.05598,-0.01267 -0.08594,-0.02344 -0.02398,-0.0086 -0.03364,-0.01762 -0.02148,-0.0078 -0.01628,-0.0034 -0.03243,-0.0068 -0.04883,-0.0098 -0.03565,0.02101 -0.06873,0.02198 -0.09375,-0.01172 -0.04243,-0.05715 -0.07312,-0.111048 -0.09375,-0.16211 -0.07397,0.05311 -0.128144,0.06487 -0.132813,-0.03906 -0.01627,-0.0014 -0.02786,-0.0022 -0.04297,-0.0039 -0.0012,0.01044 -0.0031,0.03542 -0.0039,0.03906 -9.11e-4,-0.0023 -0.0011,-0.02915 -0.002,-0.04102 -0.01889,-0.0022 -0.04094,-0.0041 -0.05469,-0.0059 -0.01143,-0.0015 -0.02386,-0.0036 -0.03516,-0.0059 v -0.002 c -0.48598,-0.0972 -0.442792,-0.550244 -0.03125,-0.554688 0.01033,-1.12e-4 0.0223,-4.43e-4 0.0332,0 10e-4,-0.02076 0.0031,-0.01842 0.0039,-0.04102 9.3e-5,-0.0027 0.0361,-0.0052 0.0625,-0.0059 0.0011,-0.02218 9.06e-4,-0.03545 0.002,-0.05078 -0.0229,-0.04803 -0.02407,-0.06064 -0.0332,-0.101563 -0.04411,-0.198491 0.002,-0.340262 0.08398,-0.412109 -0.04212,-0.09321 -0.06614,-0.194091 -0.09961,-0.291016 0.0132,-0.02443 0.0284,-0.04753 0.04102,-0.07227 -0.003,0.0029 -0.0067,0.005 -0.0098,0.0078 0.0046,-0.0064 0.01711,-0.02463 0.01367,-0.01758 -0.0016,0.0032 -0.0023,0.0066 -0.0039,0.0098 0.01338,-0.01271 0.02588,-0.02611 0.03906,-0.03906 -0.03834,-0.02014 -0.08217,-0.04363 -0.101563,-0.05859 -0.01749,-0.0135 -0.03268,-0.02976 -0.04883,-0.04492 -0.13564,-0.0075 -0.295222,-0.116305 -0.435547,-0.142578 -1.882935,-0.352525 -1.838402,-0.959495 -1.082031,-1.660156 -0.223362,-0.231951 -0.443727,-0.491328 -0.660156,-0.78125 -0.08665,-0.116076 -0.155321,-0.208058 -0.216797,-0.294922 -0.02063,0.02951 -0.06735,0.09602 -0.08398,0.119141 0.02246,0.08612 0.04763,0.171214 0.06641,0.257812 0.06853,0.126586 0.142254,0.25117 0.199219,0.382813 0.05456,0.126108 -0.130263,-0.242248 -0.195313,-0.363281 -0.0014,-0.0065 -0.0025,-0.01306 -0.0039,-0.01953 -0.03758,-0.06943 -0.07276,-0.140012 -0.101563,-0.21289 -0.156135,0.199996 -0.173238,0.09085 -0.173828,-0.488281 1.07e-4,-0.01937 -1.37e-4,-0.03922 0,-0.05859 1.12e-4,-0.01592 -1.27e-4,-0.03095 0,-0.04687 3.23e-4,-0.03974 0.0012,-0.03117 0.002,-0.0332 -7.05e-4,-0.01166 0.0015,0.0053 0,-0.03125 -0.0034,-0.01823 -0.0028,-0.03656 -0.0059,-0.05469 -0.06077,-0.15444 -0.123834,-0.3444 -0.205078,-0.611328 -0.0091,-0.02983 -0.01605,-0.05965 -0.02344,-0.08984 -3.328033,-2.142345 -2.661209,-5.387167 0.04492,-5.851562 0.01181,-0.182418 0.02875,-0.365643 0.0625,-0.544922 0.0024,-0.324661 0.0023,-0.144042 0.0039,-0.548828 2.83e-4,-0.07227 -8.3e-5,-0.144527 0,-0.216797 0.01347,-0.351419 -0.05869,-0.702899 0,-1.054688 0.01503,-0.09011 0.03788,-0.178595 0.05859,-0.267578 0.0013,-0.07704 0.004,-0.1586 0,-0.214843 -2e-4,-0.323665 -7.68e-4,-0.647041 0,-0.970704 -0.0014,-0.353315 -0.01473,-0.707694 0.0098,-1.060546 0.0089,-0.114807 -8.6e-5,-0.06283 0.01172,0 0.01108,0.05906 0.04776,0.237194 0.03906,0.177734 -0.0556,-0.381979 -0.147557,-0.751908 -0.123047,-1.146484 -0.0014,-0.34808 -0.003,-0.693486 0.01172,-1.041016 -3.26e-4,0.0051 -0.0013,0.0065 -0.002,0.0098 0.0014,-0.03169 0.0055,-0.125435 0.0039,-0.09375 -0.0014,0.02807 -6.1e-5,0.05595 -0.002,0.08398 0.0013,-0.02028 0.0015,-0.05097 0.0078,-0.03906 0.01348,0.02552 0.02879,0.110722 0.02539,0.08203 -0.0368,-0.308217 -0.111285,-0.615905 -0.117188,-0.927735 v -0.002 c -0.01368,-0.05686 -0.02433,-0.126567 -0.03516,-0.238281 -0.0022,-0.0065 -0.0035,-0.0087 -0.0059,-0.01563 -0.07432,-0.231398 -0.03476,-0.104704 -0.07227,-0.228516 -0.0067,-0.02204 -0.01975,-0.04338 -0.01953,-0.06641 -0.0104,-0.02466 -0.02096,-0.04951 -0.03125,-0.07422 -0.01138,-0.02917 -0.02574,-0.05732 -0.03906,-0.08594 -0.05996,-0.08991 -0.119746,-0.180307 -0.177735,-0.271485 -0.03192,-0.05019 -0.05878,-0.102418 -0.08789,-0.154296 -0.03885,-0.07206 -0.07954,-0.14413 -0.117187,-0.216797 -0.178868,-0.256047 -0.355686,-0.51447 -0.480469,-0.802735 -1.436483,-3.318476 -0.221275,-5.59938 1.585938,-5.816406 1.85e-4,-0.07162 -6.4e-4,-0.143956 0,-0.203125 7e-4,-0.04716 -8.98e-4,-0.09371 0.0039,-0.140625 0.02039,-0.194101 0.03998,-0.388965 0.06836,-0.582031 -0.0046,-0.157349 -0.0062,-0.313614 -0.0059,-0.472657 -0.0016,-0.163208 -0.0021,-0.327013 -0.002,-0.490234 -0.003,-0.05793 -0.0013,-0.112342 0,-0.167969 4e-6,-0.0039 -4e-6,-0.0078 0,-0.01172 v -0.002 c -0.02225,-0.177314 -0.04122,-0.355545 -0.06055,-0.533204 -0.0027,-0.02458 -2.6e-5,-0.04949 0,-0.07422 -2e-4,-0.190251 -0.01277,-0.38016 -0.0039,-0.570313 9.5e-4,-0.02078 0.0028,-0.04173 0.0039,-0.0625 -0.03957,-0.221708 -0.07056,-0.444199 -0.06445,-0.669922 1.6e-5,-0.146637 4.7e-5,-0.292815 0,-0.439453 -0.01424,-0.179584 -0.01557,-0.336737 -0.01172,-0.501953 -0.422213,-0.220828 -0.66614,-0.720912 -0.789062,-1.306641 -0.130618,-0.03489 -0.23807,-0.06792 -0.59375,-0.191406 -0.03633,-0.01261 -0.07188,-0.02807 -0.107422,-0.04297 -0.01924,-0.0031 -0.03985,-0.0062 -0.05859,-0.0098 0.01672,0.0066 0.03938,0.01699 0.05078,0.02148 0.02689,0.0106 0.112925,0.01978 0.08398,0.02148 -0.09049,0.0054 -0.180915,-0.0078 -0.271485,-0.01172 -0.330765,-0.01075 -0.27176,-0.0043 -0.730469,-0.04687 -0.106386,-0.0099 -0.211724,-0.03041 -0.318359,-0.03711 -0.03709,-0.0024 -0.07421,0.0081 -0.111328,0.0098 -0.17551,0.0081 -0.349729,0.0063 -0.525391,0.0098 -0.07884,0.0021 -0.157468,0.0064 -0.236328,0.0078 -0.134566,0.0024 -0.269816,8.9e-5 -0.404297,0 -0.103473,0.02413 -0.196046,0.0327 -0.673828,0.07813 -1.207871,0.114829 -1.703647,-0.0841 -1.773437,-0.46875 -0.114774,0.01167 -0.228279,0.02946 -0.34375,0.03711 -0.0091,5.98e-4 0.01689,-0.0064 0.02539,-0.0098 0.1986,-0.112282 0.01226,-0.0018 -0.404296,0.0918 -0.744155,0.16729 -1.502757,0.245793 -2.257813,0.345703 -0.413619,0.04581 -0.821774,0.09092 -1.238281,0.09961 h -0.002 c -2.019214,0.504804 -3.527688,0.151612 -4.416016,-0.59375 -0.141341,-9.78e-4 -0.282883,-0.0058 -0.423828,0 -0.163679,0.0068 -0.326763,0.02054 -0.490235,0.03125 -0.505762,0.03635 -0.4508,0.0275 -0.96289,0.08399 -0.08289,0.0091 -0.164857,0.02545 -0.248047,0.03125 -0.222262,0.01546 -0.445212,0.0289 -0.667969,0.0332 -0.488936,0.0095 -0.302791,-0.0785 -0.470703,0.0078 -0.392636,0.06347 -0.778218,0.110933 -1.177734,0.126953 -0.243829,0.0098 -0.463106,-0.0087 -0.703125,-0.02344 -0.01302,-0.0011 -0.02605,-0.0027 -0.03906,-0.0039 0.0019,-1.2e-4 -0.0069,1.46e-4 -0.0059,0 -0.13256,0.0078 -0.267884,0.0047 -0.400391,0.0059 -0.0629,-0.005 -0.154186,-0.0033 -0.240234,-0.002 -0.222627,0.05044 -0.446857,0.0973 -0.671875,0.134765 -0.0023,7.24e-4 -0.03887,0.01167 -0.03906,0.01172 -0.357549,0.0892 -0.73811,0.04927 -1.099609,0.02149 -0.04994,-0.0039 0.100561,0.01032 0.150391,0.01563 -0.168559,0.0061 -0.347666,0.0062 -0.519532,0.0059 -0.07021,10e-4 -0.13928,-0.0064 -0.208984,-0.0098 0.101779,0.09759 0.202232,0.193657 0.310547,0.294922 -0.414158,0.03585 -0.498336,0.06462 -0.863281,0.03906 -0.147723,-0.01035 -0.589124,-0.04035 -0.441407,-0.05078 0.04394,-0.0031 0.17484,-0.0014 0.13086,-0.0039 -0.10803,-0.0061 -0.216034,-0.004 -0.324219,-0.0059 -0.155897,-0.01547 -0.310914,-0.03127 -0.466797,-0.04687 0.02514,0 0.101338,-0.0087 0.07617,-0.0098 -0.113548,-0.0048 -0.228207,0.0017 -0.341797,-0.002 -0.04587,-0.0015 -0.05205,-0.0026 -0.08984,-0.0039 -0.893506,0.594398 -1.969009,0.506155 -2.919921,0.210937 0.201859,0.04864 0.438188,0.08973 0.716796,0.123047 0.07363,0.0088 0.744812,0.10476 0.769532,0.0332 0.05466,-0.158119 0.09031,-0.294183 0.138672,-0.445312 -0.200019,5.47e-4 -0.399868,0.0077 -0.59961,0.002 -0.406869,-0.01177 -0.78537,-0.04968 -1.138672,-0.111328 -0.01045,0.142911 -0.02838,0.237756 -0.07617,0.259766 0.08444,0.02727 0.168451,0.05513 0.25,0.08984 0.165707,0.07054 -0.352669,-0.07031 -0.529296,-0.105469 0.02818,0.01266 0.05492,0.02697 0.08594,0.03906 -0.13553,-0.03965 -0.18812,-0.05547 -0.08789,-0.03906 -0.0922,-0.04151 -0.169183,-0.08746 -0.232422,-0.134765 -0.178212,-0.05085 -0.354962,-0.105463 -0.521484,-0.185547 -0.260721,-0.125387 -0.47932,-0.326661 -0.691406,-0.523438 -0.01488,-0.0138 -0.02644,-0.03081 -0.04102,-0.04492 -0.174571,-0.101621 -0.335507,-0.211772 -0.482422,-0.328125 -0.01161,-0.0033 -0.02348,-0.0051 -0.03516,-0.0078 -0.01312,-0.01758 -0.02566,-0.03544 -0.03906,-0.05273 -0.338332,-0.282245 -0.591061,-0.602761 -0.773438,-0.939453 -0.180863,0.27314 -0.31501,0.145674 -0.43164,-0.113282 -0.18619,0.110485 -0.443157,0.12796 -0.726563,0.0098 -0.04235,0.0088 -0.078885,-0.0016 -0.1191406,0 -0.21438,0.409077 -0.8126423,0.457707 -1.3261719,-0.123047 C 8.44176,10.116227 8.4096778,10.040306 8.3222656,9.859375 c -0.00465,1.16e-4 -0.00899,-1.243e-4 -0.013672,0 -0.021071,5.599e-4 -0.0172,-0.028449 -0.013672,-0.056641 -0.062117,-0.052532 -0.103361,-0.1714734 -0.109375,-0.4042969 -6.275e-4,-0.024143 -0.00105,-0.048132 0,-0.072266 -1.317e-4,-0.00136 1.235e-4,-0.00258 0,-0.00391 3.888e-4,-0.00672 -3e-7,-0.00723 0,-0.00391 -0.0014,-0.015786 5.332e-4,-0.029662 0,-0.042969 -0.013614,-0.049607 -0.027168,-0.098847 -0.041016,-0.1484375 -0.021169,-0.082446 -0.024823,-0.09536 -0.027344,-0.1835937 -0.00497,-0.036373 -0.026817,-0.1423839 -0.015625,-0.1074219 0.00947,0.029594 0.011923,0.060789 0.015625,0.091797 -3.723e-4,-0.014591 -0.00155,-0.033644 -0.00195,-0.052734 -0.00654,-0.022012 -0.012989,-0.044394 -0.019531,-0.066406 -5.414e-4,-0.00151 4.465e-4,-0.00259 0,-0.00391 l -0.00195,-0.00195 c -3.825e-4,-0.00119 3.722e-4,-0.00271 0,-0.00391 -0.00125,-0.00325 -0.00265,-0.00652 -0.00391,-0.00977 -0.00827,-0.021369 -0.017214,-0.043048 -0.025391,-0.064453 -8.472e-4,-0.00352 -0.00112,-0.00448 -0.00195,-0.00781 -0.00661,-0.01058 -0.013,-0.020625 -0.019531,-0.03125 -0.02851,-0.05476 -0.046964,-0.11303 -0.0625,-0.171875 C 7.9144626,8.3752829 7.8807876,8.2924872 7.8613329,8.107408 V 8.105458 C 7.8430929,8.06957 7.8244699,8.034119 7.8066459,7.9980361 c -0.00312,-0.1624986 -0.00948,-0.1652666 0,-0.2421875 6.49e-5,-0.00195 0.00185,-0.00372 0.00195,-0.00586 3.209e-4,-0.00252 -3.549e-4,-0.00512 0,-0.00781 -0.00162,-0.036003 -0.00206,-0.071393 -0.00195,-0.1074219 5.162e-4,0.022476 0.00194,0.040982 0.00391,0.056641 -0.00197,-0.036358 -0.00379,-0.073072 -0.00391,-0.1113281 v -0.00586 c -1.43e-5,-0.0064 -9.9e-5,-0.046874 0,-0.046875 0.1602752,-0.00225 0.3025663,-0.00876 0.4316406,-0.019531 3.508e-4,-0.00256 -3.516e-4,-0.00525 0,-0.00781 0.00131,-0.00955 0.00629,-0.018354 0.00977,-0.027344 0.00311,-0.00804 0.00895,-0.014858 0.00977,-0.023437 0.003,-0.031557 0,-0.064004 0,-0.095703 0,-0.773398 0.390625,-1.1582031 0.78125,-1.1582031 0.2575705,0 0.5145726,0.1682065 0.6601563,0.5039063 0.065794,-0.027321 0.1322355,-0.053723 0.203125,-0.054688 0.1442532,-0.00196 0.2923222,0.051506 0.4277342,0.1601563 0.0549,-0.090568 0.119917,-0.1734514 0.226563,-0.2011719 0.249645,-0.064889 0.401279,-0.09816 0.511718,-0.099609 -0.0035,-0.00376 -0.0038,-0.00613 0.002,-0.00586 0.0046,2.112e-4 0.01796,0.00545 0.02734,0.00781 0.0422,0.00179 0.07847,0.00939 0.113282,0.021484 0.376606,-1.2149693 1.312981,-1.9169709 2.384765,-1.9335938 z m -2.498047,1.9121094 c -0.0096,-4.073e-4 -0.019,-0.00209 -0.0293,-0.00195 0.0023,0.0024 0.005,0.00549 0.01172,0.00977 0.03688,0.02364 0.07969,0.036039 0.119141,0.054687 0.0023,-0.00762 0.0036,-0.015856 0.0059,-0.023437 -0.03668,-0.012818 -0.08613,-0.03369 -0.107422,-0.039063 z m 2.691406,6.0234376 c 0.115801,0.03304 0.231878,0.06632 0.347657,0.09961 -0.08559,-0.05673 -0.258343,-0.213364 -0.423828,-0.361328 -0.0433,-0.01233 -0.08465,-0.02598 -0.126953,-0.03906 0.02718,0.108394 0.08281,0.210782 0.203124,0.300781 z m 31.572266,33.732422 c 0.02664,0.0023 0.05417,0.0033 0.07422,0.0039 0.01553,4.35e-4 0.03135,0.0018 0.04687,0.002 -0.0086,-0.0261 -0.01401,-0.05032 -0.01758,-0.07422 -0.02928,6.39e-4 -0.05886,0.0015 -0.08789,0.002 -0.0054,-3e-5 -0.009,2.5e-4 -0.01367,0 -0.0022,0.02569 -0.0028,0.04815 -0.002,0.06641 z m 0.121094,0.0059 c 0.0036,0.01093 0.0072,0.02191 0.01172,0.0332 0.01423,-0.01022 0.02952,-0.02038 0.04492,-0.0332 -0.01877,1.26e-4 -0.03788,1.84e-4 -0.05664,0 z m 3.640625,-7.304687 c -0.01483,-0.0196 -0.04016,-0.05086 -0.05664,-0.07227 l 0.140625,0.386719 c 0.0072,-0.02943 0.01837,-0.05951 0.0078,-0.08398 -0.03234,-0.076 -0.06163,-0.153343 -0.0918,-0.230468 z m -0.05664,-0.07227 -0.173828,-0.482422 c -0.01725,0.05573 -0.03677,0.114775 -0.05664,0.173828 0.07767,0.102607 0.173289,0.234313 0.230468,0.308594 z m 0.136719,-21.404297 c -0.0015,-0.01299 -0.0021,-0.02612 -0.0039,-0.03906 -0.0067,-0.04814 -0.04896,-0.188195 -0.03906,-0.140625 0.01259,0.06039 0.02904,0.119561 0.04297,0.179687 z m -0.517578,-6.126953 c -0.03303,-0.08086 -0.07284,-0.164514 -0.132813,-0.28125 -0.01309,-0.02415 -0.02309,-0.04951 -0.03516,-0.07422 3.69e-4,0.01689 -3.14e-4,0.03389 0,0.05078 0.04871,0.102206 0.105051,0.222839 0.138672,0.285156 0.0089,0.06127 0.01845,0.122316 0.02734,0.183594 0.008,6.31e-4 0.0165,0.0029 0.02344,0.0078 -0.0064,-0.06699 -0.01345,-0.1228 -0.02148,-0.171875 z m 0.02148,0.171875 c 0.002,0.02129 0.004,0.04885 0.0059,0.07227 0.01825,0.04581 0.0078,0.02026 0.04883,0.123046 -0.01515,-0.122438 -0.03273,-0.179692 -0.05469,-0.195312 z m 0.0059,0.07227 c -0.01015,-0.02548 -0.02295,-0.05733 -0.02734,-0.06836 6.62e-4,0.0046 0.0013,0.0091 0.002,0.01367 0.01128,0.02911 0.01574,0.04501 0.02539,0.07031 -4e-4,-0.0051 4.06e-4,-0.01059 0,-0.01563 z m 0,0.01563 c 0.0038,0.04843 0.0085,0.08825 0.01172,0.146484 8.5e-4,0.01559 -6.24e-4,0.03126 0,0.04687 0.02229,0.153836 0.04597,0.307116 0.06836,0.460938 -1.32e-4,-0.03454 0.0015,-0.06907 0,-0.103516 -6.27e-4,-0.0072 -0.0036,-0.01423 -0.0039,-0.02148 -4.1e-4,-0.01 0.0013,-0.0137 0.002,-0.01563 v -0.002 c -0.0086,-0.165142 -0.01608,-0.287638 -0.02539,-0.375 -0.0062,-0.01894 -0.03381,-0.08712 -0.05273,-0.136718 z m 0.01172,0.193359 c -0.01274,-0.0879 -0.02435,-0.175771 -0.03711,-0.263672 -0.0041,-0.01059 -0.0055,-0.01455 -0.0098,-0.02539 -0.03726,-3.9e-4 -0.0853,0.01541 -0.154296,-0.08399 0.0012,0.537254 -0.0026,1.073951 0.04492,1.607422 0.03594,-0.134501 0.07639,-0.284868 0.0918,-0.369141 0.05197,-0.284296 0.07601,-0.576333 0.06445,-0.865234 z m -0.03906,-0.277344 c -5.69e-4,-0.0039 -0.0014,-0.0078 -0.002,-0.01172 -0.0012,-9.6e-5 -0.0027,3.3e-5 -0.0039,0 6.13e-4,0.0015 0.0051,0.0098 0.0059,0.01172 z m -0.167969,-0.53125 c -4.82e-4,-0.0221 -0.0014,-0.04432 -0.002,-0.06641 -0.01331,-0.02121 -0.02235,-0.03857 -0.03711,-0.06445 -4.23e-4,0.01499 -0.0015,0.02993 -0.002,0.04492 0.01328,0.02905 0.02703,0.05729 0.04102,0.08594 z M 47.796875,9.6523438 c -0.04171,-0.042024 -0.08231,-0.085728 -0.126953,-0.125 0.04382,0.041615 0.09522,0.088585 0.123047,0.1132812 0.01205,0.010693 -0.02211,-0.024646 -0.0293,-0.039063 -0.0024,-0.00478 0.0079,0.00473 0.01367,0.00977 -0.156765,-0.1963535 -0.308268,-0.3978911 -0.472656,-0.5878906 -0.07755,-0.089628 -0.16855,-0.1677761 -0.253907,-0.25 -0.01362,-0.013125 -0.02734,-0.026001 -0.04102,-0.039063 0.05762,0.1224052 0.113847,0.2425184 0.169922,0.3613281 0.09028,0.1021597 0.17627,0.2086167 0.257812,0.3183594 0.168249,0.165322 0.308934,0.3266346 0.429688,0.5 -0.01986,-0.090166 -0.044,-0.1769913 -0.07031,-0.2617187 z M 47.009766,8.734375 c -0.01676,-0.035599 -0.03536,-0.070063 -0.05273,-0.1054688 -0.02593,-0.00846 -0.05297,-0.01494 -0.08008,-0.021484 0.04459,0.04206 0.08845,0.084587 0.132813,0.1269531 z M 15.742188,5.4785156 c 0.01081,0.00958 0.02047,0.021506 0.03125,0.03125 0.31387,0.081752 0.624881,0.1838081 0.947265,0.2089844 0.211446,0.016513 -0.101125,-0.054754 -0.445312,-0.1289062 -0.179499,0.00144 -0.191042,-0.00133 -0.08789,-0.017578 -0.156906,-0.033259 -0.3307,-0.072779 -0.425781,-0.091797 -0.0065,-0.0013 -0.01305,-10e-4 -0.01953,-0.00195 z m 1.621093,0.15625 c 0.117324,0.03101 0.234922,0.062563 0.353516,0.087891 0.08046,0.017184 -0.150532,-0.072078 -0.232422,-0.080078 -0.04572,-0.00447 -0.07697,-0.00404 -0.121094,-0.00781 z m 2.730469,0.5605469 v 0.00195 c 0.0014,-4.717e-4 0.0025,-0.00148 0.0039,-0.00195 -0.0013,1.765e-4 -0.0026,-1.803e-4 -0.0039,0 z m -0.03906,0.00781 c -0.0273,0.00484 -0.05527,0.00628 -0.08203,0.013672 -0.191677,0.05296 -0.638131,0.2024422 -0.785156,0.2617187 0.0051,0.00123 0.02215,0.00363 0.0332,0.00586 0.288927,-0.073897 0.56759,-0.1811085 0.849609,-0.2792969 -0.0057,-0.00121 -0.01028,-9.395e-4 -0.01562,-0.00195 z m 0.148437,0.03125 c 0.0047,0.00166 0.009,0.0042 0.01367,0.00586 v -0.00195 c -0.0045,-0.00134 -0.0091,-0.0026 -0.01367,-0.00391 z m 0.103516,0.033203 c -0.002,5.788e-4 -0.0039,0.00137 -0.0059,0.00195 0.02932,0.010312 0.05852,0.021103 0.08789,0.03125 0.02782,0.00961 -0.03686,-0.015784 -0.08203,-0.033203 z m -1.113282,0.2207031 c -0.01237,5.228e-4 -0.02474,0.00132 -0.03711,0.00195 h -0.002 c -0.03677,0.016118 -0.03445,0.021895 0.03125,0.00586 0.0074,-0.00181 0.01409,-0.00595 0.02148,-0.00781 -0.0045,-4.98e-5 -0.0091,-1.929e-4 -0.01367,0 z m 26.15625,0.5917969 c -0.0014,0.00684 0.01062,0.022546 0.04102,0.048828 0.251648,0.2175996 0.547748,0.3787694 0.818359,0.5722657 -0.006,-0.011199 -0.01151,-0.022007 -0.01758,-0.033203 C 46.0574,7.4206637 45.359217,7.032229 45.349613,7.0800755 Z m -35.179687,0.025391 c -0.03121,0.00208 -0.06285,0.00509 -0.09375,0.00586 -0.02506,6.27e-4 -0.098371,0.00896 -0.07422,0.015625 0.05111,0.014095 0.102785,0.028729 0.154297,0.041016 0.005,-0.0207 0.007,-0.042284 0.01367,-0.0625 z m 36.068359,0.4746093 c -0.0023,0.0035 -0.0011,0.012405 0.0059,0.03125 0.0215,0.057899 0.04744,0.1145447 0.07031,0.171875 0.03851,0.02993 0.07847,0.057702 0.115235,0.089844 0.04627,0.040452 0.09005,0.083885 0.130859,0.1289062 -0.0036,-0.00563 -0.006,-0.012013 -0.0098,-0.017578 -0.07838,-0.1168707 -0.296584,-0.4288289 -0.3125,-0.4042969 z M 7.8886719,8.1621094 C 7.9141269,8.2322894 7.9412156,8.3036231 7.9628906,8.375 7.9747026,8.394548 7.986839,8.4129876 8,8.4316406 c 0.00956,0.013552 0.034681,0.045997 0.042969,0.052734 l 0.00195,-0.00195 C 8.0157306,8.4170678 7.985113,8.3511381 7.953125,8.2871094 7.932192,8.2452084 7.909956,8.2038454 7.8886719,8.1621094 Z m 0.1484375,0.4765625 c 0.00107,0.00417 0.00769,0.019604 0.015625,0.039063 -0.00882,-0.029057 -0.017344,-0.045789 -0.015625,-0.039063 z m 0.058594,0.1328125 c 0.00536,0.011236 0.00735,0.016487 0.013672,0.029297 0.0014,0.00285 0.0055,0.00783 0.00781,0.011719 7.78e-5,-0.0019 -9.96e-5,-0.00387 0,-0.00586 -0.00716,-0.011699 -0.014223,-0.023517 -0.021484,-0.035156 z m 0.03125,0.052734 c -1.074e-4,0.00194 1.114e-4,0.00392 0,0.00586 0.00854,0.01292 0.016922,0.023539 0.021484,0.029297 -0.00687,-0.011872 -0.0144,-0.023404 -0.021484,-0.035157 z m -0.00391,0.076172 c -5.842e-4,0.019445 -0.00123,0.039193 0,0.058594 0.00138,0.00576 0.00191,0.011975 0.00391,0.017578 0.00849,0.023886 0.01731,0.047033 0.027344,0.070312 0.00476,0.011038 0.016646,0.036754 0.021484,0.044922 -0.016509,-0.06431 -0.033903,-0.1277247 -0.052734,-0.1914063 z M 47.205078,9.1484375 c 0.0027,0.00569 0.0051,0.011912 0.0078,0.017578 0.0082,0.021586 0.01426,0.044375 0.02148,0.066406 0.0091,0.00659 0.01829,0.012916 0.02734,0.019531 -0.0064,-0.025726 0.04661,0.027332 0.0039,-0.025391 -0.01395,-0.017289 -0.03826,-0.049043 -0.06055,-0.078125 z m 0.0332,0.095703 c 0.02324,0.071654 0.04724,0.1437498 0.08398,0.2089844 0.03216,0.056929 -0.0321,-0.1043307 -0.05469,-0.1816406 -0.0099,-0.00897 -0.0193,-0.018507 -0.0293,-0.027344 z M 47.3457,9.423828 c 0.139948,0.1626086 0.287035,0.3198321 0.431641,0.4785157 -0.004,-0.0083 -0.0072,-0.017567 -0.01172,-0.025391 -0.0689,-0.090115 -0.13839,-0.1803659 -0.210937,-0.2675781 -0.04489,-0.053962 -0.101807,-0.094019 -0.154297,-0.140625 -0.01751,-0.015545 -0.06996,-0.062667 -0.05469,-0.044922 z m -12.146481,2.007813 c 0.07576,0.05501 0.181793,0.100057 0.314453,0.134765 -0.10848,-0.04304 -0.212434,-0.08855 -0.314453,-0.134765 z m 3.99414,0.792968 c -0.200724,0.05067 -0.206443,0.05254 -0.285156,0.07422 0.0052,-3.95e-4 0.01037,-0.0016 0.01563,-0.002 0.0895,-0.02418 0.359421,-0.09496 0.269531,-0.07227 z m -6.886718,0.232422 c -0.08307,0.01147 -0.162869,0.0398 -0.244141,0.06055 -0.0067,-7.02e-4 0.07354,-0.0051 0.109375,-0.01367 0.04612,-0.0111 0.181756,-0.05344 0.134766,-0.04687 z m 10.496093,0.929688 c 2e-5,0.002 -2e-5,0.0039 0,0.0059 0.0016,0.005 0.0023,0.0087 0.0039,0.01367 l 0.002,0.002 c 0.0059,0.0082 0.0097,0.01337 0.01563,0.02149 -0.0023,-0.0044 -0.0036,-0.0092 -0.0059,-0.01367 -0.0055,-0.01 -0.01029,-0.0198 -0.01563,-0.0293 z m 0.0059,0.02148 c 0.0093,0.02889 0.01625,0.05086 0.02539,0.07813 0.0012,0.002 0.0028,0.0038 0.0039,0.0059 1.17e-4,-0.0087 1.72e-4,-0.01518 0,-0.02539 -0.01537,-0.03134 -0.0181,-0.03631 -0.0293,-0.05859 z m 0.0293,0.05859 c 0.05287,0.10781 0.103989,0.213477 0.101562,0.201172 -0.03097,-0.07096 -0.06634,-0.139774 -0.101562,-0.208985 8.2e-5,0.0033 -5.3e-5,0.0047 0,0.0078 z m 0,-0.0078 c -6.2e-5,-0.0025 0.002,-0.0033 0.002,-0.0059 -0.004,-0.0074 -0.0078,-0.01245 -0.01172,-0.01953 0.0041,0.0081 0.0057,0.01731 0.0098,0.02539 z m 0.01563,2.279297 c 0.0018,0.01521 -7.97e-4,0.0163 0.002,0.0332 0.0032,0.02712 0.0082,0.03986 0.01758,0.08008 v -0.0078 c -0.0076,-0.03489 -0.0122,-0.07045 -0.01953,-0.105469 z m 0.105468,1.923828 c -0.0026,0.0053 -0.0053,0.01028 -0.0078,0.01563 0.0025,0.03761 0.0057,0.04719 0.01172,0.01172 -6.59e-4,-0.0045 -0.0013,-0.0091 -0.002,-0.01367 -5.61e-4,-0.0039 -0.0014,-0.0097 -0.002,-0.01367 z m -0.07031,0.433594 c -3.7e-5,0.01547 5.3e-5,0.03158 0,0.04687 0.0017,0.0234 0.0077,0.0937 0.0059,0.07031 -0.003,-0.03928 -0.0037,-0.07814 -0.0059,-0.117188 z m 0.125,0.04687 c -1.68e-4,0.0063 0.0058,0.0783 0.02148,0.238281 0.0068,0.0211 0.01626,0.0415 0.02344,0.0625 -0.02635,-0.173487 -0.04469,-0.309539 -0.04492,-0.300781 z m 6.347656,1.230469 c -0.04314,0.325233 -0.002,0.04703 0.002,0.01172 3.93e-4,-0.0035 -0.0017,-0.0079 -0.002,-0.01172 z m -0.21875,3.574219 c -0.02564,0.502914 -0.02478,0.72015 -0.02148,0.871093 0.0192,-0.153694 0.03974,-0.306389 0.04883,-0.460937 0.0057,-0.09741 -0.0049,-0.195619 -0.01172,-0.292969 -0.0027,-0.03939 -0.01362,-0.156617 -0.01563,-0.117187 z m -0.107422,1.484375 c -0.0071,0.04896 -0.01761,0.09765 -0.02539,0.146484 0.0022,-0.01056 0.0059,-0.02064 0.0078,-0.03125 -3.52e-4,0.0014 0.0023,-0.0051 0.002,-0.0039 6.22e-4,-0.0034 0.0014,-0.0064 0.002,-0.0098 0.0062,-0.03518 0.0094,-0.068 0.01367,-0.101562 z m -0.822265,0.574218 c 0.0087,0.02404 0.01712,0.04815 0.02539,0.07227 -0.0071,-0.02624 -0.01138,-0.0467 -0.01758,-0.07031 -0.0026,-3.43e-4 -0.0052,-0.0016 -0.0078,-0.002 z m -6.492188,0.480469 c 0.02068,0.0373 0.02718,0.05034 0.04297,0.07422 0.02406,0.03638 0.104838,0.141359 0.08008,0.105469 -0.04111,-0.05951 -0.0815,-0.120295 -0.123047,-0.179688 z m 6.759766,0.78125 c -8.9e-4,0.02736 -0.0029,0.05467 -0.0039,0.08203 7.86e-4,-0.01303 0.0037,-0.026 0.0039,-0.03906 4.61e-4,-0.02844 2.75e-4,-0.01456 0,-0.04297 z m 0.132812,2.392578 c 0.0041,0.03576 0.0074,0.07168 0.01172,0.107422 -0.0041,-0.01956 -0.0098,-0.04031 -0.0098,-0.05469 10e-5,-0.01729 -0.004,-0.06991 -0.002,-0.05273 z m -6.039062,2.634766 c 0.02128,-0.11264 -0.0653,0.220109 -0.09766,0.330078 -0.01445,0.158113 -0.0069,0.06694 -0.01562,0.162109 0.04078,-0.163129 0.0821,-0.327089 0.113281,-0.492187 z m 5.941406,3.380859 c 0.0043,0.07183 0.0102,0.143094 0.01563,0.214844 -1.53e-4,-0.01396 0.0026,-0.032 0.002,-0.04297 -0.0034,-0.0579 -0.02098,-0.229775 -0.01758,-0.171875 z m 0.0078,0.404297 c -0.01044,0.05386 -0.021,0.107889 -0.0293,0.16211 -0.0071,0.04658 0.0228,-0.092 0.0293,-0.138672 7.68e-4,-0.0055 -7.13e-4,-0.01688 0,-0.02344 z m -3.220704,10.525391 c 1.47e-4,0.01236 -1.66e-4,0.02095 0,0.03516 0.0027,2.3e-5 0.0078,-1.3e-4 0.0098,0 0.0026,1.82e-4 0.0053,-2.16e-4 0.0078,0 0.0012,2.1e-5 0.0027,-3.6e-5 0.0039,0 -0.0083,-0.01087 -0.01553,-0.02255 -0.02148,-0.03516 z m 0.298828,0.859375 c -0.0023,-2.9e-4 0.0055,0.0043 0.0059,0.002 v -0.002 c -0.002,-2.64e-4 -0.0039,2.73e-4 -0.0059,0 z" /></clipPath><clipPath
     clipPathUnits="userSpaceOnUse"
     id="clipPath25959"><path
       id="path25961"
       style="fill:#ff0000;fill-opacity:1;fill-rule:nonzero;stroke:none"
       d="M 0.5,7.4863281 V 54.998047 h 47.470703 v -8.484375 c -0.01764,0.0028 -0.03504,0.007 -0.05273,0.0098 -0.02474,0.0038 -0.0495,0.0077 -0.07422,0.01172 -0.07611,0.01249 -0.06825,0.01308 -0.15625,0.02148 -0.01877,0.0018 -0.03787,0.0021 -0.05664,0.0039 -0.01506,0.0015 -0.02992,0.0039 -0.04492,0.0059 -0.0093,0.0013 -0.01804,0.0031 -0.02734,0.0039 -0.02583,0.0023 -0.05223,0.0043 -0.07813,0.0059 -0.08278,0.0016 -0.165997,-0.0083 -0.248047,-0.01758 -0.03931,-0.0037 -0.07771,-0.0085 -0.117188,-0.0098 -0.05374,-0.0017 -0.108379,9.06e-4 -0.162109,0.002 -0.04379,0.001 -0.04933,0.0013 -0.101563,-0.0039 -0.01561,-0.0016 -0.03165,-0.004 -0.04687,-0.0078 -0.02262,-0.0056 -0.04454,-0.01153 -0.06641,-0.01953 -0.0066,-0.0024 -0.01326,-0.0047 -0.01953,-0.0078 -0.0092,-8.63e-4 -0.01172,-0.0021 -0.01758,-0.0039 -0.0053,3.69e-4 -0.01033,0.0018 -0.01563,0.002 -0.0266,8.25e-4 -0.0535,4.86e-4 -0.08008,0 -0.01159,0.01624 -0.0017,0.0021 -0.05859,0.0059 -0.01837,0.0012 -0.05521,3.82e-4 -0.07227,0 -0.03043,-7e-4 -0.01803,-0.0025 -0.03516,0.002 -0.06927,0.01 -0.139314,0.0045 -0.208984,0.0039 -0.0551,7.2e-5 -0.110916,8.1e-5 -0.166016,0 -0.05108,-1.41e-4 -0.101264,-1.5e-5 -0.152344,0 -0.0051,0 -0.01053,3.85e-4 -0.01563,0 -0.0196,-0.0015 -0.03911,-0.0032 -0.05859,-0.0059 -0.03117,-0.0043 -0.05598,-0.01267 -0.08594,-0.02344 -0.02398,-0.0086 -0.03364,-0.01762 -0.02148,-0.0078 -0.01628,-0.0034 -0.03243,-0.0068 -0.04883,-0.0098 -0.03565,0.02101 -0.06873,0.02198 -0.09375,-0.01172 -0.04243,-0.05715 -0.07312,-0.111048 -0.09375,-0.16211 -0.07397,0.05311 -0.128144,0.06487 -0.132813,-0.03906 -0.01627,-0.0014 -0.02786,-0.0022 -0.04297,-0.0039 -0.0012,0.01044 -0.0031,0.03542 -0.0039,0.03906 -9.11e-4,-0.0023 -0.0011,-0.02915 -0.002,-0.04102 -0.01889,-0.0022 -0.04094,-0.0041 -0.05469,-0.0059 -0.01143,-0.0015 -0.02386,-0.0036 -0.03516,-0.0059 v -0.002 c -0.48598,-0.0972 -0.442792,-0.550244 -0.03125,-0.554688 0.01033,-1.12e-4 0.0223,-4.43e-4 0.0332,0 10e-4,-0.02076 0.0031,-0.01842 0.0039,-0.04102 9.3e-5,-0.0027 0.0361,-0.0052 0.0625,-0.0059 0.0011,-0.02218 9.06e-4,-0.03545 0.002,-0.05078 -0.0229,-0.04803 -0.02407,-0.06064 -0.0332,-0.101563 -0.04411,-0.198491 0.002,-0.340262 0.08398,-0.412109 -0.04212,-0.09321 -0.06614,-0.194091 -0.09961,-0.291016 0.0132,-0.02443 0.0284,-0.04753 0.04102,-0.07227 -0.003,0.0029 -0.0067,0.005 -0.0098,0.0078 0.0046,-0.0064 0.01711,-0.02463 0.01367,-0.01758 -0.0016,0.0032 -0.0023,0.0066 -0.0039,0.0098 0.01338,-0.01271 0.02588,-0.02611 0.03906,-0.03906 -0.03834,-0.02014 -0.08217,-0.04363 -0.101563,-0.05859 -0.01749,-0.0135 -0.03268,-0.02976 -0.04883,-0.04492 -0.13564,-0.0075 -0.295222,-0.116305 -0.435547,-0.142578 -1.882494,-0.352441 -1.837643,-0.959375 -1.082031,-1.660156 -0.223362,-0.231951 -0.443727,-0.491328 -0.660156,-0.78125 -0.08665,-0.116076 -0.155321,-0.208058 -0.216797,-0.294922 -0.02063,0.02951 -0.06735,0.09602 -0.08398,0.119141 0.02246,0.08612 0.04763,0.171214 0.06641,0.257812 0.06853,0.126586 0.142257,0.25117 0.199219,0.382813 0.05456,0.126108 -0.130263,-0.242248 -0.195313,-0.363281 -0.0014,-0.0065 -0.0025,-0.01306 -0.0039,-0.01953 -0.03758,-0.06943 -0.07276,-0.140012 -0.101563,-0.21289 -0.156135,0.199996 -0.173238,0.09085 -0.173828,-0.488281 1.07e-4,-0.01937 -1.37e-4,-0.03922 0,-0.05859 1.12e-4,-0.01592 -1.27e-4,-0.03095 0,-0.04687 3.23e-4,-0.03974 0.0012,-0.03117 0.002,-0.0332 -7.05e-4,-0.01166 0.0015,0.0053 0,-0.03125 -0.0034,-0.01823 -0.0028,-0.03656 -0.0059,-0.05469 -0.06077,-0.15444 -0.123834,-0.3444 -0.205078,-0.611328 -0.0091,-0.02999 -0.01797,-0.05949 -0.02539,-0.08984 -3.326009,-2.142357 -2.658734,-5.38725 0.04687,-5.851562 0.01178,-0.182988 0.02864,-0.365086 0.0625,-0.544922 0.0024,-0.324661 0.0023,-0.144042 0.0039,-0.548828 2.83e-4,-0.07227 -8.3e-5,-0.144527 0,-0.216797 0.01347,-0.351419 -0.05869,-0.702899 0,-1.054688 0.01503,-0.09011 0.03788,-0.178595 0.05859,-0.267578 0.0013,-0.07704 0.004,-0.158601 0,-0.214843 -2e-4,-0.323665 -7.68e-4,-0.647041 0,-0.970704 -0.0014,-0.353315 -0.01473,-0.707693 0.0098,-1.060546 0.0089,-0.114807 -8.8e-5,-0.06283 0.01172,0 0.01108,0.05906 0.04776,0.237194 0.03906,0.177734 -0.0556,-0.381979 -0.147557,-0.751908 -0.123047,-1.146484 -0.0014,-0.34808 -0.003,-0.693486 0.01172,-1.041016 -3.26e-4,0.0051 -0.0013,0.0065 -0.002,0.0098 0.0014,-0.03169 0.0055,-0.125435 0.0039,-0.09375 -0.0014,0.02807 -6.1e-5,0.05595 -0.002,0.08398 0.0013,-0.02028 0.0015,-0.05097 0.0078,-0.03906 0.01348,0.02552 0.02879,0.110722 0.02539,0.08203 -0.0368,-0.308217 -0.111283,-0.615905 -0.117188,-0.927735 v -0.002 c -0.01368,-0.05686 -0.02433,-0.126567 -0.03516,-0.238281 -0.0022,-0.0065 -0.0035,-0.0087 -0.0059,-0.01563 -0.07432,-0.231398 -0.03476,-0.104704 -0.07227,-0.228516 -0.0067,-0.02204 -0.01975,-0.04338 -0.01953,-0.06641 -0.0104,-0.02466 -0.02096,-0.04951 -0.03125,-0.07422 -0.01138,-0.02917 -0.02574,-0.05732 -0.03906,-0.08594 -0.05996,-0.08991 -0.119746,-0.180307 -0.177735,-0.271485 -0.03192,-0.05019 -0.05878,-0.102418 -0.08789,-0.154296 -0.03885,-0.07206 -0.07954,-0.14413 -0.117187,-0.216797 -0.178868,-0.256047 -0.355686,-0.51447 -0.480469,-0.802735 -1.436483,-3.318476 -0.221275,-5.59938 1.585938,-5.816406 1.85e-4,-0.07162 -6.4e-4,-0.143956 0,-0.203125 7e-4,-0.04716 -8.98e-4,-0.09371 0.0039,-0.140625 0.02039,-0.194101 0.03998,-0.388965 0.06836,-0.582031 -0.0046,-0.157349 -0.0062,-0.313606 -0.0059,-0.472657 -0.0016,-0.163208 -0.0021,-0.327013 -0.002,-0.490234 -0.003,-0.05793 -0.0013,-0.112342 0,-0.167969 4e-6,-0.0039 -4e-6,-0.0078 0,-0.01172 v -0.002 c -0.02225,-0.177314 -0.04122,-0.355545 -0.06055,-0.533204 -0.0027,-0.02458 -2.6e-5,-0.04949 0,-0.07422 -2e-4,-0.190251 -0.01277,-0.38016 -0.0039,-0.570313 9.5e-4,-0.02078 0.0028,-0.04173 0.0039,-0.0625 -0.03957,-0.221708 -0.07056,-0.444199 -0.06445,-0.669922 1.6e-5,-0.146637 4.7e-5,-0.292815 0,-0.439453 -0.01424,-0.179584 -0.01557,-0.336737 -0.01172,-0.501953 -0.422213,-0.220828 -0.66614,-0.720912 -0.789062,-1.306641 -0.130618,-0.03489 -0.23807,-0.06792 -0.59375,-0.191406 -0.03633,-0.01261 -0.07188,-0.02807 -0.107422,-0.04297 -0.01924,-0.0031 -0.03985,-0.0062 -0.05859,-0.0098 0.01672,0.0066 0.03938,0.01699 0.05078,0.02148 0.02689,0.0106 0.112925,0.01978 0.08398,0.02148 -0.09049,0.0054 -0.180915,-0.0078 -0.271485,-0.01172 -0.330765,-0.01075 -0.27176,-0.0043 -0.730469,-0.04687 -0.106386,-0.0099 -0.211724,-0.03041 -0.318359,-0.03711 -0.03709,-0.0024 -0.07421,0.0081 -0.111328,0.0098 -0.17551,0.0081 -0.349729,0.0063 -0.525391,0.0098 -0.07884,0.0021 -0.157468,0.0064 -0.236328,0.0078 -0.134566,0.0024 -0.269816,8.9e-5 -0.404297,0 -0.103473,0.02413 -0.196046,0.0327 -0.673828,0.07813 -1.207871,0.114829 -1.703647,-0.0841 -1.773437,-0.46875 -0.114774,0.01167 -0.228279,0.02946 -0.34375,0.03711 -0.0091,5.98e-4 0.01689,-0.0064 0.02539,-0.0098 0.1986,-0.112282 0.01226,-0.0018 -0.404296,0.0918 -0.744155,0.16729 -1.502757,0.245793 -2.257813,0.345703 -0.413619,0.04581 -0.821774,0.09092 -1.238281,0.09961 h -0.002 c -2.019214,0.504804 -3.527688,0.151612 -4.416016,-0.59375 -0.141341,-9.78e-4 -0.282883,-0.0058 -0.423828,0 -0.163679,0.0068 -0.326752,0.02054 -0.490235,0.03125 -0.505762,0.03635 -0.4508,0.0275 -0.96289,0.08399 -0.08289,0.0091 -0.164857,0.02545 -0.248047,0.03125 -0.222262,0.01546 -0.445212,0.0289 -0.667969,0.0332 -0.488936,0.0095 -0.302791,-0.0785 -0.470703,0.0078 -0.392636,0.06347 -0.778218,0.110933 -1.177734,0.126953 -0.243829,0.0098 -0.463106,-0.0087 -0.703125,-0.02344 -0.01302,-0.0011 -0.02605,-0.0027 -0.03906,-0.0039 0.0019,-1.2e-4 -0.0069,1.46e-4 -0.0059,0 -0.13256,0.0078 -0.267884,0.0047 -0.400391,0.0059 -0.0629,-0.005 -0.154186,-0.0033 -0.240234,-0.002 -0.222627,0.05044 -0.446857,0.0973 -0.671875,0.134765 -0.0023,7.24e-4 -0.03887,0.01167 -0.03906,0.01172 -0.357549,0.0892 -0.73811,0.04927 -1.099609,0.02149 -0.04994,-0.0039 0.100561,0.01032 0.150391,0.01563 -0.168559,0.0061 -0.347666,0.0062 -0.519532,0.0059 -0.07021,0.001 -0.13928,-0.0064 -0.208984,-0.0098 0.101779,0.09759 0.202232,0.193657 0.310547,0.294922 -0.414158,0.03585 -0.498336,0.06462 -0.863281,0.03906 -0.147723,-0.01035 -0.589124,-0.04035 -0.441407,-0.05078 0.04394,-0.0031 0.17484,-0.0014 0.13086,-0.0039 -0.10803,-0.0061 -0.216034,-0.004 -0.324219,-0.0059 -0.155897,-0.01547 -0.310914,-0.03127 -0.466797,-0.04687 0.02514,0 0.101338,-0.0087 0.07617,-0.0098 -0.113548,-0.0048 -0.228207,0.0017 -0.341797,-0.002 -0.04587,-0.0015 -0.05205,-0.0026 -0.08984,-0.0039 -0.893506,0.594398 -1.969009,0.506155 -2.919921,0.210937 0.201859,0.04864 0.438188,0.08973 0.716796,0.123047 0.07363,0.0088 0.744812,0.10476 0.769532,0.0332 0.05466,-0.158119 0.09031,-0.294183 0.138672,-0.445312 -0.200019,5.47e-4 -0.399868,0.0077 -0.59961,0.002 -0.406869,-0.01177 -0.78537,-0.04968 -1.138672,-0.111328 -0.01043,0.143295 -0.02831,0.237721 -0.07617,0.259766 0.08444,0.02727 0.168451,0.05513 0.25,0.08984 0.165707,0.07054 -0.352669,-0.07031 -0.529296,-0.105469 0.02818,0.01266 0.05492,0.02697 0.08594,0.03906 -0.13553,-0.03965 -0.18812,-0.05547 -0.08789,-0.03906 -0.0922,-0.04151 -0.169183,-0.08746 -0.232422,-0.134765 -0.178212,-0.05086 -0.354962,-0.105463 -0.521484,-0.185547 -0.260721,-0.125387 -0.47932,-0.326667 -0.691406,-0.523438 -0.01488,-0.0138 -0.02644,-0.03081 -0.04102,-0.04492 -0.174571,-0.101621 -0.335507,-0.211772 -0.482422,-0.328125 -0.01161,-0.0033 -0.02348,-0.0051 -0.03516,-0.0078 -0.01312,-0.01758 -0.02566,-0.03544 -0.03906,-0.05273 -0.338332,-0.282245 -0.591061,-0.602762 -0.773438,-0.939453 -0.180266,0.272237 -0.313302,0.142089 -0.429687,-0.115235 -0.05255,0.03149 -0.110875,0.05457 -0.173829,0.07031 -0.0018,0.0053 -0.0041,0.01036 -0.0059,0.01563 -0.0061,0.01828 -0.0239,0.08524 -0.0293,0.0957 -0.008,0.01551 -0.02247,0.02726 -0.0332,0.04102 -0.04024,0.0077 -0.08035,0.01914 -0.121094,0.02344 -0.0069,7e-4 -0.01148,-0.0045 -0.01758,-0.0078 -0.0092,-0.005 -0.02004,-0.01008 -0.02734,-0.01758 -0.03553,-0.03621 -0.05427,-0.07974 -0.04102,-0.132812 -0.09157,-0.01057 -0.187218,-0.03744 -0.28711,-0.08008 -0.040266,0.008 -0.078893,0.0119 -0.117187,0.01367 C 9.7024951,10.75445 9.1109101,10.796728 8.6015625,10.220703 8.44176,10.116226 8.4096778,10.040306 8.3222656,9.859375 c -0.00465,1.16e-4 -0.00899,-1.243e-4 -0.013672,0 -0.021071,5.599e-4 -0.0172,-0.028449 -0.013672,-0.056641 -0.062117,-0.052532 -0.103361,-0.1714734 -0.109375,-0.4042969 -6.275e-4,-0.024143 -0.00105,-0.048132 0,-0.072266 -1.317e-4,-0.00136 1.235e-4,-0.00258 0,-0.00391 3.888e-4,-0.00672 -3e-7,-0.00723 0,-0.00391 -0.0014,-0.015786 5.332e-4,-0.029662 0,-0.042969 -0.013614,-0.049607 -0.027168,-0.098847 -0.041016,-0.1484375 -0.021169,-0.082446 -0.024823,-0.09536 -0.027344,-0.1835937 -0.00497,-0.036373 -0.026817,-0.1423839 -0.015625,-0.1074219 0.00947,0.029594 0.011923,0.060789 0.015625,0.091797 -3.723e-4,-0.014591 -0.00155,-0.033644 -0.00195,-0.052734 -0.00654,-0.022012 -0.012989,-0.044394 -0.019531,-0.066406 -5.414e-4,-0.00151 4.465e-4,-0.00259 0,-0.00391 l -0.00195,-0.00195 c -3.825e-4,-0.00119 3.722e-4,-0.00271 0,-0.00391 -0.00125,-0.00325 -0.00265,-0.00652 -0.00391,-0.00977 -0.00827,-0.021369 -0.017214,-0.043048 -0.025391,-0.064453 -8.472e-4,-0.00352 -0.00112,-0.00448 -0.00195,-0.00781 -0.00661,-0.01058 -0.013,-0.020625 -0.019531,-0.03125 -0.02851,-0.05476 -0.046964,-0.11303 -0.0625,-0.171875 C 7.9144626,8.3752829 7.8807876,8.2924872 7.8613329,8.107408 V 8.105458 C 7.8430929,8.06957 7.8244699,8.034119 7.8066459,7.9980361 c -0.00312,-0.1624986 -0.00948,-0.1652666 0,-0.2421875 6.49e-5,-0.00195 0.00185,-0.00372 0.00195,-0.00586 3.209e-4,-0.00252 -3.549e-4,-0.00512 0,-0.00781 -0.00162,-0.036003 -0.00206,-0.071393 -0.00195,-0.1074219 5.162e-4,0.022476 0.00194,0.040982 0.00391,0.056641 -0.00197,-0.036358 -0.00379,-0.073072 -0.00391,-0.1113281 v -0.00586 c -1.43e-5,-0.0064 -9.9e-5,-0.046874 0,-0.046875 0.1602752,-0.00225 0.3025663,-0.00876 0.4316406,-0.019531 3.508e-4,-0.00256 -3.516e-4,-0.00525 0,-0.00781 6.551e-4,-0.00477 0.00206,-0.00915 0.00391,-0.013672 z m 13.289062,5.0429689 c 0.115801,0.03304 0.231878,0.06632 0.347657,0.09961 -0.08559,-0.05673 -0.258343,-0.213364 -0.423828,-0.361328 -0.0433,-0.01233 -0.08465,-0.02598 -0.126953,-0.03906 0.02718,0.108394 0.08281,0.210782 0.203124,0.300781 z m 31.572266,33.732422 c 0.02664,0.0023 0.05417,0.0033 0.07422,0.0039 0.01553,4.35e-4 0.03135,0.0018 0.04687,0.002 -0.0086,-0.0261 -0.01401,-0.05032 -0.01758,-0.07422 -0.02928,6.39e-4 -0.05886,0.0015 -0.08789,0.002 -0.0054,-3e-5 -0.009,2.5e-4 -0.01367,0 -0.0022,0.02569 -0.0028,0.04815 -0.002,0.06641 z m 0.121094,0.0059 c 0.0036,0.01093 0.0072,0.02191 0.01172,0.0332 0.01423,-0.01022 0.02952,-0.02038 0.04492,-0.0332 -0.01877,1.26e-4 -0.03788,1.84e-4 -0.05664,0 z M 45.886719,7.4863281 c 0.108398,0.070404 0.217451,0.139898 0.322265,0.2148438 -0.006,-0.011199 -0.01151,-0.022007 -0.01758,-0.033203 -0.03006,-0.055477 -0.09136,-0.1184787 -0.164062,-0.1816407 z m 0.40039,0 c 0.114301,0.2001218 0.231177,0.4066151 0.324219,0.5761719 0.140609,0.1698825 0.247683,0.3666523 0.345703,0.5664062 0.415211,0.1355267 0.677332,0.5151664 0.832031,0.9960938 v 0.00195 c 0.0015,0.00453 0.0025,0.00913 0.0039,0.013672 0.0012,0.00395 0.0027,0.00775 0.0039,0.011719 0.0236,0.023782 0.05069,0.044607 0.07227,0.070312 0.04327,0.051564 0.06689,0.084187 0.101562,0.1269532 V 7.4863281 Z m 1.509766,2.1660157 c -0.04171,-0.042024 -0.08231,-0.085728 -0.126953,-0.125 0.04382,0.041615 0.09522,0.088585 0.123047,0.1132812 0.01205,0.010693 -0.02211,-0.024646 -0.0293,-0.039063 -0.0024,-0.00478 0.0079,0.00473 0.01367,0.00977 -0.156765,-0.1963535 -0.308268,-0.3978911 -0.472656,-0.5878906 -0.07755,-0.089628 -0.16855,-0.1677761 -0.253907,-0.25 -0.01362,-0.013125 -0.02734,-0.026001 -0.04102,-0.039063 0.05762,0.1224052 0.113847,0.2425184 0.169922,0.3613281 0.09028,0.1021597 0.17627,0.2086167 0.257812,0.3183594 0.168249,0.165322 0.308934,0.3266346 0.429688,0.5 -0.01986,-0.090166 -0.044,-0.1769913 -0.07031,-0.2617187 z M 47.009766,8.734375 c -0.01676,-0.035599 -0.03536,-0.070063 -0.05273,-0.1054688 -0.02593,-0.00846 -0.05297,-0.01494 -0.08008,-0.021484 0.04459,0.04206 0.08845,0.084587 0.132813,0.1269531 z M 46.238281,7.5800781 c -0.0023,0.0035 -0.0011,0.012405 0.0059,0.03125 0.0215,0.057899 0.04744,0.1145447 0.07031,0.171875 0.03851,0.02993 0.07847,0.057702 0.115235,0.089844 0.04627,0.040452 0.09005,0.083885 0.130859,0.1289062 -0.0036,-0.00563 -0.006,-0.012013 -0.0098,-0.017578 -0.07838,-0.1168707 -0.296584,-0.4288289 -0.3125,-0.4042969 z M 7.8886719,8.1621094 C 7.9141269,8.2322894 7.9412156,8.3036231 7.9628906,8.375 7.9747026,8.394548 7.986839,8.4129876 8,8.4316406 c 0.00956,0.013552 0.034681,0.045997 0.042969,0.052734 l 0.00195,-0.00195 C 8.0157306,8.4170678 7.985113,8.3511381 7.953125,8.2871094 7.932192,8.2452084 7.909956,8.2038454 7.8886719,8.1621094 Z m 0.1484375,0.4765625 c 0.00107,0.00417 0.00769,0.019604 0.015625,0.039063 -0.00882,-0.029057 -0.017344,-0.045789 -0.015625,-0.039063 z m 0.058594,0.1328125 c 0.00536,0.011236 0.00735,0.016487 0.013672,0.029297 0.0014,0.00285 0.0055,0.00783 0.00781,0.011719 7.78e-5,-0.0019 -9.96e-5,-0.00387 0,-0.00586 -0.00716,-0.011699 -0.014223,-0.023517 -0.021484,-0.035156 z m 0.03125,0.052734 c -1.074e-4,0.00194 1.114e-4,0.00392 0,0.00586 0.00854,0.01292 0.016922,0.023539 0.021484,0.029297 -0.00687,-0.011872 -0.0144,-0.023404 -0.021484,-0.035157 z m -0.00391,0.076172 c -5.842e-4,0.019445 -0.00123,0.039193 0,0.058594 0.00138,0.00576 0.00191,0.011975 0.00391,0.017578 0.00849,0.023886 0.01731,0.047033 0.027344,0.070312 0.00476,0.011038 0.016646,0.036754 0.021484,0.044922 -0.016509,-0.06431 -0.033903,-0.1277247 -0.052734,-0.1914063 z M 47.205078,9.1484375 c 0.0027,0.00569 0.0051,0.011912 0.0078,0.017578 0.0082,0.021586 0.01426,0.044375 0.02148,0.066406 0.0091,0.00659 0.01829,0.012916 0.02734,0.019531 -0.0064,-0.025726 0.04661,0.027332 0.0039,-0.025391 -0.01395,-0.017289 -0.03826,-0.049043 -0.06055,-0.078125 z m 0.0332,0.095703 c 0.02324,0.071654 0.04724,0.1437498 0.08398,0.2089844 0.03216,0.056929 -0.0321,-0.1043307 -0.05469,-0.1816406 -0.0099,-0.00897 -0.0193,-0.018507 -0.0293,-0.027344 z M 47.3457,9.423828 c 0.139948,0.1626086 0.287035,0.3198321 0.431641,0.4785157 -0.004,-0.0083 -0.0072,-0.017567 -0.01172,-0.025391 -0.0689,-0.090127 -0.138385,-0.1803655 -0.210933,-0.2675777 -0.04489,-0.053962 -0.101807,-0.094019 -0.154297,-0.140625 -0.01751,-0.015545 -0.06996,-0.062667 -0.05469,-0.044922 z m -12.115231,2.023438 c 0.05808,0.0377 0.135848,0.06825 0.222656,0.0957 -0.07635,-0.03106 -0.149576,-0.06304 -0.222656,-0.0957 z m 3.96289,0.777343 c -0.200724,0.05067 -0.206443,0.05254 -0.285156,0.07422 0.0052,-3.95e-4 0.01037,-0.0016 0.01563,-0.002 0.0895,-0.02418 0.359421,-0.09496 0.269531,-0.07227 z m -6.886718,0.232422 c -0.08307,0.01147 -0.162869,0.0398 -0.244141,0.06055 -0.0067,-7.02e-4 0.07354,-0.0051 0.109375,-0.01367 0.04612,-0.0111 0.181756,-0.05344 0.134766,-0.04687 z m 10.496093,0.929688 c 2e-5,0.002 -2e-5,0.0039 0,0.0059 0.0016,0.005 0.0023,0.0087 0.0039,0.01367 l 0.002,0.002 c 0.0059,0.0082 0.0097,0.01332 0.01563,0.02149 -0.0023,-0.0044 -0.0036,-0.0092 -0.0059,-0.01367 -0.0055,-0.01 -0.01029,-0.0198 -0.01563,-0.0293 z m 0.0059,0.02148 c 0.0093,0.02889 0.01625,0.05086 0.02539,0.07813 0.0012,0.002 0.0028,0.0038 0.0039,0.0059 1.17e-4,-0.0087 1.72e-4,-0.01518 0,-0.02539 -0.01537,-0.03134 -0.0181,-0.03631 -0.0293,-0.05859 z m 0.0293,0.05859 c 0.05287,0.10781 0.103989,0.213477 0.101562,0.201172 -0.03097,-0.07096 -0.06634,-0.139774 -0.101562,-0.208985 8.2e-5,0.0033 -5.3e-5,0.0047 0,0.0078 z m 0,-0.0078 c -6.2e-5,-0.0025 0.002,-0.0033 0.002,-0.0059 -0.004,-0.0074 -0.0078,-0.01245 -0.01172,-0.01953 0.0041,0.0081 0.0057,0.01731 0.0098,0.02539 z m 0.01563,2.279297 c 0.0018,0.01521 -7.97e-4,0.0163 0.002,0.0332 0.0032,0.02712 0.0082,0.03986 0.01758,0.08008 v -0.0078 c -0.0076,-0.03489 -0.0122,-0.07045 -0.01953,-0.105469 z m 0.105468,1.923828 c -0.0026,0.0053 -0.0053,0.01028 -0.0078,0.01563 0.0025,0.03761 0.0057,0.04719 0.01172,0.01172 -6.59e-4,-0.0045 -0.0013,-0.0091 -0.002,-0.01367 -5.61e-4,-0.0039 -0.0014,-0.0097 -0.002,-0.01367 z m -0.07031,0.433594 c -3.7e-5,0.01547 5.3e-5,0.03158 0,0.04687 0.0017,0.0234 0.0077,0.0937 0.0059,0.07031 -0.003,-0.03928 -0.0037,-0.07814 -0.0059,-0.117188 z m 0.125,0.04687 c -1.68e-4,0.0063 0.0058,0.0783 0.02148,0.238281 0.0068,0.0211 0.01626,0.0415 0.02344,0.0625 -0.02635,-0.173487 -0.04469,-0.309539 -0.04492,-0.300781 z m -1.292969,7.34375 c 0.02068,0.0373 0.02718,0.05034 0.04297,0.07422 0.02406,0.03638 0.104838,0.141359 0.08008,0.105469 -0.04111,-0.05951 -0.0815,-0.120295 -0.123047,-0.179688 z m 0.853516,5.808594 c 0.02128,-0.11264 -0.0653,0.220109 -0.09766,0.330078 -0.01445,0.158113 -0.0069,0.06694 -0.01562,0.162109 0.04078,-0.163129 0.0821,-0.327089 0.113281,-0.492187 z m 2.728515,14.310547 c 1.47e-4,0.01236 -1.66e-4,0.02095 0,0.03516 0.0027,2.3e-5 0.0078,-1.3e-4 0.0098,0 0.0026,1.82e-4 0.0053,-2.16e-4 0.0078,0 0.0012,2.1e-5 0.0027,-3.6e-5 0.0039,0 -0.0083,-0.01087 -0.01553,-0.02255 -0.02148,-0.03516 z m 0.298828,0.859375 c -0.0023,-2.9e-4 0.0055,0.0043 0.0059,0.002 v -0.002 c -0.002,-2.64e-4 -0.0039,2.73e-4 -0.0059,0 z" /></clipPath><clipPath
     clipPathUnits="userSpaceOnUse"
     id="clipPath25969"><path
       id="path25971"
       style="fill:#ff0000;fill-opacity:1;fill-rule:nonzero;stroke:none"
       d="M 6.0605469,1.2050781 V 48.71875 H 53.533203 V 1.2050781 Z M 13.595703,4.59375 c 0.691258,-0.010721 1.438677,0.2637961 2.128906,0.8691406 0.03874,-0.00122 0.0481,-0.00122 0.125,-0.00391 0.10198,-0.00203 0.264244,-0.00728 0.425782,-0.00781 0.161537,-5.374e-4 0.322646,0.00495 0.421875,0.023437 0.07119,0.013266 0.140465,0.034204 0.210937,0.050781 0.360044,0.004 0.718287,0.046196 1.066406,0.1542969 0.277091,0.068976 0.562895,0.1069962 0.835938,0.1933594 0.335488,0.094113 0.689352,0.1201276 1.021484,0.2304687 0.04886,0.017431 0.09768,0.035146 0.146485,0.052734 0.107918,-7.842e-4 0.216296,-0.00303 0.324218,-0.00195 l 0.207032,-0.013672 c 0.0537,-0.017595 0.1066,-0.03667 0.160156,-0.054687 0.28742,-0.039722 0.575272,-0.083948 0.863281,-0.1191406 0.154975,-0.018941 0.3218,0.011593 0.478516,0.00195 0.300085,2.4e-5 0.601242,-0.023656 0.90039,0.011719 0.02983,0.00249 0.06388,-0.00709 0.08984,0.00781 0.01866,0.01071 -0.0435,0.00288 -0.06445,0.00781 -0.02326,0.00548 -0.09214,0.025778 -0.06836,0.023437 0.09819,-0.00965 0.195318,-0.032828 0.292968,-0.046875 0.493438,-0.07098 0.395612,-0.056464 0.851563,-0.099609 0.222887,-0.00763 0.445012,-0.018258 0.667969,-0.023437 0.0036,-8e-5 -0.0034,0.0053 -0.0059,0.00781 0.02648,0.00391 0.05165,0.00781 0.07813,0.011719 0.130717,-0.00984 0.260271,-0.033038 0.390625,-0.046875 0.653103,-0.069325 0.617927,-0.061912 1.236328,-0.1054687 0.279243,-0.01393 0.55654,-0.030646 0.835938,-0.041016 0.463905,-0.017218 0.930431,0.011963 1.394531,0 H 30.25 c 1.066883,2e-7 1.945583,0.1885123 2.644531,0.4960938 0.370975,-0.047606 0.743084,-0.089405 1.111328,-0.1523438 l 0.115235,-0.027344 c 0.500275,-0.2544611 1.116958,-0.4131132 1.845703,-0.4316406 0.09797,-0.00249 0.200925,0.00135 0.302734,0.00391 0.04417,-0.013238 0.08734,-0.030263 0.132813,-0.039063 0.219563,-0.042478 0.443495,-0.051408 0.667968,-0.050781 0.224475,6.266e-4 0.450338,0.00995 0.673829,0.00195 1.136433,-0.040651 1.608186,0.1527109 1.664062,0.4921875 0.202454,-3.94e-5 0.404977,-1.5e-5 0.607422,0 0.06327,1.38e-5 0.126183,1e-6 0.189453,0 h 0.375 c 0.410153,-0.00294 0.827918,0.014849 1.230469,0.097656 0.142094,0.02923 0.282879,0.063225 0.423828,0.097656 0.09282,-0.00606 0.161405,-0.00778 0.439453,-0.017578 0.166819,-0.00349 0.552275,0.010782 0.609375,0.00977 0.0087,-2.114e-4 0.01854,1.369e-4 0.02734,0 0.06765,-0.00106 0.08086,-3e-4 0.146484,0 0.01904,8.71e-5 0.07763,5.355e-4 0.05859,0 -0.6747,-0.016197 0.969622,0.386801 1.828133,0.7050829 C 45.25423,6.7889681 45.162898,6.71937 45.070312,6.6523438 44.587331,6.5298798 44.091435,6.4407572 43.642578,6.2285156 c -0.318186,-0.1504536 0.720686,0.037453 1.039063,0.1875 0.137842,0.064964 0.26527,0.1469871 0.388671,0.2363282 0.08625,0.021868 0.172724,0.04345 0.257813,0.068359 0.462578,0.3622151 0.467036,0.3381912 0.697266,0.5917969 -0.761086,-1.6191022 0.144352,-0.054726 0.585937,0.75 0.140609,0.1698825 0.247683,0.3666533 0.345703,0.5664062 0.415211,0.1355267 0.677335,0.5151664 0.832031,0.9960938 v 0.00195 c 0.0015,0.00453 0.0025,0.00913 0.0039,0.013672 0.0012,0.00395 0.0027,0.00775 0.0039,0.011719 0.0236,0.023782 0.05069,0.044607 0.07227,0.070312 0.391982,0.4670713 0.39798,0.5297223 0.615234,0.9765623 -5.01e-4,0.03192 -0.0032,0.06377 -0.0039,0.0957 0.01058,0.02093 0.02709,0.05324 0.03516,0.06836 7.91e-4,0.02467 -6.52e-4,0.04954 0,0.07422 0.0754,0.120133 0.13396,0.202183 0.169922,0.421875 0.06329,0.154938 0.09893,0.337985 0.162109,0.736328 0.02641,0.146335 0.05474,0.293072 0.08984,0.4375 0.02136,0.08787 -0.02465,-0.179341 -0.03125,-0.269531 -0.002,-0.02707 0.01398,0.05124 0.01758,0.07813 0.02906,0.214395 0.06111,0.42901 0.08008,0.644531 0.01778,0.20187 0.0039,0.418441 -0.0039,0.621094 -0.0016,0.01962 -0.0022,0.03898 -0.0039,0.05859 9.1e-4,-0.0077 -1.47e-4,0.01574 0,0.02344 9e-4,0.0472 0.0031,0.09342 0.0039,0.140625 1.8e-5,0.08587 -0.0017,0.171949 -0.002,0.257813 0.01907,0.112549 0.03511,0.343961 0.04492,0.720703 0.03427,0.236065 0.05575,0.473629 0.08008,0.710937 0.003,0.02877 0,0.05897 0,0.08789 2.3e-5,0.236252 2.5e-5,0.472731 0,0.708983 0.01673,0.157818 0.0194,0.291752 0.01367,0.417969 0.01806,0.133684 0.03663,0.266707 0.05469,0.400391 0.0052,0.167717 0.01042,0.260418 0.01172,0.351562 v 0.002 0.002 c 5.58e-4,0.002 0.0014,0.0039 0.002,0.0059 0.01116,0.03972 0.02243,0.07933 0.0332,0.11914 5.04e-4,0.0087 0.0031,0.02842 0.0039,0.03906 0.05234,0.217649 0.104071,0.43527 0.138671,0.65625 0.04749,0.303184 0.01385,0.641858 -0.0039,0.947265 -0.0066,0.04896 -4.7e-5,0.0085 -0.0059,0.04688 0.0094,0.0021 -0.0027,0.05241 -0.002,0.07422 9e-4,0.02446 0.0034,0.0478 0.0039,0.07227 0.0013,0.06184 2.01e-4,0.123697 0.002,0.185547 4e-4,0.167402 -0.0023,0.33455 -0.002,0.501953 5.56e-4,0.146821 3.5e-5,0.294584 0,0.441406 1.2e-5,0.14545 5e-6,0.290097 0,0.435547 -1.3e-5,0.329784 -0.0063,0.369827 -0.109375,0.882813 -0.0065,0.08396 -6.46e-4,0.01318 -0.01172,0.154295 -0.01285,0.08959 -0.0063,0.04784 -0.01172,0.08984 0.01066,0.197009 0.0073,0.394523 0.0078,0.591797 0.0106,0.410031 -0.0329,0.751791 -0.125,1.166016 0.0038,0.140937 -0.0077,0.244408 -0.05273,0.429687 0.01231,-0.111488 0.05747,-0.436314 0.03516,-0.328125 -0.02298,0.111411 -0.03832,0.223295 -0.05469,0.335938 -0.0032,0.03827 -0.005,0.07695 -0.0098,0.115234 -0.0027,0.02142 -0.0027,0.04303 -0.0059,0.06445 -0.02863,0.194319 -0.08356,0.384177 -0.125,0.576172 -0.0078,-0.0011 -0.01561,-0.0028 -0.02344,-0.0039 -0.0097,0.02537 -0.01504,0.03684 -0.0098,0.0059 3.67e-4,-0.002 0.0016,-0.0038 0.002,-0.0059 -0.198465,-0.02883 -0.398691,-0.04797 -0.597656,-0.07422 0.07118,0.239042 0.14357,0.477719 0.214844,0.716797 -0.0012,0.04038 -0.0027,0.08072 -0.0039,0.121094 0.0088,0.03326 0.01957,0.06605 0.02734,0.09961 0.05257,0.226943 0.04874,0.458763 0.03906,0.689453 0.02169,0.207793 0.04404,0.41659 0.05859,0.625 0.01671,0.239647 0.0066,0.446778 0,0.685547 -0.0066,0.08621 -0.01473,0.173436 -0.01953,0.259766 -0.0011,0.01912 0.0014,-0.03858 0.0078,-0.05664 0.0033,-0.0095 0.0018,0.0192 0.002,0.0293 6.6e-4,0.04934 -6.25e-4,0.0991 0,0.148437 0.0034,0.264898 0.0016,-0.05076 0.0039,0.376954 5.1e-5,0.0577 -0.05701,0.164928 0,0.173828 0.0142,0.0022 0.02237,-0.0044 0.02539,-0.01563 0.01681,0.138404 0.03418,0.277042 0.04492,0.416015 0.01723,0.223434 0.0033,0.454116 -0.0039,0.677735 -0.01873,0.258491 -0.0054,0.518277 -0.0039,0.777343 -4.39e-4,0.332735 -2.35e-4,0.665311 0,0.998047 -0.01379,0.159578 0.01939,0.32544 0,0.484375 -0.02118,0.173621 -0.04586,0.34633 -0.07031,0.519532 0.0042,0.152757 0.008,0.306214 0.01172,0.458984 0.0017,0.299611 -0.0017,0.598841 -0.0039,0.898437 -5.09e-4,0.0688 0.0045,0.138542 -0.002,0.207032 -0.02182,0.228303 -0.04516,0.455427 -0.06836,0.683593 -4.84e-4,0.0026 -0.0015,0.0052 -0.002,0.0078 0.0039,0.05089 0.008,0.101441 0.01172,0.152344 0.0027,0.237341 -0.0048,0.47555 -0.0039,0.71289 0.0013,0.281884 0.002,0.563817 0.002,0.845703 v 0.03516 c 0.502031,0.05882 0.701,0.506431 0.347656,1.654297 0.07819,0.186812 0.152736,0.375688 0.226563,0.564453 0.343602,0.454139 0.25056,0.505895 0.0918,1.80664 0.310894,1.502423 -0.233758,2.682471 -1.19336,3.22461 0.01545,0.0062 0.03164,0.01257 0.04687,0.01953 0.01472,0.0067 0.02433,0.02313 0.03516,0.03516 0.0043,0.0048 0.05175,0.06058 0.06055,0.07227 0.01559,0.02062 0.03166,0.0416 0.04688,0.0625 0.05457,0.07203 0.0871,0.157187 0.115234,0.242188 0.0038,0.01142 0.007,0.02346 0.0098,0.03516 0.0062,0.02592 0.01218,0.05204 0.01758,0.07812 0.01032,0.05759 0.01097,0.115579 0.01367,0.173829 0.0011,0.02497 0.0025,0.04926 0.0039,0.07422 0.001,0.01876 0.0027,0.03786 0.002,0.05664 -2.01e-4,0.0046 -0.0016,0.0091 -0.002,0.01367 0.156099,0.05424 0.216487,0.187062 0.171875,0.30664 0.112327,0.122015 0.07165,0.344251 -0.220703,0.472657 -0.0027,0.0012 -0.0052,0.0027 -0.0078,0.0039 0.0351,0.05538 0.0442,0.132027 0.02539,0.21875 0.03852,0.01568 0.0729,0.0407 0.08984,0.08594 0.03382,0.09031 0.01981,0.191782 0.0078,0.289063 0.0082,-0.01056 0.0174,-0.02057 0.02539,-0.03125 0.0022,-0.05105 -0.0064,-0.103416 0.0078,-0.152344 0.01328,-0.04608 -0.0015,0.09658 -0.002,0.144531 -0.0019,0.0026 -0.0039,0.0052 -0.0059,0.0078 -2.24e-4,0.0051 4.81e-4,0.01055 0,0.01563 -9e-4,0.0089 -0.0065,0.01819 -0.01172,0.02539 -0.0058,0.008 -0.01168,0.01547 -0.01758,0.02344 -2.22e-4,0.0019 2.16e-4,0.0039 0,0.0059 -0.0022,0.01917 -0.02101,0.03034 -0.03711,0.04297 -0.01063,0.01306 -0.02181,0.02667 -0.0332,0.03906 -0.0237,0.02577 -0.08997,0.04848 -0.113281,0.05859 -0.01121,0.0031 -0.02422,0.0058 -0.03516,0.0098 -0.0024,9.02e-4 0.009,-0.0023 0.0078,0 -0.0019,0.0035 -0.0062,0.0041 -0.0098,0.0059 -0.02459,0.01203 -0.04969,0.02301 -0.07422,0.03516 -0.0685,0.03798 -0.144863,0.04677 -0.220703,0.05859 -0.02474,0.0038 -0.0495,0.0077 -0.07422,0.01172 -0.07611,0.01249 -0.06825,0.01308 -0.15625,0.02148 -0.01877,0.0018 -0.03787,0.0021 -0.05664,0.0039 -0.01506,0.0015 -0.02992,0.0039 -0.04492,0.0059 -0.0093,0.0013 -0.01804,0.0031 -0.02734,0.0039 -0.02583,0.0023 -0.05223,0.0043 -0.07813,0.0059 -0.08278,0.0016 -0.165997,-0.0083 -0.248047,-0.01758 -0.03931,-0.0037 -0.07771,-0.0085 -0.117188,-0.0098 -0.05374,-0.0017 -0.108379,9.06e-4 -0.162109,0.002 -0.04379,10e-4 -0.04933,0.0013 -0.101563,-0.0039 -0.01561,-0.0016 -0.03164,-0.004 -0.04687,-0.0078 -0.02262,-0.0056 -0.04454,-0.01153 -0.06641,-0.01953 -0.0066,-0.0024 -0.01326,-0.0047 -0.01953,-0.0078 -0.0092,-8.63e-4 -0.01172,-0.0021 -0.01758,-0.0039 -0.0053,3.69e-4 -0.01033,0.0018 -0.01563,0.002 -0.0266,8.25e-4 -0.0535,4.86e-4 -0.08008,0 -0.01159,0.01624 -0.0017,0.0021 -0.05859,0.0059 -0.01837,0.0012 -0.05521,3.82e-4 -0.07227,0 -0.03043,-7e-4 -0.01803,-0.0025 -0.03516,0.002 -0.06927,0.01 -0.139314,0.0045 -0.208984,0.0039 -0.0551,7.2e-5 -0.110916,8.1e-5 -0.166016,0 -0.05108,-1.41e-4 -0.101264,-1.5e-5 -0.152344,0 -0.0051,0 -0.01053,3.85e-4 -0.01563,0 -0.0196,-0.0015 -0.03911,-0.0032 -0.05859,-0.0059 -0.03117,-0.0043 -0.05598,-0.01267 -0.08594,-0.02344 -0.02398,-0.0086 -0.03364,-0.01762 -0.02148,-0.0078 -0.01628,-0.0034 -0.03243,-0.0068 -0.04883,-0.0098 -0.03565,0.02101 -0.06873,0.02198 -0.09375,-0.01172 -0.04243,-0.05715 -0.07312,-0.111048 -0.09375,-0.16211 -0.07397,0.05311 -0.128144,0.06487 -0.132813,-0.03906 -0.01627,-0.0014 -0.02786,-0.0022 -0.04297,-0.0039 -0.0012,0.01044 -0.0031,0.03542 -0.0039,0.03906 -9.11e-4,-0.0023 -0.0011,-0.02915 -0.002,-0.04102 -0.01889,-0.0022 -0.04094,-0.0041 -0.05469,-0.0059 -0.01143,-0.0015 -0.02386,-0.0036 -0.03516,-0.0059 v -0.002 c -0.48598,-0.0972 -0.442792,-0.550244 -0.03125,-0.554688 0.01033,-1.12e-4 0.0223,-4.43e-4 0.0332,0 10e-4,-0.02076 0.0031,-0.01842 0.0039,-0.04102 9.3e-5,-0.0027 0.0361,-0.0052 0.0625,-0.0059 0.0011,-0.02218 9.06e-4,-0.03545 0.002,-0.05078 -0.0229,-0.04803 -0.02407,-0.06064 -0.0332,-0.101563 -0.04411,-0.198491 0.002,-0.340262 0.08398,-0.412109 -0.04212,-0.09321 -0.06614,-0.194091 -0.09961,-0.291016 0.0132,-0.02443 0.0284,-0.04753 0.04102,-0.07227 -0.003,0.0029 -0.0067,0.005 -0.0098,0.0078 0.0046,-0.0064 0.01711,-0.02463 0.01367,-0.01758 -0.0016,0.0032 -0.0023,0.0066 -0.0039,0.0098 0.01338,-0.01271 0.02588,-0.02611 0.03906,-0.03906 -0.03834,-0.02014 -0.08217,-0.04363 -0.101563,-0.05859 -0.01749,-0.0135 -0.03268,-0.02976 -0.04883,-0.04492 -0.13564,-0.0075 -0.295222,-0.116305 -0.435547,-0.142578 -1.88371,-0.352671 -1.840394,-0.960875 -1.083984,-1.662109 -0.222728,-0.231464 -0.442375,-0.49018 -0.658203,-0.779297 -0.08665,-0.116076 -0.155321,-0.208058 -0.216797,-0.294922 -0.02063,0.02951 -0.06735,0.09602 -0.08398,0.119141 0.02246,0.08612 0.04763,0.171214 0.06641,0.257812 0.06853,0.126586 0.142254,0.25117 0.199219,0.382813 0.05456,0.126108 -0.130263,-0.242248 -0.195313,-0.363281 -0.0014,-0.0065 -0.0025,-0.01306 -0.0039,-0.01953 -0.03758,-0.06943 -0.07276,-0.140012 -0.101563,-0.21289 -0.156135,0.199996 -0.173238,0.09085 -0.173828,-0.488281 1.07e-4,-0.01937 -1.37e-4,-0.03922 0,-0.05859 1.12e-4,-0.01592 -1.27e-4,-0.03095 0,-0.04687 3.23e-4,-0.03974 0.0012,-0.03117 0.002,-0.0332 -7.05e-4,-0.01166 0.0015,0.0053 0,-0.03125 -0.0034,-0.01823 -0.0028,-0.03656 -0.0059,-0.05469 -0.06077,-0.15444 -0.123834,-0.3444 -0.205078,-0.611328 -0.0091,-0.02983 -0.01605,-0.05965 -0.02344,-0.08984 -3.328033,-2.142345 -2.661209,-5.387167 0.04492,-5.851562 0.01181,-0.182418 0.02875,-0.365643 0.0625,-0.544922 0.0024,-0.324661 0.0023,-0.144042 0.0039,-0.548828 2.83e-4,-0.07227 -8.3e-5,-0.144527 0,-0.216797 0.01347,-0.351419 -0.05869,-0.702899 0,-1.054688 0.01503,-0.09011 0.03788,-0.178595 0.05859,-0.267578 0.0013,-0.07704 0.004,-0.1586 0,-0.214843 -2e-4,-0.323665 -7.68e-4,-0.647041 0,-0.970704 -0.0014,-0.353315 -0.01473,-0.707694 0.0098,-1.060546 0.0089,-0.114807 -8.8e-5,-0.06283 0.01172,0 0.01108,0.05906 0.04776,0.237194 0.03906,0.177734 -0.0556,-0.381979 -0.147557,-0.751908 -0.123047,-1.146484 -0.0014,-0.34808 -0.003,-0.693486 0.01172,-1.041016 -3.26e-4,0.0051 -0.0013,0.0065 -0.002,0.0098 0.0014,-0.03169 0.0055,-0.125435 0.0039,-0.09375 -0.0014,0.02807 -6.1e-5,0.05595 -0.002,0.08398 0.0013,-0.02028 0.0015,-0.05097 0.0078,-0.03906 0.01348,0.02552 0.02879,0.110722 0.02539,0.08203 -0.0368,-0.308217 -0.111283,-0.615905 -0.117188,-0.927735 v -0.002 c -0.01368,-0.05686 -0.02433,-0.126567 -0.03516,-0.238281 -0.0022,-0.0065 -0.0035,-0.0087 -0.0059,-0.01563 -0.07432,-0.231398 -0.03476,-0.104704 -0.07227,-0.228516 -0.0067,-0.02204 -0.01975,-0.04338 -0.01953,-0.06641 -0.0104,-0.02466 -0.02096,-0.04951 -0.03125,-0.07422 -0.01138,-0.02917 -0.02574,-0.05732 -0.03906,-0.08594 -0.05996,-0.08991 -0.119746,-0.180307 -0.177735,-0.271485 -0.03192,-0.05019 -0.05878,-0.102418 -0.08789,-0.154296 -0.03885,-0.07206 -0.07954,-0.14413 -0.117187,-0.216797 -0.178868,-0.256047 -0.355686,-0.51447 -0.480469,-0.802735 -1.436483,-3.318476 -0.221275,-5.59938 1.585938,-5.816406 1.85e-4,-0.07162 -6.4e-4,-0.143956 0,-0.203125 7e-4,-0.04716 -8.98e-4,-0.09371 0.0039,-0.140625 0.02039,-0.194101 0.03998,-0.388965 0.06836,-0.582031 -0.0046,-0.157349 -0.0062,-0.313616 -0.0059,-0.472657 -0.0016,-0.163208 -0.0021,-0.327013 -0.002,-0.490234 -0.003,-0.05793 -0.0013,-0.112342 0,-0.167969 4e-6,-0.0039 -4e-6,-0.0078 0,-0.01172 v -0.002 c -0.02225,-0.177314 -0.04122,-0.355545 -0.06055,-0.533204 -0.0027,-0.02458 -2.6e-5,-0.04949 0,-0.07422 -2e-4,-0.190251 -0.01277,-0.38016 -0.0039,-0.570313 9.5e-4,-0.02078 0.0028,-0.04173 0.0039,-0.0625 -0.03957,-0.221708 -0.07056,-0.444199 -0.06445,-0.669922 1.6e-5,-0.146637 4.7e-5,-0.292815 0,-0.439453 -0.01424,-0.179584 -0.01557,-0.336737 -0.01172,-0.501953 -0.422213,-0.220828 -0.66614,-0.720912 -0.789062,-1.306641 -0.130618,-0.03489 -0.23807,-0.06792 -0.59375,-0.191406 -0.03633,-0.01261 -0.07188,-0.02807 -0.107422,-0.04297 -0.01924,-0.0031 -0.03985,-0.0062 -0.05859,-0.0098 0.01672,0.0066 0.03938,0.01699 0.05078,0.02148 0.02689,0.0106 0.112925,0.01978 0.08398,0.02148 -0.09049,0.0054 -0.180915,-0.0078 -0.271485,-0.01172 -0.330765,-0.01075 -0.27176,-0.0043 -0.730469,-0.04687 -0.106386,-0.0099 -0.211724,-0.03041 -0.318359,-0.03711 -0.03709,-0.0024 -0.07421,0.0081 -0.111328,0.0098 -0.17551,0.0081 -0.349729,0.0063 -0.525391,0.0098 -0.07884,0.0021 -0.157468,0.0064 -0.236328,0.0078 -0.134566,0.0024 -0.269816,8.9e-5 -0.404297,0 -0.103473,0.02413 -0.196046,0.0327 -0.673828,0.07813 -1.207871,0.114829 -1.703647,-0.0841 -1.773437,-0.46875 -0.114774,0.01167 -0.228279,0.02946 -0.34375,0.03711 -0.0091,5.98e-4 0.01689,-0.0064 0.02539,-0.0098 0.1986,-0.112282 0.01226,-0.0018 -0.404296,0.0918 -0.744155,0.16729 -1.502757,0.245793 -2.257813,0.345703 -0.413619,0.04581 -0.821774,0.09092 -1.238281,0.09961 h -0.002 c -2.019214,0.504804 -3.527688,0.151612 -4.416016,-0.59375 -0.141341,-9.78e-4 -0.282883,-0.0058 -0.423828,0 -0.163679,0.0068 -0.326761,0.02054 -0.490235,0.03125 -0.505762,0.03635 -0.4508,0.0275 -0.96289,0.08399 -0.08289,0.0091 -0.164857,0.02545 -0.248047,0.03125 -0.222262,0.01546 -0.445212,0.0289 -0.667969,0.0332 -0.488936,0.0095 -0.302791,-0.0785 -0.470703,0.0078 -0.392636,0.06347 -0.778218,0.110933 -1.177734,0.126953 -0.243829,0.0098 -0.463106,-0.0087 -0.703125,-0.02344 -0.01302,-0.0011 -0.02605,-0.0027 -0.03906,-0.0039 0.0019,-1.2e-4 -0.0069,1.46e-4 -0.0059,0 -0.13256,0.0078 -0.267884,0.0047 -0.400391,0.0059 -0.0629,-0.005 -0.154186,-0.0033 -0.240234,-0.002 -0.222627,0.05044 -0.446857,0.0973 -0.671875,0.134765 -0.0023,7.24e-4 -0.03887,0.01167 -0.03906,0.01172 -0.357549,0.0892 -0.73811,0.04927 -1.099609,0.02149 -0.04994,-0.0039 0.100561,0.01032 0.150391,0.01563 -0.168559,0.0061 -0.347666,0.0062 -0.519532,0.0059 -0.07021,10e-4 -0.13928,-0.0064 -0.208984,-0.0098 0.101779,0.09759 0.202232,0.193657 0.310547,0.294922 -0.414158,0.03585 -0.498336,0.06462 -0.863281,0.03906 -0.147723,-0.01035 -0.589124,-0.04035 -0.441407,-0.05078 0.04394,-0.0031 0.17484,-0.0014 0.13086,-0.0039 -0.10803,-0.0061 -0.216034,-0.004 -0.324219,-0.0059 -0.155897,-0.01547 -0.310914,-0.03127 -0.466797,-0.04687 0.02514,0 0.101338,-0.0087 0.07617,-0.0098 -0.113548,-0.0048 -0.228207,0.0017 -0.341797,-0.002 -0.04587,-0.0015 -0.05205,-0.0026 -0.08984,-0.0039 -0.893506,0.594398 -1.969009,0.506155 -2.919921,0.210937 0.201859,0.04864 0.438188,0.08973 0.716796,0.123047 0.07363,0.0088 0.744812,0.10476 0.769532,0.0332 0.05466,-0.158119 0.09031,-0.294183 0.138672,-0.445312 -0.200019,5.47e-4 -0.399868,0.0077 -0.59961,0.002 -0.406869,-0.01177 -0.78537,-0.04968 -1.138672,-0.111328 -0.01045,0.142911 -0.02838,0.237756 -0.07617,0.259766 0.08444,0.02727 0.168451,0.05513 0.25,0.08984 0.165707,0.07054 -0.352669,-0.07031 -0.529296,-0.105469 0.02818,0.01266 0.05492,0.02697 0.08594,0.03906 -0.13553,-0.03965 -0.18812,-0.05547 -0.08789,-0.03906 -0.0922,-0.04151 -0.169183,-0.08746 -0.232422,-0.134765 -0.178212,-0.05085 -0.354962,-0.105463 -0.521484,-0.185547 -0.260721,-0.125387 -0.47932,-0.326661 -0.691406,-0.523438 -0.01488,-0.0138 -0.02644,-0.03081 -0.04102,-0.04492 -0.174571,-0.101621 -0.335507,-0.211772 -0.482422,-0.328125 -0.01161,-0.0033 -0.02348,-0.0051 -0.03516,-0.0078 -0.01312,-0.01758 -0.02566,-0.03544 -0.03906,-0.05273 -0.338332,-0.282245 -0.591061,-0.602761 -0.773438,-0.939453 -0.180863,0.27314 -0.31501,0.145674 -0.43164,-0.113282 -0.18619,0.110485 -0.443157,0.12796 -0.726563,0.0098 -0.04354,0.009 -0.085646,0.01224 -0.1269531,0.01367 C 9.69967,10.753825 9.1093073,10.794915 8.6015625,10.220703 8.44176,10.116226 8.4096778,10.040306 8.3222656,9.859375 c -0.00465,1.16e-4 -0.00899,-1.243e-4 -0.013672,0 -0.021071,5.599e-4 -0.0172,-0.028449 -0.013672,-0.056641 -0.062117,-0.052532 -0.103361,-0.1714734 -0.109375,-0.4042969 -6.275e-4,-0.024143 -0.00105,-0.048132 0,-0.072266 -1.317e-4,-0.00136 1.235e-4,-0.00258 0,-0.00391 3.888e-4,-0.00672 -3e-7,-0.00723 0,-0.00391 -0.0014,-0.015786 5.332e-4,-0.029662 0,-0.042969 -0.013614,-0.049607 -0.027168,-0.098847 -0.041016,-0.1484375 -0.021169,-0.082446 -0.024823,-0.09536 -0.027344,-0.1835937 -0.00497,-0.036373 -0.026817,-0.1423839 -0.015625,-0.1074219 0.00947,0.029594 0.011923,0.060789 0.015625,0.091797 -3.723e-4,-0.014591 -0.00155,-0.033644 -0.00195,-0.052734 -0.00654,-0.022012 -0.012989,-0.044394 -0.019531,-0.066406 -5.414e-4,-0.00151 4.465e-4,-0.00259 0,-0.00391 l -0.00195,-0.00195 c -3.825e-4,-0.00119 3.722e-4,-0.00271 0,-0.00391 -0.00125,-0.00325 -0.00265,-0.00652 -0.00391,-0.00977 -0.00827,-0.021369 -0.017214,-0.043048 -0.025391,-0.064453 -8.472e-4,-0.00352 -0.00112,-0.00448 -0.00195,-0.00781 -0.00661,-0.01058 -0.013,-0.020625 -0.019531,-0.03125 -0.02851,-0.05476 -0.046964,-0.11303 -0.0625,-0.171875 C 7.9144626,8.3752829 7.8807876,8.2924872 7.8613329,8.107408 V 8.105458 C 7.8430929,8.06957 7.8244699,8.034119 7.8066459,7.9980361 c -0.00312,-0.1624986 -0.00948,-0.1652666 0,-0.2421875 6.49e-5,-0.00195 0.00185,-0.00372 0.00195,-0.00586 3.209e-4,-0.00252 -3.549e-4,-0.00512 0,-0.00781 -0.00162,-0.036003 -0.00206,-0.071393 -0.00195,-0.1074219 5.162e-4,0.022476 0.00194,0.040982 0.00391,0.056641 -0.00197,-0.036358 -0.00379,-0.073072 -0.00391,-0.1113281 v -0.00586 c -1.43e-5,-0.0064 -9.9e-5,-0.046874 0,-0.046875 0.1602752,-0.00225 0.3025663,-0.00876 0.4316406,-0.019531 3.508e-4,-0.00256 -3.516e-4,-0.00525 0,-0.00781 0.00131,-0.00955 0.00629,-0.018354 0.00977,-0.027344 0.00311,-0.00804 0.00895,-0.014858 0.00977,-0.023437 0.003,-0.031557 0,-0.064004 0,-0.095703 0,-0.773398 0.390625,-1.1582031 0.78125,-1.1582031 0.2561403,0 0.5121949,0.1660714 0.6582031,0.4980469 0.065969,-0.027471 0.1339799,-0.047861 0.2050782,-0.048828 0.1442532,-0.00196 0.2923222,0.051506 0.4277342,0.1601563 0.0549,-0.090568 0.119917,-0.1734514 0.226563,-0.2011719 0.249645,-0.064889 0.401279,-0.09816 0.511718,-0.099609 -0.0035,-0.00376 -0.0038,-0.00613 0.002,-0.00586 0.0046,2.112e-4 0.01796,0.00545 0.02734,0.00781 0.0422,0.00179 0.07847,0.00939 0.113282,0.021484 0.376606,-1.2149693 1.312981,-1.9169709 2.384765,-1.9335938 z m -2.498047,1.9121094 c -0.0096,-4.073e-4 -0.019,-0.00209 -0.0293,-0.00195 0.0023,0.0024 0.005,0.00549 0.01172,0.00977 0.03688,0.02364 0.07969,0.036039 0.119141,0.054687 0.0023,-0.00762 0.0036,-0.015856 0.0059,-0.023437 -0.03668,-0.012818 -0.08613,-0.03369 -0.107422,-0.039063 z m 2.691406,6.0234376 c 0.115801,0.03304 0.231878,0.06632 0.347657,0.09961 -0.08559,-0.05673 -0.258343,-0.213364 -0.423828,-0.361328 -0.0433,-0.01233 -0.08465,-0.02598 -0.126953,-0.03906 0.02718,0.108394 0.08281,0.210782 0.203124,0.300781 z m 31.572266,33.732422 c 0.02664,0.0023 0.05417,0.0033 0.07422,0.0039 0.01553,4.35e-4 0.03135,0.0018 0.04687,0.002 -0.0086,-0.0261 -0.01401,-0.05032 -0.01758,-0.07422 -0.02928,6.39e-4 -0.05886,0.0015 -0.08789,0.002 -0.0054,-3e-5 -0.009,2.5e-4 -0.01367,0 -0.0022,0.02569 -0.0028,0.04815 -0.002,0.06641 z m 0.121094,0.0059 c 0.0036,0.01093 0.0072,0.02191 0.01172,0.0332 0.01423,-0.01022 0.02952,-0.02038 0.04492,-0.0332 -0.01877,1.26e-4 -0.03788,1.84e-4 -0.05664,0 z m 3.640625,-7.304687 c -0.01483,-0.0196 -0.04016,-0.05086 -0.05664,-0.07227 l 0.140625,0.386719 c 0.0072,-0.02943 0.01837,-0.05951 0.0078,-0.08398 -0.03234,-0.076 -0.06163,-0.153343 -0.0918,-0.230468 z m -0.05664,-0.07227 -0.173828,-0.482422 c -0.01725,0.05573 -0.03677,0.114775 -0.05664,0.173828 0.07767,0.102607 0.173289,0.234313 0.230468,0.308594 z m 0.136719,-21.404297 c -0.0015,-0.01299 -0.0021,-0.02612 -0.0039,-0.03906 -0.0067,-0.04814 -0.04896,-0.188195 -0.03906,-0.140625 0.01259,0.06039 0.02904,0.119561 0.04297,0.179687 z m -0.517578,-6.126953 c -0.03303,-0.08086 -0.07284,-0.164514 -0.132813,-0.28125 -0.01309,-0.02415 -0.02309,-0.04951 -0.03516,-0.07422 3.69e-4,0.01689 -3.14e-4,0.03389 0,0.05078 0.04871,0.102206 0.105051,0.222839 0.138672,0.285156 0.0089,0.06127 0.01845,0.122316 0.02734,0.183594 0.008,6.31e-4 0.0165,0.0029 0.02344,0.0078 -0.0064,-0.06699 -0.01345,-0.1228 -0.02148,-0.171875 z m 0.02148,0.171875 c 0.002,0.02129 0.004,0.04885 0.0059,0.07227 0.01825,0.04581 0.0078,0.02026 0.04883,0.123046 -0.01515,-0.122438 -0.03273,-0.179692 -0.05469,-0.195312 z m 0.0059,0.07227 c -0.01015,-0.02548 -0.02295,-0.05733 -0.02734,-0.06836 6.62e-4,0.0046 0.0013,0.0091 0.002,0.01367 0.01128,0.02911 0.01574,0.04501 0.02539,0.07031 -4e-4,-0.0051 4.06e-4,-0.01059 0,-0.01563 z m 0,0.01563 c 0.0038,0.04843 0.0085,0.08825 0.01172,0.146484 8.5e-4,0.01559 -6.24e-4,0.03126 0,0.04687 0.02229,0.153836 0.04597,0.307116 0.06836,0.460938 -1.32e-4,-0.03454 0.0015,-0.06907 0,-0.103516 -6.27e-4,-0.0072 -0.0036,-0.01423 -0.0039,-0.02148 -4.1e-4,-0.01 0.0013,-0.0137 0.002,-0.01563 v -0.002 c -0.0086,-0.165142 -0.01608,-0.287638 -0.02539,-0.375 -0.0062,-0.01894 -0.03381,-0.08712 -0.05273,-0.136718 z m 0.01172,0.193359 c -0.01274,-0.0879 -0.02435,-0.175771 -0.03711,-0.263672 -0.0041,-0.01059 -0.0055,-0.01455 -0.0098,-0.02539 -0.03726,-3.9e-4 -0.0853,0.01541 -0.154296,-0.08399 0.0012,0.537254 -0.0026,1.073951 0.04492,1.607422 0.03594,-0.134501 0.07639,-0.284868 0.0918,-0.369141 0.05197,-0.284296 0.07601,-0.576333 0.06445,-0.865234 z m -0.03906,-0.277344 c -5.69e-4,-0.0039 -0.0014,-0.0078 -0.002,-0.01172 -0.0012,-9.6e-5 -0.0027,3.3e-5 -0.0039,0 6.13e-4,0.0015 0.0051,0.0098 0.0059,0.01172 z m -0.167969,-0.53125 c -4.82e-4,-0.0221 -0.0014,-0.04432 -0.002,-0.06641 -0.01331,-0.02121 -0.02235,-0.03857 -0.03711,-0.06445 -4.23e-4,0.01499 -0.0015,0.02993 -0.002,0.04492 0.01328,0.02905 0.02703,0.05729 0.04102,0.08594 z M 47.796875,9.6523438 c -0.04171,-0.042024 -0.08231,-0.085728 -0.126953,-0.125 0.04382,0.041615 0.09522,0.088585 0.123047,0.1132812 0.01205,0.010693 -0.02211,-0.024646 -0.0293,-0.039063 -0.0024,-0.00478 0.0079,0.00473 0.01367,0.00977 -0.156765,-0.1963535 -0.308268,-0.3978911 -0.472656,-0.5878906 -0.07755,-0.089628 -0.16855,-0.1677761 -0.253907,-0.25 -0.01362,-0.013125 -0.02734,-0.026001 -0.04102,-0.039063 0.05762,0.1224052 0.113847,0.2425184 0.169922,0.3613281 0.09028,0.1021597 0.17627,0.2086167 0.257812,0.3183594 0.168249,0.165322 0.308934,0.3266346 0.429688,0.5 -0.01986,-0.090166 -0.044,-0.1769913 -0.07031,-0.2617187 z M 47.009766,8.734375 c -0.01676,-0.035599 -0.03536,-0.070063 -0.05273,-0.1054688 -0.02593,-0.00846 -0.05297,-0.01494 -0.08008,-0.021484 0.04459,0.04206 0.08845,0.084587 0.132813,0.1269531 z M 15.742188,5.4785156 c 0.01081,0.00958 0.02047,0.021506 0.03125,0.03125 0.31387,0.081752 0.624881,0.1838081 0.947265,0.2089844 0.211446,0.016513 -0.101125,-0.054754 -0.445312,-0.1289062 -0.179499,0.00144 -0.191042,-0.00133 -0.08789,-0.017578 -0.156906,-0.033259 -0.3307,-0.072779 -0.425781,-0.091797 -0.0065,-0.0013 -0.01305,-10e-4 -0.01953,-0.00195 z m 1.621093,0.15625 c 0.117324,0.03101 0.234922,0.062563 0.353516,0.087891 0.08046,0.017184 -0.150532,-0.072078 -0.232422,-0.080078 -0.04572,-0.00447 -0.07697,-0.00404 -0.121094,-0.00781 z m 2.730469,0.5605469 v 0.00195 c 0.0014,-4.717e-4 0.0025,-0.00148 0.0039,-0.00195 -0.0013,1.765e-4 -0.0026,-1.803e-4 -0.0039,0 z m -0.03906,0.00781 c -0.0273,0.00484 -0.05527,0.00628 -0.08203,0.013672 -0.191677,0.05296 -0.638131,0.2024422 -0.785156,0.2617187 0.0054,0.0013 0.0229,0.00343 0.03516,0.00586 0.28827,-0.073892 0.566235,-0.1813162 0.847656,-0.2792969 -0.0057,-0.00121 -0.01028,-9.395e-4 -0.01562,-0.00195 z m 0.148437,0.03125 c 0.0047,0.00166 0.009,0.0042 0.01367,0.00586 v -0.00195 c -0.0045,-0.00134 -0.0091,-0.0026 -0.01367,-0.00391 z m 0.103516,0.033203 c -0.002,5.788e-4 -0.0039,0.00137 -0.0059,0.00195 0.02932,0.010312 0.05852,0.021103 0.08789,0.03125 0.02782,0.00961 -0.03686,-0.015784 -0.08203,-0.033203 z m -1.113282,0.2207031 c -0.01237,5.228e-4 -0.02474,0.00132 -0.03711,0.00195 h -0.002 c -0.03677,0.016118 -0.03445,0.021895 0.03125,0.00586 0.008,-0.00196 0.01544,-0.0058 0.02344,-0.00781 -0.0052,-9.06e-5 -0.0104,-2.202e-4 -0.01563,0 z m 26.15625,0.5917969 c -0.0014,0.00684 0.01062,0.022546 0.04102,0.048828 0.251648,0.2175996 0.547748,0.3787694 0.818359,0.5722657 -0.006,-0.011199 -0.01151,-0.022007 -0.01758,-0.033203 C 46.0574,7.4206637 45.359217,7.032229 45.349613,7.0800755 Z m -35.203125,0.027344 c -0.02341,0.00175 -0.04714,0.00333 -0.07031,0.00391 -0.02506,6.27e-4 -0.098371,0.00896 -0.07422,0.015625 0.0452,0.012463 0.09121,0.02414 0.136719,0.035156 4e-4,-0.014447 0.0023,-0.0286 0.0039,-0.042969 5.47e-4,-0.00508 0.0032,-0.00694 0.0039,-0.011719 z m 36.091797,0.4726562 c -0.0023,0.0035 -0.0011,0.012405 0.0059,0.03125 0.0215,0.057899 0.04744,0.1145447 0.07031,0.171875 0.03851,0.02993 0.07847,0.057702 0.115235,0.089844 0.04627,0.040452 0.09005,0.083885 0.130859,0.1289062 -0.0036,-0.00563 -0.006,-0.012013 -0.0098,-0.017578 C 46.472407,7.8675022 46.254203,7.555544 46.238287,7.580076 Z M 7.8886719,8.1621094 C 7.9141269,8.2322894 7.9412156,8.3036231 7.9628906,8.375 7.9747026,8.394548 7.986839,8.4129876 8,8.4316406 c 0.00956,0.013552 0.034681,0.045997 0.042969,0.052734 l 0.00195,-0.00195 C 8.0157306,8.4170678 7.985113,8.3511381 7.953125,8.2871094 7.932192,8.2452084 7.909956,8.2038454 7.8886719,8.1621094 Z m 0.1484375,0.4765625 c 0.00107,0.00417 0.00769,0.019604 0.015625,0.039063 -0.00882,-0.029057 -0.017344,-0.045789 -0.015625,-0.039063 z m 0.058594,0.1328125 c 0.00536,0.011236 0.00735,0.016487 0.013672,0.029297 0.0014,0.00285 0.0055,0.00783 0.00781,0.011719 7.78e-5,-0.0019 -9.96e-5,-0.00387 0,-0.00586 -0.00716,-0.011699 -0.014223,-0.023517 -0.021484,-0.035156 z m 0.03125,0.052734 c -1.074e-4,0.00194 1.114e-4,0.00392 0,0.00586 0.00854,0.01292 0.016922,0.023539 0.021484,0.029297 -0.00687,-0.011872 -0.0144,-0.023404 -0.021484,-0.035157 z m -0.00391,0.076172 c -5.842e-4,0.019445 -0.00123,0.039193 0,0.058594 0.00138,0.00576 0.00191,0.011975 0.00391,0.017578 0.00849,0.023886 0.01731,0.047033 0.027344,0.070312 0.00476,0.011038 0.016646,0.036754 0.021484,0.044922 -0.016509,-0.06431 -0.033903,-0.1277247 -0.052734,-0.1914063 z M 47.205078,9.1484375 c 0.0027,0.00569 0.0051,0.011912 0.0078,0.017578 0.0082,0.021586 0.01426,0.044375 0.02148,0.066406 0.0091,0.00659 0.01829,0.012916 0.02734,0.019531 -0.0064,-0.025726 0.04661,0.027332 0.0039,-0.025391 -0.01395,-0.017289 -0.03826,-0.049043 -0.06055,-0.078125 z m 0.0332,0.095703 c 0.02324,0.071654 0.04724,0.1437498 0.08398,0.2089844 0.03216,0.056929 -0.0321,-0.1043307 -0.05469,-0.1816406 -0.0099,-0.00897 -0.0193,-0.018507 -0.0293,-0.027344 z M 47.3457,9.423828 c 0.139948,0.1626086 0.287035,0.3198321 0.431641,0.4785157 -0.004,-0.0083 -0.0072,-0.017567 -0.01172,-0.025391 -0.0689,-0.090115 -0.13839,-0.1803659 -0.210937,-0.2675781 -0.04489,-0.053962 -0.101807,-0.094019 -0.154297,-0.140625 -0.01751,-0.015545 -0.06996,-0.062667 -0.05469,-0.044922 z m -12.146481,2.007813 c 0.07576,0.05501 0.181793,0.100057 0.314453,0.134765 -0.10848,-0.04304 -0.212434,-0.08855 -0.314453,-0.134765 z m 3.99414,0.792968 c -0.200724,0.05067 -0.206443,0.05254 -0.285156,0.07422 0.0052,-3.95e-4 0.01037,-0.0016 0.01563,-0.002 0.0895,-0.02418 0.359421,-0.09496 0.269531,-0.07227 z m -6.886718,0.232422 c -0.08307,0.01147 -0.162869,0.0398 -0.244141,0.06055 -0.0067,-7.02e-4 0.07354,-0.0051 0.109375,-0.01367 0.04612,-0.0111 0.181756,-0.05344 0.134766,-0.04687 z m 10.496093,0.929688 c 2e-5,0.002 -2e-5,0.0039 0,0.0059 0.0016,0.005 0.0023,0.0087 0.0039,0.01367 l 0.002,0.002 c 0.0059,0.0082 0.0097,0.01337 0.01563,0.02149 -0.0023,-0.0044 -0.0036,-0.0092 -0.0059,-0.01367 -0.0055,-0.01 -0.01029,-0.0198 -0.01563,-0.0293 z m 0.0059,0.02148 c 0.0093,0.02889 0.01625,0.05086 0.02539,0.07813 0.0012,0.002 0.0028,0.0038 0.0039,0.0059 1.17e-4,-0.0087 1.72e-4,-0.01518 0,-0.02539 -0.01537,-0.03134 -0.0181,-0.03631 -0.0293,-0.05859 z m 0.0293,0.05859 c 0.05287,0.10781 0.103989,0.213477 0.101562,0.201172 -0.03097,-0.07096 -0.06634,-0.139774 -0.101562,-0.208985 8.2e-5,0.0033 -5.3e-5,0.0047 0,0.0078 z m 0,-0.0078 c -6.2e-5,-0.0025 0.002,-0.0033 0.002,-0.0059 -0.004,-0.0074 -0.0078,-0.01245 -0.01172,-0.01953 0.0041,0.0081 0.0057,0.01731 0.0098,0.02539 z m 0.01563,2.279297 c 0.0018,0.01521 -7.97e-4,0.0163 0.002,0.0332 0.0032,0.02712 0.0082,0.03986 0.01758,0.08008 v -0.0078 c -0.0076,-0.03489 -0.0122,-0.07045 -0.01953,-0.105469 z m 0.105468,1.923828 c -0.0026,0.0053 -0.0053,0.01028 -0.0078,0.01563 0.0025,0.03761 0.0057,0.04719 0.01172,0.01172 -6.59e-4,-0.0045 -0.0013,-0.0091 -0.002,-0.01367 -5.61e-4,-0.0039 -0.0014,-0.0097 -0.002,-0.01367 z m -0.07031,0.433594 c -3.7e-5,0.01547 5.3e-5,0.03158 0,0.04687 0.0017,0.0234 0.0077,0.0937 0.0059,0.07031 -0.003,-0.03928 -0.0037,-0.07814 -0.0059,-0.117188 z m 0.125,0.04687 c -1.68e-4,0.0063 0.0058,0.0783 0.02148,0.238281 0.0068,0.0211 0.01626,0.0415 0.02344,0.0625 -0.02635,-0.173487 -0.04469,-0.309539 -0.04492,-0.300781 z m 6.347656,1.230469 c -0.04314,0.325233 -0.002,0.04703 0.002,0.01172 3.93e-4,-0.0035 -0.0017,-0.0079 -0.002,-0.01172 z m -0.21875,3.574219 c -0.02564,0.502914 -0.02478,0.72015 -0.02148,0.871093 0.0192,-0.153694 0.03974,-0.306389 0.04883,-0.460937 0.0057,-0.09741 -0.0049,-0.195619 -0.01172,-0.292969 -0.0027,-0.03939 -0.01362,-0.156617 -0.01563,-0.117187 z m -0.107422,1.484375 c -0.0071,0.04896 -0.01761,0.09765 -0.02539,0.146484 0.0022,-0.01056 0.0059,-0.02064 0.0078,-0.03125 -3.52e-4,0.0014 0.0023,-0.0051 0.002,-0.0039 6.22e-4,-0.0034 0.0014,-0.0064 0.002,-0.0098 0.0062,-0.03518 0.0094,-0.068 0.01367,-0.101562 z m -0.822265,0.574218 c 0.0087,0.02404 0.01712,0.04815 0.02539,0.07227 -0.0071,-0.02624 -0.01138,-0.0467 -0.01758,-0.07031 -0.0026,-3.43e-4 -0.0052,-0.0016 -0.0078,-0.002 z m -6.492188,0.480469 c 0.02068,0.0373 0.02718,0.05034 0.04297,0.07422 0.02406,0.03638 0.104838,0.141359 0.08008,0.105469 -0.04111,-0.05951 -0.0815,-0.120295 -0.123047,-0.179688 z m 6.759766,0.78125 c -8.9e-4,0.02736 -0.0029,0.05467 -0.0039,0.08203 7.86e-4,-0.01303 0.0037,-0.026 0.0039,-0.03906 4.61e-4,-0.02844 2.75e-4,-0.01456 0,-0.04297 z m 0.132812,2.392578 c 0.0041,0.03576 0.0074,0.07168 0.01172,0.107422 -0.0041,-0.01956 -0.0098,-0.04031 -0.0098,-0.05469 10e-5,-0.01729 -0.004,-0.06991 -0.002,-0.05273 z m -6.039062,2.634766 c 0.02128,-0.11264 -0.0653,0.220109 -0.09766,0.330078 -0.01445,0.158113 -0.0069,0.06694 -0.01562,0.162109 0.04078,-0.163129 0.0821,-0.327089 0.113281,-0.492187 z m 5.941406,3.380859 c 0.0043,0.07183 0.0102,0.143094 0.01563,0.214844 -1.53e-4,-0.01396 0.0026,-0.032 0.002,-0.04297 -0.0034,-0.0579 -0.02098,-0.229775 -0.01758,-0.171875 z m 0.0078,0.404297 c -0.01044,0.05386 -0.021,0.107889 -0.0293,0.16211 -0.0071,0.04658 0.0228,-0.092 0.0293,-0.138672 7.68e-4,-0.0055 -7.13e-4,-0.01688 0,-0.02344 z m -3.220704,10.525391 c 1.47e-4,0.01236 -1.66e-4,0.02095 0,0.03516 0.0027,2.3e-5 0.0078,-1.3e-4 0.0098,0 0.0026,1.82e-4 0.0053,-2.16e-4 0.0078,0 0.0012,2.1e-5 0.0027,-3.6e-5 0.0039,0 -0.0083,-0.01087 -0.01553,-0.02255 -0.02148,-0.03516 z m 0.298828,0.859375 c -0.0023,-2.9e-4 0.0055,0.0043 0.0059,0.002 v -0.002 c -0.002,-2.64e-4 -0.0039,2.73e-4 -0.0059,0 z" /></clipPath></defs><sodipodi:namedview
   id="namedview4548"
   pagecolor="#ffffff"
   bordercolor="#666666"
   borderopacity="1.0"
   inkscape:pageshadow="2"
   inkscape:pageopacity="0.0"
   inkscape:pagecheckerboard="0"
   showgrid="false"
   inkscape:zoom="11.313709"
   inkscape:cx="11.357903"
   inkscape:cy="26.914252"
   inkscape:window-width="1920"
   inkscape:window-height="985"
   inkscape:window-x="506"
   inkscape:window-y="1109"
   inkscape:window-maximized="1"
   inkscape:current-layer="Capa_1" />
<g
   inkscape:groupmode="layer"
   id="layer3"
   inkscape:label="carr 1"
   style="display:inline" /><path
   d="m 53.902144,10.498214 c 0,-5.4529525 -4.436334,-9.88928652 -9.889286,-9.88928652 -4.419522,0 -8.16954,2.91536152 -9.43339,6.92249972 H 5.6770411 C 2.8229933,7.5314272 0.5,9.8544209 0.5,12.708469 v 37.1135 C 0.5,52.677006 2.8229933,55 5.6770411,55 H 42.790542 c 2.855037,0 5.177042,-2.322994 5.177042,-5.177042 V 19.555811 c 3.48894,-1.529873 5.93456,-5.011891 5.93456,-9.057597 z m -7.911429,39.324744 c 0,1.76425 -1.434935,3.199185 -3.199184,3.199185 H 5.6770411 c -1.7642485,0 -3.1991839,-1.434935 -3.1991839,-3.199185 V 12.708469 c 0,-1.764249 1.4349354,-3.1991837 3.1991839,-3.1991837 H 34.173018 c -0.03165,0.3253573 -0.04945,0.6546707 -0.04945,0.9889287 0,5.452952 4.436333,9.889286 9.889285,9.889286 0.677417,0 1.33901,-0.06923 1.977857,-0.199764 z m 0.646759,-31.870201 c -0.195808,0.06923 -0.393593,0.12856 -0.592368,0.182952 -0.0356,0.0099 -0.07219,0.01879 -0.107797,0.02769 -0.175041,0.0445 -0.35107,0.08307 -0.528088,0.115704 -0.09098,0.01681 -0.183941,0.02868 -0.275911,0.04252 -0.132517,0.01978 -0.266022,0.03956 -0.398538,0.05242 -0.238332,0.02077 -0.478642,0.0356 -0.721919,0.0356 -4.362164,0 -7.911429,-3.549264 -7.911429,-7.911428 0,-0.5735785 0.06824,-1.1639689 0.20372,-1.7573262 0.802021,-3.5186081 3.94978,-6.1541025 7.707709,-6.1541025 4.362164,0 7.911429,3.5492653 7.911429,7.9114287 0,3.441472 -2.213222,6.3687 -5.286812,7.454544 z"
   id="path4515"
   style="stroke-width:0.988928;stroke:none;fill:none"
   clip-path="url(#clipPath25949)" />
<g
   id="g4517"
   transform="matrix(0.9889286,0,0,0.9889286,0.0055357,0.60892748)">
</g>
<g
   id="g4519"
   transform="matrix(0.9889286,0,0,0.9889286,0.0055357,0.60892748)">
</g>
<g
   id="g4521"
   transform="matrix(0.9889286,0,0,0.9889286,0.0055357,0.60892748)">
</g>
<g
   id="g4523"
   transform="matrix(0.9889286,0,0,0.9889286,0.0055357,0.60892748)">
</g>
<g
   id="g4525"
   transform="matrix(0.9889286,0,0,0.9889286,0.0055357,0.60892748)">
</g>
<g
   id="g4527"
   transform="matrix(0.9889286,0,0,0.9889286,0.0055357,0.60892748)">
</g>
<g
   id="g4529"
   transform="matrix(0.9889286,0,0,0.9889286,0.0055357,0.60892748)">
</g>
<g
   id="g4531"
   transform="matrix(0.9889286,0,0,0.9889286,0.0055357,0.60892748)">
</g>
<g
   id="g4533"
   transform="matrix(0.9889286,0,0,0.9889286,0.0055357,0.60892748)">
</g>
<g
   id="g4535"
   transform="matrix(0.9889286,0,0,0.9889286,0.0055357,0.60892748)">
</g>
<g
   id="g4537"
   transform="matrix(0.9889286,0,0,0.9889286,0.0055357,0.60892748)">
</g>
<g
   id="g4539"
   transform="matrix(0.9889286,0,0,0.9889286,0.0055357,0.60892748)">
</g>
<g
   id="g4541"
   transform="matrix(0.9889286,0,0,0.9889286,0.0055357,0.60892748)">
</g>
<g
   id="g4543"
   transform="matrix(0.9889286,0,0,0.9889286,0.0055357,0.60892748)">
</g>
<g
   id="g4545"
   transform="matrix(0.9889286,0,0,0.9889286,0.0055357,0.60892748)">
</g>
<rect
   style="fill:none;fill-opacity:1;stroke:#ffffff;stroke-width:2.30632;stroke-linecap:round;stroke-linejoin:round;stroke-miterlimit:4;stroke-dasharray:none;stroke-opacity:1;paint-order:normal"
   id="rect14355"
   width="45.165218"
   height="45.206081"
   x="1.6532125"
   y="8.6388149"
   ry="4"
   clip-path="url(#clipPath25959)" /><g
   id="g29618"
   style="stroke:#ffffff;stroke-opacity:1"><rect
     style="fill:none;fill-opacity:1;stroke:#ffffff;stroke-width:0.526;stroke-linecap:round;stroke-linejoin:miter;stroke-miterlimit:4;stroke-dasharray:none;stroke-opacity:1;paint-order:stroke fill markers"
     id="rect25995"
     width="4.2673569"
     height="1.1836596"
     x="46.009953"
     y="45.557892" /><g
     id="g29612"
     style="stroke:#ffffff;stroke-opacity:1"><rect
       style="fill:none;fill-opacity:1;stroke:#ffffff;stroke-width:2.30632;stroke-linecap:round;stroke-linejoin:round;stroke-miterlimit:4;stroke-dasharray:none;stroke-opacity:1;paint-order:normal"
       id="rect14355-6"
       width="45.165218"
       height="45.206081"
       x="7.214468"
       y="2.3585804"
       ry="4"
       clip-path="url(#clipPath25969)"
       transform="translate(1.4099436,-1.115528)" /><rect
       style="fill:none;fill-opacity:1;stroke:#ffffff;stroke-width:1.10372;stroke-linecap:round;stroke-linejoin:miter;stroke-miterlimit:4;stroke-dasharray:none;stroke-opacity:1;paint-order:stroke fill markers"
       id="rect26231"
       width="0.5994004"
       height="5.9624643"
       x="8.6270828"
       y="5.6669898" /></g></g></svg>
