<?xml version="1.0" encoding="UTF-8" standalone="no"?>
<!-- Generator: Adobe Illustrator 19.0.0, SVG Export Plug-In . SVG Version: 6.00 Build 0)  -->

<svg
   version="1.1"
   id="Capa_1"
   x="0px"
   y="0px"
   viewBox="0 0 56 56"
   style="enable-background:new 0 0 56 56;"
   xml:space="preserve"
   sodipodi:docname="key.svg"
   inkscape:version="1.1.2 (0a00cf5339, 2022-02-04)"
   xmlns:inkscape="http://www.inkscape.org/namespaces/inkscape"
   xmlns:sodipodi="http://sodipodi.sourceforge.net/DTD/sodipodi-0.dtd"
   xmlns="http://www.w3.org/2000/svg"
   xmlns:svg="http://www.w3.org/2000/svg"><defs
   id="defs37" /><sodipodi:namedview
   id="namedview35"
   pagecolor="#ffffff"
   bordercolor="#666666"
   borderopacity="1.0"
   inkscape:pageshadow="2"
   inkscape:pageopacity="0.0"
   inkscape:pagecheckerboard="0"
   showgrid="false"
   inkscape:zoom="12.982143"
   inkscape:cx="28"
   inkscape:cy="28"
   inkscape:window-width="1920"
   inkscape:window-height="985"
   inkscape:window-x="506"
   inkscape:window-y="1109"
   inkscape:window-maximized="1"
   inkscape:current-layer="Capa_1" />
<path
   d="M40,0c-8.822,0-16,7.178-16,16c0,3.285,0.998,6.34,2.702,8.884L0.293,51.293c-0.391,0.391-0.391,1.023,0,1.414  C0.488,52.902,0.744,53,1,53s0.512-0.098,0.707-0.293L6,48.414l7.293,7.293C13.488,55.902,13.744,56,14,56s0.512-0.098,0.707-0.293  c0.391-0.391,0.391-1.023,0-1.414L7.414,47L11,43.414l5.293,5.293C16.488,48.902,16.744,49,17,49s0.512-0.098,0.707-0.293  c0.391-0.391,0.391-1.023,0-1.414L12.414,42L16,38.414l7.293,7.293C23.488,45.902,23.744,46,24,46s0.512-0.098,0.707-0.293  c0.391-0.391,0.391-1.023,0-1.414L17.414,37l10.522-10.522C30.872,29.853,35.186,32,40,32c8.822,0,16-7.178,16-16S48.822,0,40,0z   M40,30c-7.72,0-14-6.28-14-14S32.28,2,40,2s14,6.28,14,14S47.72,30,40,30z"
   id="path2"
   style="fill:#ffffff;fill-opacity:1" />
<g
   id="g4"
   style="fill:#ffffff;fill-opacity:1">
</g>
<g
   id="g6"
   style="fill:#ffffff;fill-opacity:1">
</g>
<g
   id="g8"
   style="fill:#ffffff;fill-opacity:1">
</g>
<g
   id="g10"
   style="fill:#ffffff;fill-opacity:1">
</g>
<g
   id="g12"
   style="fill:#ffffff;fill-opacity:1">
</g>
<g
   id="g14"
   style="fill:#ffffff;fill-opacity:1">
</g>
<g
   id="g16"
   style="fill:#ffffff;fill-opacity:1">
</g>
<g
   id="g18"
   style="fill:#ffffff;fill-opacity:1">
</g>
<g
   id="g20"
   style="fill:#ffffff;fill-opacity:1">
</g>
<g
   id="g22"
   style="fill:#ffffff;fill-opacity:1">
</g>
<g
   id="g24"
   style="fill:#ffffff;fill-opacity:1">
</g>
<g
   id="g26"
   style="fill:#ffffff;fill-opacity:1">
</g>
<g
   id="g28"
   style="fill:#ffffff;fill-opacity:1">
</g>
<g
   id="g30"
   style="fill:#ffffff;fill-opacity:1">
</g>
<g
   id="g32"
   style="fill:#ffffff;fill-opacity:1">
</g>
</svg>
