<?xml version="1.0" encoding="UTF-8" standalone="no"?>
<!-- Generator: Adobe Illustrator 19.0.0, SVG Export Plug-In . SVG Version: 6.00 Build 0)  -->

<svg
   version="1.1"
   id="Capa_1"
   x="0px"
   y="0px"
   viewBox="0 0 59 59"
   style="enable-background:new 0 0 59 59;"
   xml:space="preserve"
   sodipodi:docname="pin.svg"
   inkscape:version="1.1.2 (0a00cf5339, 2022-02-04)"
   xmlns:inkscape="http://www.inkscape.org/namespaces/inkscape"
   xmlns:sodipodi="http://sodipodi.sourceforge.net/DTD/sodipodi-0.dtd"
   xmlns="http://www.w3.org/2000/svg"
   xmlns:svg="http://www.w3.org/2000/svg"><defs
   id="defs3722" /><sodipodi:namedview
   id="namedview3720"
   pagecolor="#ffffff"
   bordercolor="#666666"
   borderopacity="1.0"
   inkscape:pageshadow="2"
   inkscape:pageopacity="0.0"
   inkscape:pagecheckerboard="0"
   showgrid="false"
   inkscape:zoom="12.322034"
   inkscape:cx="13.431224"
   inkscape:cy="29.5"
   inkscape:window-width="1920"
   inkscape:window-height="985"
   inkscape:window-x="506"
   inkscape:window-y="1109"
   inkscape:window-maximized="1"
   inkscape:current-layer="Capa_1" />
<g
   id="g3687"
   style="fill:#ffffff;fill-opacity:1">
	<path
   d="M44.5,15c0-8.271-6.729-15-15-15s-15,6.729-15,15c0,7.934,6.195,14.431,14,14.949V58c0,0.553,0.448,1,1,1s1-0.447,1-1   V29.949C38.305,29.431,44.5,22.934,44.5,15z M29.5,28c-7.168,0-13-5.832-13-13s5.832-13,13-13s13,5.832,13,13S36.668,28,29.5,28z"
   id="path3683"
   style="fill:#ffffff;fill-opacity:1" />
	<path
   d="M24.5,7c-2.206,0-4,1.794-4,4s1.794,4,4,4s4-1.794,4-4S26.706,7,24.5,7z M24.5,13c-1.103,0-2-0.897-2-2s0.897-2,2-2   s2,0.897,2,2S25.603,13,24.5,13z"
   id="path3685"
   style="fill:#ffffff;fill-opacity:1" />
</g>
<g
   id="g3689"
   style="fill:#ffffff;fill-opacity:1">
</g>
<g
   id="g3691"
   style="fill:#ffffff;fill-opacity:1">
</g>
<g
   id="g3693"
   style="fill:#ffffff;fill-opacity:1">
</g>
<g
   id="g3695"
   style="fill:#ffffff;fill-opacity:1">
</g>
<g
   id="g3697"
   style="fill:#ffffff;fill-opacity:1">
</g>
<g
   id="g3699"
   style="fill:#ffffff;fill-opacity:1">
</g>
<g
   id="g3701"
   style="fill:#ffffff;fill-opacity:1">
</g>
<g
   id="g3703"
   style="fill:#ffffff;fill-opacity:1">
</g>
<g
   id="g3705"
   style="fill:#ffffff;fill-opacity:1">
</g>
<g
   id="g3707"
   style="fill:#ffffff;fill-opacity:1">
</g>
<g
   id="g3709"
   style="fill:#ffffff;fill-opacity:1">
</g>
<g
   id="g3711"
   style="fill:#ffffff;fill-opacity:1">
</g>
<g
   id="g3713"
   style="fill:#ffffff;fill-opacity:1">
</g>
<g
   id="g3715"
   style="fill:#ffffff;fill-opacity:1">
</g>
<g
   id="g3717"
   style="fill:#ffffff;fill-opacity:1">
</g>
</svg>
