<?xml version="1.0" encoding="UTF-8" standalone="no"?>
<!-- Generator: Adobe Illustrator 19.0.0, SVG Export Plug-In . SVG Version: 6.00 Build 0)  -->

<svg
   version="1.1"
   id="Capa_1"
   x="0px"
   y="0px"
   viewBox="0 0 52 52"
   style="enable-background:new 0 0 52 52;"
   xml:space="preserve"
   sodipodi:docname="plus.svg"
   inkscape:version="1.1.2 (0a00cf5339, 2022-02-04)"
   xmlns:inkscape="http://www.inkscape.org/namespaces/inkscape"
   xmlns:sodipodi="http://sodipodi.sourceforge.net/DTD/sodipodi-0.dtd"
   xmlns="http://www.w3.org/2000/svg"
   xmlns:svg="http://www.w3.org/2000/svg"><defs
   id="defs3950" /><sodipodi:namedview
   id="namedview3948"
   pagecolor="#ffffff"
   bordercolor="#666666"
   borderopacity="1.0"
   inkscape:pageshadow="2"
   inkscape:pageopacity="0.0"
   inkscape:pagecheckerboard="0"
   showgrid="false"
   inkscape:zoom="13.980769"
   inkscape:cx="11.766162"
   inkscape:cy="26"
   inkscape:window-width="1920"
   inkscape:window-height="985"
   inkscape:window-x="506"
   inkscape:window-y="1109"
   inkscape:window-maximized="1"
   inkscape:current-layer="Capa_1" />
<g
   id="g3915"
   style="fill:#ffffff;fill-opacity:1">
	<path
   d="M26,0C11.664,0,0,11.663,0,26s11.664,26,26,26s26-11.663,26-26S40.336,0,26,0z M26,50C12.767,50,2,39.233,2,26   S12.767,2,26,2s24,10.767,24,24S39.233,50,26,50z"
   id="path3911"
   style="fill:#ffffff;fill-opacity:1" />
	<path
   d="M38.5,25H27V14c0-0.553-0.448-1-1-1s-1,0.447-1,1v11H13.5c-0.552,0-1,0.447-1,1s0.448,1,1,1H25v12c0,0.553,0.448,1,1,1   s1-0.447,1-1V27h11.5c0.552,0,1-0.447,1-1S39.052,25,38.5,25z"
   id="path3913"
   style="fill:#ffffff;fill-opacity:1" />
</g>
<g
   id="g3917"
   style="fill:#ffffff;fill-opacity:1">
</g>
<g
   id="g3919"
   style="fill:#ffffff;fill-opacity:1">
</g>
<g
   id="g3921"
   style="fill:#ffffff;fill-opacity:1">
</g>
<g
   id="g3923"
   style="fill:#ffffff;fill-opacity:1">
</g>
<g
   id="g3925"
   style="fill:#ffffff;fill-opacity:1">
</g>
<g
   id="g3927"
   style="fill:#ffffff;fill-opacity:1">
</g>
<g
   id="g3929"
   style="fill:#ffffff;fill-opacity:1">
</g>
<g
   id="g3931"
   style="fill:#ffffff;fill-opacity:1">
</g>
<g
   id="g3933"
   style="fill:#ffffff;fill-opacity:1">
</g>
<g
   id="g3935"
   style="fill:#ffffff;fill-opacity:1">
</g>
<g
   id="g3937"
   style="fill:#ffffff;fill-opacity:1">
</g>
<g
   id="g3939"
   style="fill:#ffffff;fill-opacity:1">
</g>
<g
   id="g3941"
   style="fill:#ffffff;fill-opacity:1">
</g>
<g
   id="g3943"
   style="fill:#ffffff;fill-opacity:1">
</g>
<g
   id="g3945"
   style="fill:#ffffff;fill-opacity:1">
</g>
</svg>
