<?xml version="1.0" encoding="UTF-8" standalone="no"?>
<!-- Generator: Adobe Illustrator 19.0.0, SVG Export Plug-In . SVG Version: 6.00 Build 0)  -->

<svg
   version="1.1"
   id="Capa_1"
   x="0px"
   y="0px"
   viewBox="0 0 60 60"
   style="enable-background:new 0 0 60 60;"
   xml:space="preserve"
   sodipodi:docname="lock.svg"
   inkscape:version="1.1.2 (0a00cf5339, 2022-02-04)"
   xmlns:inkscape="http://www.inkscape.org/namespaces/inkscape"
   xmlns:sodipodi="http://sodipodi.sourceforge.net/DTD/sodipodi-0.dtd"
   xmlns="http://www.w3.org/2000/svg"
   xmlns:svg="http://www.w3.org/2000/svg"><defs
   id="defs2382" /><sodipodi:namedview
   id="namedview2380"
   pagecolor="#ffffff"
   bordercolor="#666666"
   borderopacity="1.0"
   inkscape:pageshadow="2"
   inkscape:pageopacity="0.0"
   inkscape:pagecheckerboard="0"
   showgrid="false"
   inkscape:zoom="12.116667"
   inkscape:cx="33.466299"
   inkscape:cy="29.999999"
   inkscape:window-width="1920"
   inkscape:window-height="985"
   inkscape:window-x="506"
   inkscape:window-y="1109"
   inkscape:window-maximized="1"
   inkscape:current-layer="g2347" />
<g
   id="g2347">
	
	
	<path
   d="m 49.533117,49.098251 c -10.527405,10.527406 -27.65636,10.527406 -38.183766,0 C 1.3727821,39.121682 0.8573012,23.218143 9.7908884,12.621441 H 3.5711771 c -0.5529575,0 -0.999849,-0.446891 -0.999849,-0.999849 0,-0.275772 0.1117228,-0.526087 0.2927422,-0.707107 0.1810193,-0.181019 0.4313351,-0.292742 0.7071068,-0.292742 h 8.4838669 c 0.130815,-7.07e-4 0.260922,0.02616 0.383959,0.07708 0.243952,0.101116 0.439113,0.296277 0.540229,0.540229 0.05091,0.123037 0.07707,0.252437 0.07707,0.383959 v 8.483867 c 0,0.552958 -0.446891,0.999849 -0.999849,0.999849 -0.552957,0 -0.999849,-0.446891 -0.999849,-0.999849 v -5.88879 c -8.002327,9.809693 -7.4338131,24.325181 1.706956,33.46595 9.747467,9.747467 25.607872,9.747467 35.355339,0 9.747467,-9.747467 9.747467,-25.607872 0,-35.355339 C 43.428665,7.638459 37.193397,5.0377203 30.560735,5.0066076 30.007778,5.0037792 29.562301,4.5540593 29.565129,4.0011018 c 0.0035,-0.5508362 0.452548,-0.9970206 1.004799,-0.9948993 7.163699,0.034648 13.898184,2.8432764 18.963189,7.9082825 10.527406,10.527406 10.527406,27.656361 0,38.183766 z"
   id="path2345"
   style="fill:#ffffff;fill-opacity:1" />
</g>
<g
   id="g2349">
</g>
<g
   id="g2351">
</g>
<g
   id="g2353">
</g>
<g
   id="g2355">
</g>
<g
   id="g2357">
</g>
<g
   id="g2359">
</g>
<g
   id="g2361">
</g>
<g
   id="g2363">
</g>
<g
   id="g2365">
</g>
<g
   id="g2367">
</g>
<g
   id="g2369">
</g>
<g
   id="g2371">
</g>
<g
   id="g2373">
</g>
<g
   id="g2375">
</g>
<g
   id="g2377">
</g>
</svg>
